<svg width="14" height="12" viewBox="0 0 14 12" fill="none" xmlns="http://www.w3.org/2000/svg">
<path fill-rule="evenodd" clip-rule="evenodd" d="M0 0.9C0 0.661305 0.0921871 0.432387 0.256281 0.263604C0.420376 0.0948211 0.642936 0 0.875 0H13.125C13.3571 0 13.5796 0.0948211 13.7437 0.263604C13.9078 0.432387 14 0.661305 14 0.9C14 1.13869 13.9078 1.36761 13.7437 1.5364C13.5796 1.70518 13.3571 1.8 13.125 1.8H0.875C0.642936 1.8 0.420376 1.70518 0.256281 1.5364C0.0921871 1.36761 0 1.13869 0 0.9ZM0 6C0 5.76131 0.0921871 5.53239 0.256281 5.3636C0.420376 5.19482 0.642936 5.1 0.875 5.1H13.125C13.3571 5.1 13.5796 5.19482 13.7437 5.3636C13.9078 5.53239 14 5.76131 14 6C14 6.23869 13.9078 6.46761 13.7437 6.6364C13.5796 6.80518 13.3571 6.9 13.125 6.9H0.875C0.642936 6.9 0.420376 6.80518 0.256281 6.6364C0.0921871 6.46761 0 6.23869 0 6ZM0 11.1C0 10.8613 0.0921871 10.6324 0.256281 10.4636C0.420376 10.2948 0.642936 10.2 0.875 10.2H6.125C6.35706 10.2 6.57962 10.2948 6.74372 10.4636C6.90781 10.6324 7 10.8613 7 11.1C7 11.3387 6.90781 11.5676 6.74372 11.7364C6.57962 11.9052 6.35706 12 6.125 12H0.875C0.642936 12 0.420376 11.9052 0.256281 11.7364C0.0921871 11.5676 0 11.3387 0 11.1Z" fill="white"/>
</svg>
