<svg width="154" height="43" viewBox="0 0 154 43" fill="none" xmlns="http://www.w3.org/2000/svg">
<g clip-path="url(#clip0_15_558)">
<path d="M44.1549 12.4168C44.2279 12.5013 44.301 12.5858 44.3741 12.6665C44.7855 13.1274 45.2124 13.5767 45.6008 14.0568C46.2315 14.8326 46.7891 15.6622 47.3275 16.5033C47.6313 16.9757 47.9389 17.4481 48.212 17.9359C48.6311 18.681 49.0311 19.4376 49.4233 20.198C49.9655 21.2465 50.4309 22.3296 50.8693 23.4242C51.0692 23.9196 51.2269 24.4304 51.4076 24.9335C51.4499 25.0526 51.4961 25.1755 51.5345 25.2946C51.573 25.4175 51.5615 25.429 51.4307 25.429C51.1654 25.429 50.9039 25.429 50.6385 25.429C49.9886 25.429 49.3387 25.429 48.6888 25.4328C48.535 25.4328 48.4581 25.3675 48.385 25.237C48.1658 24.8375 47.9312 24.4458 47.6967 24.054C47.5351 23.7775 47.3775 23.4971 47.1967 23.236C46.7199 22.5447 46.2084 21.8764 45.6431 21.2504C44.9894 20.5283 44.2626 19.8869 43.4704 19.3262C42.6013 18.7078 41.6629 18.2086 40.6669 17.8168C39.9709 17.5441 39.2479 17.3444 38.5249 17.1677C38.0481 17.0525 37.5559 16.9872 37.0675 16.9143C36.6906 16.8566 36.3099 16.8221 35.933 16.7798C35.9176 16.7798 35.9023 16.7798 35.8869 16.7798C35.0562 16.7722 34.2256 16.7491 33.3949 16.7645C32.845 16.7722 32.2951 16.8106 31.749 16.8759C30.9607 16.9719 30.1724 17.0832 29.3879 17.2254C28.6533 17.3559 27.9265 17.5326 27.1997 17.6978C26.0499 17.9551 24.9347 18.3123 23.8502 18.7616C23.1619 19.0497 22.4889 19.3761 21.889 19.8293C21.6313 20.0252 21.4775 20.2979 21.2891 20.5437C21.1314 20.7549 20.9699 20.9623 20.7392 21.1044C20.4546 21.2772 20.1392 21.3886 19.8085 21.3733C19.4086 21.3502 19.1279 21.1006 18.951 20.7664C18.6702 20.2364 18.6433 19.6795 18.851 19.115C19.0202 18.6579 19.3124 18.2777 19.6816 17.9628C20.0546 17.644 20.4392 17.329 20.843 17.0487C21.6813 16.4611 22.5889 15.9887 23.5157 15.5547C24.2463 15.2128 25.0039 14.9517 25.7692 14.6982C25.9961 14.6214 25.9691 14.6521 25.9268 14.4255C25.8884 14.222 25.8499 14.0184 25.8076 13.8148C25.7922 13.7304 25.8192 13.6881 25.8999 13.6497C26.2191 13.4884 26.5383 13.3309 26.8459 13.1466C27.5266 12.7356 28.0496 12.1634 28.4841 11.5028C28.5649 11.3799 28.6187 11.2416 28.7033 11.1225C28.7495 11.0534 28.8226 10.9766 28.8956 10.9497C29.5917 10.7346 30.2108 10.3698 30.7992 9.94731C31.2722 9.60549 31.6721 9.19454 31.9721 8.69525C32.0144 8.62612 32.0644 8.55699 32.099 8.48401C32.1298 8.41488 32.1682 8.41872 32.2259 8.44177C32.5835 8.59155 32.9373 8.75286 33.2988 8.89112C33.7603 9.06779 34.2256 9.23294 34.6909 9.39809C35.0101 9.50947 35.3331 9.62469 35.66 9.71303C36.233 9.87049 36.8137 10.0088 37.3905 10.1547C37.5751 10.2008 37.7635 10.2584 37.952 10.293C38.6903 10.4235 39.4325 10.5503 40.1709 10.6655C41.0361 10.8038 41.9129 10.8191 42.7897 10.8614C43.6242 10.9036 44.4587 10.846 45.2893 10.8038C45.8085 10.7769 46.3238 10.6962 46.8429 10.6425C47.0083 10.6271 47.1737 10.5964 47.3313 10.6847C47.5198 10.7922 47.5736 10.9958 47.4544 11.1763C47.2967 11.4068 47.0737 11.5489 46.8199 11.6449C46.0546 11.9252 45.2778 12.1749 44.4779 12.3362C44.3818 12.3554 44.2856 12.3669 44.1895 12.3823C44.1818 12.3938 44.1779 12.4053 44.1703 12.4168H44.1549Z" fill="#F7931E"/>
<path d="M19.1625 4.76238C19.151 4.73934 19.1433 4.71245 19.1279 4.69325C18.7702 4.25541 18.578 3.74076 18.4241 3.20307C18.3203 2.84589 18.3126 2.48103 18.3857 2.12001C18.4357 1.88189 18.578 1.73978 18.8202 1.7129C19.424 1.64761 20.0277 1.59384 20.6315 1.53623C20.7276 1.52855 20.8276 1.51318 20.9238 1.49782C21.1545 1.4671 21.3852 1.43637 21.616 1.40564C22.0044 1.35572 22.312 1.16752 22.5812 0.890997C22.9504 0.506931 23.4157 0.288014 23.9349 0.157431C24.7347 -0.0461236 25.5423 -0.019239 26.3537 0.0422115C26.7767 0.0729368 27.2036 0.115184 27.6228 0.188157C28.1958 0.288014 28.7649 0.418596 29.2571 0.745052C29.4648 0.883316 29.6571 1.0523 29.834 1.23282C30.3147 1.70906 30.6569 2.27363 30.7915 2.94191C30.8492 3.22612 30.8761 3.51417 30.9184 3.80222C30.98 4.26309 31.0492 4.72781 31.0992 5.18869C31.1184 5.35768 31.1145 5.53435 31.0915 5.70334C31.0684 5.88001 30.9453 5.99139 30.7761 6.05284C30.4223 6.18342 30.057 6.15654 29.7032 6.08741C29.1148 5.97603 28.5842 5.72638 28.1535 5.29623C27.6612 4.80847 27.3766 4.20932 27.2459 3.53721C27.1959 3.28757 27.1844 3.03024 27.1536 2.77676C27.1498 2.74219 27.1421 2.70379 27.1305 2.63466C27.0844 2.68842 27.0498 2.71531 27.0305 2.74988C26.8806 2.99952 26.8306 3.27989 26.819 3.56025C26.796 4.3207 26.9806 5.02354 27.392 5.67262C27.7227 6.19494 28.1881 6.53676 28.738 6.76336C29.2879 6.98996 29.8532 7.00148 30.4185 6.80177C30.4916 6.77488 30.5685 6.75184 30.6454 6.72496C30.6992 6.70575 30.7377 6.71343 30.7608 6.77104C30.8569 7.013 30.9338 7.26265 30.9146 7.52765C30.8992 7.72737 30.8261 7.90788 30.6877 8.05766C30.2647 8.52238 29.7263 8.81427 29.161 9.0716C28.738 9.26363 28.315 9.45566 27.8535 9.544C27.4805 9.61697 27.1036 9.67074 26.7229 9.71683C26.123 9.7898 25.5269 9.70915 24.9347 9.61313C24.8616 9.60161 24.827 9.56704 24.804 9.49791C24.6424 8.9487 24.4502 8.40716 24.1694 7.90788C23.8464 7.33178 23.4618 6.79793 22.9273 6.38698C22.5966 6.13349 22.2428 5.93378 21.8429 5.81856C21.4968 5.7187 21.5121 5.72638 21.3968 6.049C21.2583 6.43691 21.1007 6.82097 20.9353 7.2012C20.643 7.88867 20.3662 8.57999 20.2085 9.31356C20.0662 9.97799 20.0585 10.6501 20.2123 11.3107C20.3354 11.8407 20.6353 12.2747 21.0507 12.6357C21.6083 13.1197 22.2659 13.327 22.985 13.4C23.8118 13.4845 24.6001 13.3501 25.3693 13.0428C25.6077 12.9468 25.6077 12.9507 25.5385 12.701C25.4346 12.3362 25.327 11.9713 25.2231 11.6064C25.1885 11.4874 25.2001 11.4758 25.3308 11.4758C26.0653 11.4797 26.796 11.4643 27.5151 11.2992C27.5843 11.2838 27.6612 11.2416 27.6997 11.1878C27.8112 11.0188 27.9073 10.8383 27.9958 10.6578C28.0189 10.6117 28.015 10.531 27.9919 10.4811C27.865 10.2084 27.9996 9.99335 28.1842 9.87429C28.3573 9.75907 28.6265 9.82821 28.7572 10.0087C28.9341 10.2507 28.8572 10.5733 28.5765 10.6962C28.4726 10.7423 28.4188 10.8114 28.3726 10.9036C28.0804 11.4912 27.6728 11.9867 27.1921 12.4322C26.4268 13.1465 25.5154 13.5613 24.504 13.7726C23.6157 13.9569 22.7273 13.9031 21.8698 13.6151C21.3545 13.4423 20.9122 13.1504 20.5315 12.7548C20.0162 12.2209 19.7432 11.5911 19.697 10.8575C19.6663 10.3544 19.6432 9.85125 19.7509 9.35965C19.8509 8.91029 19.9701 8.45709 20.1316 8.02694C20.3508 7.43164 20.62 6.8517 20.8584 6.26408C20.9199 6.11045 20.9507 5.9453 20.9968 5.78784C21.0238 5.69182 20.9853 5.64573 20.8968 5.62269C20.7161 5.5766 20.5277 5.54203 20.3508 5.4729C20.1162 5.38457 19.8855 5.27319 19.6663 5.15797C19.5624 5.1042 19.4817 5.09268 19.3855 5.15413C19.0048 5.38841 18.7164 5.71486 18.4626 6.07204C18.2203 6.41002 18.0434 6.79025 17.9434 7.18967C17.8512 7.5507 17.7896 7.9194 17.755 8.29194C17.6666 9.22906 17.6973 10.1662 17.7512 11.1033C17.7858 11.6986 17.8396 12.2901 17.8588 12.8854C17.8704 13.2387 17.8396 13.5921 17.8242 13.9454C17.8204 14.0568 17.8127 14.1566 17.9319 14.2296C17.9742 14.2565 18.0088 14.341 18.0011 14.3947C17.9896 14.5061 17.9588 14.6137 17.9204 14.7174C17.8127 15.0016 17.6935 15.2819 17.5858 15.57C17.5473 15.6737 17.4858 15.7236 17.3743 15.739C17.232 15.7582 17.2128 15.7812 17.2435 15.9156C17.3243 16.3074 17.4089 16.6953 17.5012 17.0832C17.5666 17.3636 17.5781 17.6516 17.5089 17.9243C17.382 18.4313 17.1513 18.8922 16.7475 19.2455C16.186 19.7371 15.5207 19.572 15.19 18.9421C15.0285 18.631 15.0093 18.2892 15.0208 17.9512C15.0362 17.4711 15.1131 17.0026 15.2861 16.5494C15.4554 16.1038 15.7553 15.7927 16.2091 15.6391C16.3475 15.593 16.4937 15.5585 16.6321 15.5085C16.6629 15.497 16.7052 15.4509 16.7013 15.4317C16.659 15.2896 16.7129 15.159 16.759 15.0361C16.8628 14.7442 16.9782 14.4524 17.1013 14.1643C17.1282 14.1067 17.2012 14.0529 17.2628 14.026C17.3474 13.9953 17.3858 13.9454 17.3935 13.8647C17.4012 13.7802 17.4128 13.6919 17.4128 13.6074C17.432 12.7202 17.3358 11.8407 17.2897 10.9574C17.2282 9.84357 17.1936 8.72978 17.382 7.61983C17.5089 6.89394 17.7935 6.24103 18.2319 5.64957C18.4857 5.30775 18.7818 5.01202 19.1433 4.78542C19.151 4.78158 19.1586 4.77006 19.1702 4.75854L19.1625 4.76238ZM15.4669 17.909C15.4592 18.2008 15.4592 18.439 15.5515 18.6694C15.6746 18.9767 15.9168 19.1226 16.1822 19.0343C16.2898 18.9997 16.4014 18.9382 16.486 18.8653C16.9667 18.439 17.1551 17.8974 17.0551 17.2714C16.9974 16.9104 16.8936 16.5609 16.8282 16.1999C16.7744 15.9003 16.7898 15.9502 16.5167 16.0117C16.0322 16.123 15.7592 16.4341 15.6246 16.8989C15.5246 17.2445 15.4823 17.5979 15.463 17.909H15.4669Z" fill="#F7931E"/>
<path d="M25.3423 25.886C25.3884 25.7938 25.4154 25.7246 25.4538 25.6594C25.8614 24.9872 26.1422 24.2614 26.3229 23.5009C26.5037 22.7366 26.6306 21.9608 26.6805 21.1735C26.7267 20.4937 26.7459 19.8139 26.7382 19.1302C26.7382 19.0189 26.7228 18.9036 26.7228 18.7923C26.7228 18.7538 26.7575 18.6924 26.7844 18.6847C27.3728 18.5196 27.9573 18.3467 28.5495 18.2008C29.0379 18.0817 29.5301 17.9972 30.0224 17.8974C30.0493 17.8935 30.0762 17.8897 30.0993 17.8897C30.2492 17.882 30.2454 17.8897 30.2377 18.0356C30.2185 18.3544 30.2146 18.677 30.1877 18.9958C30.1377 19.5757 30.0723 20.1557 30.0224 20.7356C29.9493 21.546 29.7993 22.3449 29.6263 23.1399C29.4263 24.054 29.1071 24.9335 28.7687 25.8015C28.7418 25.8667 28.7072 25.8898 28.6418 25.886C28.5264 25.886 28.4072 25.886 28.2918 25.886C27.3574 25.886 26.419 25.886 25.4846 25.886C25.4423 25.886 25.4038 25.886 25.3346 25.886H25.3423Z" fill="#F7931E"/>
<path d="M36.8253 17.7783C36.8714 17.7783 36.9214 17.7745 36.9675 17.7783C37.8482 17.9012 38.7134 18.0702 39.5595 18.3429C40.1017 18.5196 40.6401 18.7039 41.1554 18.942C41.4053 19.0573 41.6515 19.184 41.8976 19.2992C42.2091 19.4452 42.4321 19.6833 42.6244 19.9598C43.1051 20.6511 43.4473 21.4039 43.6973 22.2028C44.0126 23.2013 44.1319 24.2306 44.1165 25.2791C44.1165 25.4327 44.1165 25.4366 43.955 25.4366C42.8974 25.4366 41.8399 25.4366 40.7824 25.4366C40.617 25.4366 40.6208 25.4366 40.6478 25.2714C40.6978 24.968 40.7593 24.6646 40.7785 24.3574C40.8131 23.7544 40.6785 23.1744 40.5016 22.606C40.1401 21.4154 39.4595 20.4092 38.6519 19.4797C38.152 18.9036 37.5751 18.4043 36.9714 17.9358C36.9176 17.8935 36.856 17.8551 36.7983 17.8167C36.8022 17.8052 36.806 17.7937 36.8099 17.7822L36.8253 17.7783Z" fill="#F7931E"/>
<path d="M5.76074 38.0225C4.02638 37.9495 2.71504 37.9111 1.83056 37.9111C1.14604 37.9111 0.676882 37.8381 0.419229 37.6883C0.161575 37.5424 0.0308253 37.2659 0.0308253 36.8587C0.0308253 36.49 0.307707 36.0753 0.86147 35.6144C1.3614 35.1919 1.69596 34.7771 1.87286 34.37C2.04975 33.9629 2.13436 33.3829 2.13436 32.6263V23.8312C2.13436 23.0746 2.04591 22.4947 1.87286 22.0876C1.69596 21.6805 1.34986 21.2657 0.834551 20.8432C0.576897 20.6051 0.373082 20.39 0.22695 20.2057C0.0808178 20.0213 0.00390625 19.8177 0.00390625 19.5988C0.00390625 19.1917 0.134656 18.9152 0.39231 18.7692C0.649963 18.6233 1.12297 18.5465 1.80364 18.5465C2.78041 18.5465 4.17636 18.5004 5.98378 18.4082C6.77597 18.3545 7.55277 18.3237 8.31035 18.3237C10.6369 18.3237 12.6943 18.7001 14.4864 19.4567C16.2784 20.2133 17.6782 21.3502 18.6934 22.8711C19.7086 24.392 20.2163 26.2662 20.2163 28.4976C20.2163 31.7046 19.1972 34.1127 17.1552 35.7142C15.117 37.3196 12.2944 38.1185 8.69491 38.1185C8.21421 38.1185 7.23744 38.0801 5.76074 38.0071V38.0225ZM13.0712 33.6825C13.8826 32.3921 14.2902 30.5677 14.2902 28.2057C14.2902 26.7117 14.0364 25.3944 13.5288 24.2499C13.0212 23.1053 12.3251 22.222 11.4368 21.596C10.5523 20.9699 9.5717 20.655 8.50263 20.655C8.17191 20.655 7.92195 20.7318 7.75659 20.8893C7.59123 21.0468 7.50663 21.3079 7.50663 21.6766V34.2048C7.50663 34.7771 7.66045 35.1535 7.96425 35.3378C8.26805 35.5222 8.77182 35.6144 9.47172 35.6144C11.0599 35.6144 12.2598 34.9691 13.0712 33.6787V33.6825Z" fill="white"/>
<path d="M25.2232 37.3196C23.9849 36.7013 23.0274 35.8486 22.3429 34.7617C21.6584 33.6748 21.3199 32.4497 21.3199 31.0824C21.3199 29.7151 21.6622 28.4631 22.3429 27.3761C23.0274 26.2892 23.9849 25.4405 25.2232 24.8336C26.4615 24.2268 27.8728 23.9196 29.461 23.9196C31.0493 23.9196 32.4298 24.223 33.6566 24.8336C34.8833 25.4405 35.8408 26.2892 36.5215 27.3761C37.206 28.4631 37.5444 29.6997 37.5444 31.0824C37.5444 32.465 37.2022 33.7017 36.5215 34.7886C35.837 35.8755 34.8833 36.7243 33.6566 37.3311C32.4298 37.938 31.03 38.2452 29.461 38.2452C27.892 38.2452 26.4615 37.938 25.2232 37.3196ZM31.5376 35.2994C31.9453 34.7733 32.1452 34.032 32.1452 33.0718C32.1452 32.1693 32.0145 31.1669 31.7568 30.0723C31.4992 28.9739 31.1262 28.0444 30.6339 27.2801C30.1455 26.5158 29.5687 26.1318 28.9034 26.1318C28.2381 26.1318 27.7305 26.3929 27.3267 26.9191C26.9191 27.4453 26.7191 28.1673 26.7191 29.0891C26.7191 30.0108 26.8422 31.0478 27.0922 32.1462C27.3421 33.2447 27.7113 34.1741 28.1997 34.9384C28.6881 35.7027 29.2572 36.0868 29.9033 36.0868C30.5878 36.0868 31.13 35.8256 31.5376 35.2994Z" fill="white"/>
<path d="M53.7997 38.2453C53.7997 39.7201 53.1075 40.88 51.7231 41.7288C50.3387 42.5775 48.512 43 46.2393 43C45.3548 43 44.4626 42.904 43.5666 42.7081C42.6706 42.5161 41.8746 42.2319 41.1708 41.8632C40.4517 41.4945 39.8826 41.0528 39.4672 40.5343C39.0519 40.0158 38.8443 39.4359 38.8443 38.7906C38.8443 38.1454 39.0519 37.6192 39.4672 37.2697C39.8826 36.9202 40.394 36.7436 41.0055 36.7436C41.6169 36.7436 42.2322 36.9202 42.8052 37.2697C43.3782 37.6192 43.8012 38.1185 44.0781 38.7638C44.3165 39.336 44.6588 39.7969 45.101 40.1464C45.674 40.6073 46.2816 40.8377 46.9277 40.8377C47.4814 40.8185 47.9429 40.6342 48.3121 40.2847C48.6812 39.9352 48.8658 39.4436 48.8658 38.8175C48.8658 37.9495 48.5736 37.2045 47.9929 36.5784C47.4122 35.9524 46.6392 35.6106 45.6817 35.5568C44.3703 35.5568 43.1898 35.311 42.1361 34.8232C41.0824 34.3355 40.2517 33.6518 39.6441 32.7762C39.0365 31.9005 38.7289 30.8904 38.7289 29.7497C38.7289 28.6091 39.0442 27.599 39.6711 26.7233C40.2979 25.8476 41.1747 25.164 42.3014 24.6762C43.4282 24.1885 44.7395 23.9427 46.2316 23.9427C47.2084 23.9427 48.1621 24.0617 49.085 24.3037C49.3081 24.3421 49.4542 24.3575 49.5273 24.3575C49.9349 24.3575 50.2118 24.2038 50.3579 23.9004C50.504 23.597 50.581 23.1592 50.581 22.5869C50.581 21.9801 50.7848 21.5192 51.1886 21.2043C51.5962 20.8893 52.0653 20.7357 52.5999 20.7357C53.1344 20.7357 53.6305 20.9162 54.0266 21.2734C54.4227 21.6344 54.6227 22.0531 54.6227 22.5331C54.6227 23.309 54.3881 23.9811 53.9151 24.5533C53.4459 25.1256 52.7845 25.5289 51.9346 25.7708C53.1152 26.8424 53.7074 28.1674 53.7074 29.7536C53.7074 30.8981 53.4075 31.9005 52.8075 32.7685C52.2076 33.6365 51.3539 34.3086 50.2464 34.7887C52.6076 35.3609 53.792 36.5131 53.792 38.2453H53.7997ZM44.4819 26.7963C44.1588 27.2379 43.9973 27.8294 43.9973 28.5668C43.9973 30.0032 44.2434 31.1631 44.7318 32.0388C45.2202 32.9144 45.8624 33.3523 46.6546 33.3523C47.1892 33.3523 47.6199 33.1295 47.9429 32.6878C48.2659 32.2462 48.4274 31.6547 48.4274 30.9173C48.4274 29.4809 48.1813 28.321 47.6929 27.4453C47.2045 26.5697 46.5546 26.1318 45.7394 26.1318C45.2241 26.1318 44.8011 26.3546 44.478 26.7963H44.4819Z" fill="white"/>
<path d="M64.7057 38.0493C63.3944 38.0493 62.4907 37.3657 61.9907 36.0022L57.4222 23.1975C57.1838 22.5139 56.9377 22.0376 56.6877 21.7611C56.4377 21.4846 56.0916 21.2541 55.6494 21.0698C55.3187 20.9238 55.0725 20.7548 54.9149 20.5705C54.7572 20.3861 54.6803 20.1365 54.6803 19.8254C54.6803 19.4567 54.7957 19.1802 55.0264 18.9958C55.2571 18.8115 55.6109 18.6924 56.0916 18.6348C56.5723 18.581 57.2645 18.5503 58.1682 18.5503H62.2945C63.329 18.5503 64.0174 18.6425 64.3558 18.8268C64.698 19.0112 64.8672 19.3261 64.8672 19.7678C64.8672 19.9713 64.8019 20.1672 64.6749 20.3631C64.5442 20.5551 64.3981 20.6819 64.2327 20.7356C63.8828 20.8662 63.6328 21.0083 63.4867 21.1658C63.3405 21.3232 63.2636 21.5306 63.2636 21.788C63.2636 22.0453 63.3367 22.4255 63.4867 22.921L65.8132 31.0247C65.9248 31.4319 66.0709 31.6316 66.2555 31.6316C66.3478 31.6316 66.4362 31.5816 66.517 31.4779C66.6016 31.3781 66.6708 31.2321 66.7246 31.0478L68.6897 25.187C68.8359 24.799 68.9128 24.4035 68.9128 23.9963C68.9128 23.6468 68.8397 23.1744 68.6897 22.5868C68.5974 22.2565 68.4436 21.9454 68.2321 21.6612C68.0206 21.377 67.7553 21.1581 67.4438 21.0122C67.1669 20.8854 66.9669 20.7203 66.8477 20.5282C66.7285 20.3362 66.667 20.0635 66.667 19.714C66.667 18.9382 67.3207 18.5541 68.6321 18.5541H73.4506C74.2274 18.5541 74.7811 18.6502 75.1119 18.846C75.4426 19.0381 75.6118 19.3491 75.6118 19.7716C75.6118 20.0097 75.5464 20.2325 75.4195 20.4361C75.2887 20.6396 75.1042 20.7856 74.8657 20.8777C74.385 21.0813 74.0735 21.2733 73.9236 21.4577C73.812 21.5883 73.7582 21.7534 73.7582 21.957C73.7582 22.1413 73.812 22.4178 73.9236 22.7865L76.3617 31.0824C76.4732 31.4127 76.6193 31.5816 76.8039 31.5816C76.9885 31.5816 77.1346 31.4165 77.2461 31.0824L80.1265 22.5369C80.2188 22.2604 80.2649 22.0491 80.2649 21.8993C80.2649 21.6766 80.1688 21.4999 79.9727 21.3617C79.7804 21.2234 79.3958 21.0544 78.8228 20.8508C78.5998 20.7587 78.4267 20.6204 78.296 20.4361C78.1652 20.2517 78.1037 20.0289 78.1037 19.7716C78.1037 19.3299 78.2652 19.015 78.5883 18.8307C78.9113 18.6463 79.4689 18.5541 80.2649 18.5541H83.7529C84.3066 18.5541 84.7412 18.6502 85.0527 18.846C85.368 19.0381 85.5218 19.3299 85.5218 19.7179C85.5218 20.0481 85.4372 20.3016 85.2719 20.4783C85.1065 20.655 84.8642 20.7971 84.5527 20.9085C83.9605 21.112 83.5221 21.3501 83.2376 21.6267C82.953 21.9032 82.7069 22.3372 82.503 22.9248L78.046 36.0061C77.8076 36.6705 77.473 37.1775 77.05 37.527C76.627 37.8765 76.1194 38.0532 75.5272 38.0532H75.4157C74.7888 38.0532 74.2197 37.8842 73.7121 37.5423C73.2044 37.2005 72.8583 36.7166 72.6738 36.0906L70.5971 28.8471C70.4856 28.4976 70.3664 28.3209 70.2357 28.3209C70.1049 28.3209 69.978 28.4976 69.8473 28.8471C68.7397 32.054 67.9014 34.4621 67.3284 36.0637C67.1054 36.7089 66.7708 37.2005 66.317 37.5423C65.8632 37.8842 65.371 38.0532 64.8365 38.0532H64.698L64.7057 38.0493Z" fill="white"/>
<path d="M83.4798 37.1237C82.7415 36.3787 82.3723 35.4223 82.3723 34.2624C82.3723 32.9336 82.953 31.862 84.1182 31.0401C85.2796 30.2182 86.7947 29.7343 88.6598 29.5884C89.2521 29.5346 89.6866 29.4693 89.975 29.3963C90.2596 29.3234 90.4557 29.2081 90.5557 29.0507C90.6557 28.8932 90.6903 28.6666 90.6518 28.3747L90.598 27.9062C90.5249 27.3147 90.3711 26.873 90.1404 26.5773C89.9096 26.2816 89.5251 26.1356 88.9906 26.1356C88.5675 26.1356 88.183 26.2662 87.8407 26.5235C87.4985 26.7808 87.2639 27.1688 87.1331 27.6834C86.987 28.2557 86.737 28.6781 86.3871 28.9547C86.0372 29.2312 85.5488 29.3694 84.9181 29.3694C84.5297 29.3694 84.1797 29.2312 83.8644 28.9547C83.5491 28.6781 83.3952 28.3094 83.3952 27.8485C83.3952 27.0919 83.7029 26.416 84.322 25.8168C84.9412 25.2177 85.7718 24.753 86.814 24.4188C87.8561 24.0885 88.9867 23.9196 90.2058 23.9196C91.5363 23.9196 92.5823 24.1077 93.3476 24.488C94.1129 24.8644 94.6705 25.4059 95.0243 26.1049C95.3742 26.8077 95.6242 27.6911 95.7703 28.7588L96.4087 33.5135C96.4817 33.9936 96.5779 34.3124 96.7009 34.466C96.8202 34.6235 96.9932 34.7003 97.2124 34.7003C97.4162 34.7003 97.6046 34.658 97.7815 34.5774C97.9584 34.4967 98.0892 34.4545 98.1815 34.4545C98.6045 34.4545 98.8199 34.7118 98.8199 35.2303C98.8199 35.672 98.666 36.1213 98.3622 36.5707C98.0584 37.0239 97.6431 37.3964 97.1163 37.6922C96.5894 37.9879 96.0126 38.1338 95.3857 38.1338C94.5359 38.1338 93.8783 37.9725 93.4053 37.6499C92.9361 37.3273 92.5785 36.8626 92.3401 36.2519C92.267 36.0484 92.1747 35.9485 92.0632 35.9485C92.0093 35.9485 91.8286 36.1559 91.5248 36.5707C91.221 36.9855 90.7134 37.3695 90.0019 37.719C89.2905 38.0685 88.3176 38.2452 87.0793 38.2452C85.418 38.2452 84.2182 37.8727 83.4798 37.1237ZM90.7634 34.827C91.1133 34.393 91.2902 33.8092 91.2902 33.0718C91.2902 32.9605 91.271 32.7415 91.2364 32.4074L91.2094 32.2154C91.1556 31.8083 91.021 31.5433 90.8095 31.4127C90.598 31.2859 90.2211 31.2206 89.6866 31.2206C88.2637 31.2206 87.5562 31.9504 87.5562 33.406C87.5562 34.0896 87.7254 34.6043 88.0676 34.9538C88.4099 35.3033 88.8675 35.4799 89.4366 35.4799C89.9712 35.4799 90.4134 35.2649 90.7672 34.8309L90.7634 34.827Z" fill="white"/>
<path d="M99.8274 37.842C99.339 37.6653 99.0929 37.3772 99.0929 36.9701C99.0929 36.563 99.2967 36.2788 99.7005 36.0561C100.235 35.7795 100.57 35.4185 100.697 34.9768C100.823 34.5352 100.889 33.8515 100.889 32.9298V23.113C100.889 22.6522 100.839 22.2911 100.735 22.0338C100.631 21.7765 100.443 21.619 100.166 21.5653C99.7774 21.4731 99.4813 21.3655 99.2813 21.2465C99.0775 21.1274 98.9775 20.9469 98.9775 20.7088C98.9775 20.4131 99.0852 20.1865 99.2967 20.0328C99.5082 19.8754 99.8543 19.7064 100.335 19.522C102.292 18.7654 103.742 18.389 104.681 18.389C105.161 18.389 105.5 18.4697 105.703 18.6233C105.907 18.7808 106.007 19.0688 106.007 19.4951V32.9067C106.007 33.8477 106.073 34.5236 106.2 34.9384C106.326 35.3532 106.653 35.7181 107.169 36.0292C107.392 36.1598 107.557 36.2903 107.669 36.4286C107.78 36.5669 107.834 36.7474 107.834 36.9663C107.834 37.2428 107.749 37.4617 107.584 37.6154C107.419 37.7728 107.08 37.8919 106.573 37.9764C106.065 38.0609 105.323 38.0993 104.342 38.0993H102.627C101.243 38.0993 100.304 38.011 99.8159 37.8381L99.8274 37.842Z" fill="white"/>
<path d="M109.049 37.7882C108.688 37.6307 108.511 37.358 108.511 36.974C108.511 36.5899 108.722 36.2635 109.149 36.0599C109.722 35.7834 110.08 35.4224 110.23 34.9807C110.376 34.539 110.453 33.8362 110.453 32.8798V23.1169C110.453 22.6752 110.403 22.318 110.299 22.053C110.199 21.7842 110.007 21.6229 109.73 21.5691C109.361 21.4961 109.068 21.4001 108.857 21.2772C108.645 21.1582 108.538 20.97 108.538 20.7088C108.538 20.4131 108.645 20.1865 108.857 20.0328C109.068 19.8754 109.414 19.7064 109.895 19.522C111.853 18.7654 113.302 18.389 114.241 18.389C114.721 18.389 115.064 18.4697 115.264 18.6233C115.467 18.7808 115.567 19.0688 115.567 19.4951V28.2595C115.567 28.7588 115.687 29.0046 115.929 29.0046C116.075 29.0046 116.252 28.9048 116.456 28.7012L118.282 26.8769C118.486 26.6733 118.586 26.4621 118.586 26.2393C118.586 26.055 118.428 25.9359 118.117 25.8783C117.952 25.8399 117.817 25.7593 117.717 25.6287C117.617 25.4981 117.563 25.3329 117.563 25.1294C117.563 24.5226 118.144 24.2153 119.309 24.2153H122.962C123.516 24.2153 123.935 24.2691 124.224 24.3805C124.512 24.4918 124.654 24.7761 124.654 25.2369C124.654 25.6248 124.558 25.8975 124.362 26.0511C124.17 26.2086 123.905 26.3046 123.574 26.343C123.059 26.3814 122.632 26.4621 122.301 26.5927C121.97 26.7233 121.674 26.9153 121.416 27.1726L120.64 27.9177C120.436 28.1213 120.336 28.3056 120.336 28.4708C120.336 28.6013 120.401 28.7665 120.528 28.97L124.101 34.3892C124.431 34.8693 124.681 35.1919 124.847 35.3571C125.012 35.5222 125.224 35.6605 125.485 35.7719C125.708 35.864 125.9 36.0061 126.066 36.202C126.231 36.394 126.316 36.613 126.316 36.8511C126.316 37.239 126.139 37.527 125.789 37.7229C125.439 37.9149 124.966 38.0148 124.378 38.0148L122.828 37.9879L121.251 38.0148C120.29 38.0148 119.636 37.9303 119.286 37.7652C118.936 37.6 118.759 37.3312 118.759 36.9625C118.759 36.7589 118.844 36.5592 119.009 36.3556C119.155 36.1329 119.232 35.9408 119.232 35.7757C119.232 35.5913 119.14 35.3532 118.955 35.0575L117.24 32.4574C117.017 32.1271 116.825 31.9581 116.66 31.9581C116.513 31.9581 116.356 32.0426 116.19 32.2077L115.967 32.3998C115.821 32.5303 115.717 32.6916 115.664 32.8837C115.61 33.0757 115.579 33.3676 115.579 33.7555V33.9783C115.579 34.3854 115.656 34.7541 115.813 35.0844C115.971 35.4147 116.317 35.7219 116.852 35.9985C117.075 36.129 117.244 36.2596 117.363 36.3979C117.482 36.5361 117.544 36.7243 117.544 36.9663C117.544 37.3542 117.382 37.6269 117.059 37.7805C116.736 37.938 116.121 38.0148 115.217 38.0148L113.056 37.9879L110.953 38.0148C110.049 38.0148 109.414 37.9341 109.057 37.7805L109.049 37.7882Z" fill="white"/>
<path d="M129.427 37.2774C128.312 36.6321 127.45 35.7603 126.85 34.6657C126.25 33.5673 125.95 32.3652 125.95 31.0555C125.95 29.6537 126.293 28.4208 126.973 27.3493C127.658 26.2816 128.569 25.452 129.715 24.8605C130.861 24.2691 132.096 23.9772 133.426 23.9772C134.757 23.9772 135.795 24.2345 136.707 24.753C137.622 25.2676 138.314 25.909 138.783 26.6733C139.252 27.4376 139.491 28.1712 139.491 28.8702C139.491 29.646 139.31 30.2029 138.952 30.5447C138.591 30.8865 137.96 31.1208 137.056 31.2514L132.265 31.9427C132.042 31.9619 131.892 32.0041 131.807 32.0656C131.723 32.127 131.684 32.2346 131.684 32.3844C131.684 32.7339 131.819 33.1026 132.084 33.4905C132.353 33.8784 132.746 34.2087 133.261 34.4852C133.776 34.7617 134.368 34.9 135.034 34.9C135.772 34.9 136.426 34.7579 136.999 34.4698C137.572 34.1856 138.014 33.8553 138.329 33.4866C138.475 33.3407 138.633 33.2639 138.799 33.2639C139.056 33.2639 139.245 33.3369 139.368 33.4866C139.487 33.6326 139.548 33.8169 139.548 34.0397C139.548 34.1703 139.541 34.2625 139.521 34.3162C139.225 35.3686 138.556 36.2826 137.514 37.0661C136.472 37.8496 135.072 38.2414 133.319 38.2414C131.842 38.2414 130.546 37.9188 129.427 37.2735V37.2774ZM133.872 29.3963C134.188 29.3426 134.407 29.2427 134.538 29.1045C134.668 28.9662 134.73 28.778 134.73 28.536C134.73 28.2057 134.641 27.8486 134.468 27.4722C134.292 27.0958 134.057 26.777 133.761 26.5197C133.465 26.2624 133.142 26.1318 132.792 26.1318C131.646 26.1318 131.077 26.9998 131.077 28.7319C131.077 29.1582 131.115 29.4463 131.188 29.6037C131.261 29.7612 131.38 29.838 131.55 29.838L131.88 29.7842L133.872 29.3963Z" fill="white"/>
<path d="M141.002 37.842C140.514 37.6653 140.267 37.3773 140.267 36.9702C140.267 36.5631 140.471 36.2788 140.875 36.0561C141.41 35.7796 141.744 35.4185 141.871 34.9769C141.998 34.5352 142.063 33.8516 142.063 32.9298V28.8088C142.063 28.3479 142.013 27.9907 141.91 27.7295C141.81 27.4722 141.617 27.3148 141.34 27.261C140.952 27.1688 140.656 27.0613 140.456 26.9422C140.252 26.8231 140.152 26.6426 140.152 26.4045C140.152 26.1088 140.26 25.8822 140.471 25.7286C140.683 25.5711 141.029 25.4021 141.51 25.2178C143.467 24.4611 144.917 24.0848 145.855 24.0848C146.336 24.0848 146.678 24.1654 146.878 24.319C147.082 24.4765 147.182 24.7646 147.182 25.1909V26.1049C147.182 26.5121 147.228 26.7118 147.32 26.7118C147.359 26.7118 147.528 26.4544 147.832 25.936C148.136 25.4175 148.562 24.9527 149.105 24.538C149.651 24.1232 150.335 23.9158 151.166 23.9158C152.05 23.9158 152.743 24.2077 153.242 24.7876C153.742 25.3675 153.988 26.2125 153.988 27.3186C153.988 28.0368 153.754 28.6974 153.281 29.2965C152.812 29.8957 152.204 30.1952 151.466 30.1952C150.95 30.1952 150.512 30.0531 150.151 29.7651C149.789 29.4809 149.612 29.0507 149.612 28.4785C149.612 28.2019 149.57 27.9753 149.489 27.8025C149.405 27.6258 149.216 27.5414 148.92 27.5414C148.439 27.5414 148.028 27.8909 147.689 28.5937C147.347 29.2927 147.178 30.1223 147.178 31.0824V32.9067C147.178 33.8477 147.243 34.5237 147.37 34.9385C147.497 35.3532 147.824 35.7181 148.339 36.0292C148.562 36.1598 148.728 36.2904 148.839 36.4286C148.951 36.5669 149.005 36.7474 149.005 36.9663C149.005 37.2429 148.92 37.4618 148.755 37.6154C148.589 37.7729 148.251 37.8919 147.743 37.9764C147.236 38.0609 146.493 38.0993 145.513 38.0993H143.798C142.413 38.0993 141.475 38.011 140.987 37.8382L141.002 37.842Z" fill="white"/>
</g>
<defs>
<clipPath id="clip0_15_558">
<rect width="154" height="43" fill="white"/>
</clipPath>
</defs>
</svg>
