<svg width="124" height="141" viewBox="0 0 124 141" fill="none" xmlns="http://www.w3.org/2000/svg">
<path d="M89.1778 18.9483C90.4809 17.5629 90.1138 15.6635 89.5096 13.5702C89.0946 12.13 89.1281 10.4644 89.3435 8.95574C89.6949 6.46489 91.3386 5.05038 93.835 4.67704C96.6763 4.25137 99.2154 5.0757 101.49 6.71659C105.175 9.37596 107.672 12.9037 108.859 17.3062C109.903 21.1681 108.995 24.4194 105.847 27.0348C102.959 29.4348 99.6886 30.7659 95.9566 31.062C94.294 31.1936 92.905 30.6618 91.6377 29.6352C89.2601 27.7143 87.2398 22.986 89.1778 18.9483Z" fill="#FFB94A" fill-opacity="0.3"/>
<path d="M31.8349 70.2296C31.4678 70.9656 31.1446 71.729 30.7206 72.4324C28.8482 75.5395 26.1885 76.6252 22.6283 75.8486C19.6044 75.1904 17.3575 73.6053 16.1206 70.7077C15.6307 69.5566 14.9199 68.8109 13.6145 68.3571C12.0431 67.8076 10.5026 66.9166 9.21108 65.8506C6.72038 63.8 6.50242 61.0481 8.30543 58.3667C9.42461 56.704 10.9062 55.4592 12.7479 54.7261C18.1972 52.5666 23.5692 52.7228 28.7513 55.5785C30.9473 56.7896 32.3149 58.668 32.7413 61.2088C33.2656 64.3066 32.993 67.302 31.8349 70.2296Z" fill="#FFB94A" fill-opacity="0.3"/>
<path d="M22.6843 128.529C20.7592 132.886 17.6356 135.88 13.281 137.567C11.007 138.448 8.95332 137.707 7.16292 136.328C4.2812 134.107 2.74409 131.225 3.44919 127.479C3.70458 126.121 3.51416 125.019 2.54776 123.913C1.35788 122.553 0.643765 120.875 0.30183 119.075C-0.210249 116.361 0.8476 114.275 3.33318 113.05C5.6392 111.914 8.0537 111.797 10.484 112.444C15.1972 113.693 18.9396 116.371 21.6059 120.464C22.8921 122.434 23.6126 124.599 23.1431 126.998C23.0362 127.543 22.8276 128.068 22.686 128.525L22.6843 128.529Z" fill="#FFB94A" fill-opacity="0.3"/>
<path d="M92.5452 77.2987C95.3305 78.5198 97.7866 80.1431 99.7686 82.4449C102.148 85.2034 102.779 88.2442 101.458 91.7199C100.273 94.8411 98.3675 97.3421 95.7835 99.4293C92.4338 102.139 89.3486 101.397 86.5612 99.4026C84.1152 97.6537 82.7179 95.2852 82.8183 92.1965C82.8636 90.7897 82.4848 89.6976 81.3339 88.7422C79.8941 87.5475 78.8843 85.9607 78.2808 84.1666C77.4346 81.6534 78.0847 79.5901 80.2115 78.0137C82.7135 76.158 85.5584 75.7986 88.5354 76.2987C89.8901 76.5279 91.2143 76.9593 92.5512 77.2961L92.5452 77.2987Z" fill="#FFB94A" fill-opacity="0.3"/>
<path d="M113.521 17.7683C112.673 17.2318 112.028 16.9211 111.499 16.4716C109.958 15.1671 109.945 13.4432 111.407 12.0462C113.59 9.96419 117.5 9.35998 120.225 10.8211C121.206 11.3503 122.159 12.0878 122.863 12.9401C123.896 14.1924 123.635 15.5386 122.382 16.5851C121.064 17.6808 119.495 18.2431 117.815 18.2286C116.305 18.2163 114.798 17.9169 113.521 17.7683Z" fill="#FFB94A" fill-opacity="0.3"/>
<path d="M24.7533 46.2534C26.1079 43.1697 28.0546 41.5069 30.8413 40.93C33.4379 40.3922 34.941 41.7914 34.5746 44.4208C34.0611 48.0727 31.8341 50.4911 28.5653 51.8927C26.2211 52.8994 24.3378 51.5286 24.3629 48.9679C24.373 47.9008 24.6662 46.8366 24.7576 46.2551L24.7533 46.2534Z" fill="#FFB94A" fill-opacity="0.3"/>
<path d="M32.2493 110.927C32.3423 110.969 32.5861 111.071 32.8195 111.198C34.6054 112.162 35.0978 113.922 33.7787 115.46C32.9039 116.483 31.7888 117.42 30.5946 118.016C28.6761 118.968 26.5624 119.294 24.4053 118.826C21.8265 118.265 20.9874 116.173 22.4458 113.957C24.5074 110.826 28.6479 109.501 32.2459 110.935L32.2493 110.927Z" fill="#FFB94A" fill-opacity="0.3"/>
<path d="M99.2988 75.7968C100.774 72.1333 105.392 69.9575 108.997 71.2249C111.135 71.9796 111.736 73.4039 110.746 75.4422C110.041 76.8908 108.936 78.0161 107.513 78.7113C106.308 79.2986 104.995 79.6788 103.703 80.0574C103.156 80.2185 102.532 80.1948 101.954 80.1445C99.4145 79.9229 98.3474 78.1539 99.2988 75.7968Z" fill="#FFB94A" fill-opacity="0.3"/>
<path d="M119.006 21.6456C119.739 22.1712 120.532 22.6355 121.187 23.2446C122.102 24.0913 122.141 25.1729 121.426 26.1942C120.469 27.5625 119.066 28.2955 117.535 28.7984C115.838 29.3549 114.112 29.7102 112.369 28.9384C112.127 28.8323 111.883 28.7202 111.672 28.5615C110.627 27.7779 109.587 26.8067 109.857 25.4493C110.225 23.6076 111.055 21.8698 113.117 21.3091C115.084 20.7753 117.024 21.048 119.001 21.6439L119.006 21.6456Z" fill="#FFB94A" fill-opacity="0.3"/>
<path d="M35.8226 125.613C34.5841 127.702 32.5232 129.464 29.5972 130.065C28.5225 130.286 27.4825 130.017 26.5476 129.446C24.8898 128.424 24.4791 126.961 25.3221 124.65C25.575 123.963 26.0109 123.205 26.5922 122.808C28.9701 121.177 31.621 120.691 34.4072 121.559C36.2488 122.131 36.7476 123.385 35.8209 125.617L35.8226 125.613Z" fill="#FFB94A" fill-opacity="0.3"/>
<path d="M41.0437 55.8833C40.6888 56.375 40.1254 57.3917 39.3447 58.2025C38.0234 59.5707 35.7359 59.8826 34.3788 59.0445C33.1294 58.2742 32.0782 55.3358 32.7213 53.8675C33.8963 51.1857 35.838 49.2469 38.7576 48.4987C40.3626 48.0851 41.4614 48.8205 41.8235 50.444C42.2074 52.1508 41.7849 53.7665 41.042 55.8876L41.0437 55.8833Z" fill="#FFB94A" fill-opacity="0.3"/>
<path d="M114.195 85.5852C113.373 87.366 111.933 88.971 109.947 90.0156C109.271 90.3748 108.44 90.5726 107.671 90.6009C105.27 90.6834 103.911 89.3114 103.833 86.9341C103.775 85.0976 104.448 83.6912 106.052 82.729C107.782 81.6875 109.62 81.0378 111.654 81.1384C114.348 81.2719 115.319 82.8434 114.189 85.5878L114.195 85.5852Z" fill="#FFB94A" fill-opacity="0.3"/>
<path d="M10.9624 47.9888C12.1976 45.6198 14.2962 43.8131 17.4708 43.5647C18.8238 43.4595 20.2317 43.6302 20.9192 44.9993C21.5885 46.3264 20.9198 47.5453 20.0673 48.5618C18.762 50.1157 17.0952 51.2371 15.2113 51.9634C14.529 52.2253 13.7067 52.2873 12.9701 52.2089C10.7284 51.966 9.89859 50.4407 10.9607 47.9931L10.9624 47.9888Z" fill="#FFB94A" fill-opacity="0.3"/>
<path d="M95.3458 67.9144C96.6094 68.511 97.8155 69.1645 97.8796 70.6597C97.9394 72.1531 96.8371 72.9955 95.6367 73.5449C93.6003 74.4796 91.4446 74.8737 89.1976 74.569C88.8232 74.5199 88.4504 74.3917 88.1119 74.2273C85.6734 73.0494 85.4354 70.8874 87.5913 69.2629C89.9585 67.4831 92.5594 66.947 95.3518 67.9118L95.3458 67.9144Z" fill="#FFB94A" fill-opacity="0.3"/>
<path d="M18.734 105.179C19.8388 105.598 20.7919 106.211 21.426 107.225C22.1075 108.308 21.9086 109.21 21.081 110.177C19.4806 112.047 12.8059 112.145 11.1194 110.355C9.59074 108.731 9.62418 107.04 11.5396 105.908C13.8073 104.567 16.2178 104.234 18.734 105.179Z" fill="#FFB94A" fill-opacity="0.3"/>
<path d="M106.046 7.23137C104.458 6.72487 103.167 6.05781 102.369 4.7044C101.185 2.68973 101.895 0.978851 104.173 0.538909C106.896 0.011175 109.392 0.529494 111.463 2.46832C111.947 2.91956 112.372 3.48185 112.686 4.07018C113.723 6.01637 112.963 7.55281 110.785 7.97792C109.061 8.31436 107.466 7.82507 106.049 7.23738L106.046 7.23137Z" fill="#FFB94A" fill-opacity="0.3"/>
<path d="M28.9717 135.605C27.4773 137.886 25.3236 140.045 22.0578 140.611C21.2056 140.76 20.1872 140.475 19.3638 140.113C18.1839 139.595 17.8506 138.476 18.5369 137.389C19.8417 135.321 21.4267 133.49 23.9396 132.874C25.0435 132.605 26.1976 132.461 27.334 132.424C29.198 132.362 29.8658 133.43 28.9717 135.605Z" fill="#FFB94A" fill-opacity="0.3"/>
<path d="M109.275 96.1503C107.993 98.6251 106.473 100.532 104.199 101.726C103.041 102.332 101.814 102.557 100.546 102.024C99.329 101.51 98.9164 100.654 99.283 99.4047C100.278 96.0087 104.312 93.0079 107.894 93.0011C108.807 93 109.459 93.5033 109.492 94.413C109.515 95.0698 109.333 95.7297 109.275 96.1503Z" fill="#FFB94A" fill-opacity="0.3"/>
<path d="M41.1389 68.2812C40.3811 69.3103 39.6656 70.3711 38.8431 71.3497C38.5224 71.7304 37.9888 71.9818 37.5058 72.1685C35.4604 72.9502 34.115 71.9823 34.1472 69.818C34.1987 66.1868 35.7055 63.3727 38.8051 61.4306C40.2455 60.5281 41.3934 60.9642 41.7333 62.6436C42.1245 64.5576 41.6028 66.373 41.1415 68.2872L41.1389 68.2812Z" fill="#FFB94A" fill-opacity="0.3"/>
<path d="M101.854 36.5979C101.523 36.3768 101.125 36.1739 100.799 35.89C99.4305 34.7037 99.4494 33.3761 100.881 32.2707C103.982 29.8711 107.356 29.373 110.987 30.9499C112.009 31.3906 112.312 32.2833 111.77 33.2586C111.615 33.5358 111.43 33.826 111.19 34.0294C108.84 36.0405 106.16 37.1279 103.022 36.8577C102.647 36.8232 102.278 36.6968 101.852 36.6022L101.854 36.5979Z" fill="#FFB94A" fill-opacity="0.3"/>
</svg>
