<svg width="158" height="44" viewBox="0 0 158 44" fill="none" xmlns="http://www.w3.org/2000/svg">
<path d="M45.2979 12.7081C45.3728 12.7945 45.4478 12.881 45.5228 12.9635C45.9449 13.4351 46.3829 13.8949 46.7814 14.3862C47.4284 15.18 48.0005 16.0289 48.5529 16.8896C48.8646 17.3729 49.1802 17.8563 49.4603 18.3554C49.8904 19.1179 50.3007 19.8921 50.7031 20.6702C51.2595 21.7431 51.7369 22.8513 52.1866 23.9714C52.3918 24.4783 52.5536 25.001 52.739 25.5159C52.7824 25.6377 52.8297 25.7634 52.8692 25.8853C52.9087 26.011 52.8968 26.0228 52.7627 26.0228C52.4904 26.0228 52.2221 26.0228 51.9499 26.0228C51.2831 26.0228 50.6163 26.0228 49.9496 26.0268C49.7917 26.0268 49.7128 25.9599 49.6379 25.8263C49.413 25.4176 49.1723 25.0168 48.9316 24.6159C48.7659 24.3329 48.6042 24.046 48.4187 23.7788C47.9295 23.0714 47.4047 22.3876 46.8248 21.747C46.154 21.0082 45.4083 20.3519 44.5956 19.7781C43.7039 19.1454 42.7412 18.6345 41.7193 18.2336C41.0052 17.9546 40.2635 17.7502 39.5217 17.5694C39.0325 17.4515 38.5274 17.3847 38.0264 17.3101C37.6397 17.2511 37.2491 17.2158 36.8625 17.1725C36.8467 17.1725 36.8309 17.1725 36.8151 17.1725C35.9629 17.1647 35.1107 17.1411 34.2585 17.1568C33.6943 17.1647 33.1301 17.204 32.5698 17.2708C31.761 17.369 30.9522 17.483 30.1473 17.6284C29.3937 17.762 28.648 17.9428 27.9023 18.1118C26.7226 18.3751 25.5784 18.7406 24.4658 19.2004C23.7596 19.4951 23.0691 19.8292 22.4536 20.2929C22.1893 20.4933 22.0315 20.7724 21.8381 21.0239C21.6764 21.24 21.5107 21.4523 21.2739 21.5977C20.982 21.7745 20.6584 21.8885 20.3191 21.8728C19.9088 21.8492 19.6208 21.5937 19.4393 21.2518C19.1513 20.7095 19.1237 20.1397 19.3367 19.5619C19.5103 19.0943 19.8102 18.7052 20.1889 18.383C20.5716 18.0568 20.9662 17.7345 21.3805 17.4476C22.2406 16.8463 23.1717 16.3629 24.1226 15.9189C24.8722 15.5691 25.6495 15.3019 26.4346 15.0425C26.6674 14.9639 26.6398 14.9953 26.5964 14.7634C26.5569 14.5552 26.5175 14.3469 26.4741 14.1386C26.4583 14.0521 26.4859 14.0089 26.5687 13.9696C26.8962 13.8045 27.2237 13.6434 27.5393 13.4548C28.2377 13.0343 28.7743 12.4487 29.2201 11.7727C29.303 11.647 29.3582 11.5055 29.445 11.3837C29.4923 11.3129 29.5673 11.2343 29.6423 11.2068C30.3564 10.9867 30.9916 10.6134 31.5953 10.1811C32.0806 9.83133 32.4909 9.41082 32.7986 8.89992C32.842 8.82918 32.8933 8.75845 32.9288 8.68378C32.9604 8.61304 32.9999 8.61697 33.059 8.64055C33.426 8.79381 33.7889 8.95887 34.1598 9.10035C34.6333 9.28113 35.1107 9.45012 35.5881 9.61911C35.9155 9.73308 36.247 9.85098 36.5823 9.94137C37.1702 10.1025 37.766 10.244 38.3578 10.3933C38.5472 10.4405 38.7405 10.4994 38.9338 10.5348C39.6914 10.6684 40.4528 10.7981 41.2104 10.916C42.0981 11.0575 42.9977 11.0732 43.8972 11.1164C44.7534 11.1597 45.6096 11.1007 46.4618 11.0575C46.9944 11.03 47.5231 10.9474 48.0557 10.8924C48.2254 10.8767 48.3951 10.8453 48.5568 10.9357C48.7501 11.0457 48.8054 11.254 48.6831 11.4387C48.5213 11.6745 48.2925 11.8199 48.0321 11.9181C47.2469 12.205 46.4499 12.4605 45.6293 12.6255C45.5306 12.6452 45.432 12.657 45.3334 12.6727C45.3255 12.6845 45.3215 12.6963 45.3136 12.7081H45.2979Z" fill="#FFB94A"/>
<path d="M19.6563 4.87563C19.6445 4.85205 19.6366 4.82454 19.6208 4.80489C19.2539 4.35687 19.0566 3.83026 18.8988 3.28006C18.7922 2.91457 18.7843 2.54123 18.8593 2.17181C18.9106 1.92815 19.0566 1.78274 19.3051 1.75523C19.9246 1.68842 20.544 1.6334 21.1635 1.57445C21.2621 1.56659 21.3647 1.55087 21.4633 1.53515C21.7 1.50371 21.9368 1.47227 22.1735 1.44083C22.572 1.38974 22.8876 1.19717 23.1638 0.914216C23.5426 0.521218 24.02 0.29721 24.5526 0.163591C25.3733 -0.044698 26.2018 -0.0171882 27.0343 0.0456914C27.4683 0.0771312 27.9063 0.120361 28.3363 0.19503C28.9242 0.29721 29.5081 0.430829 30.0131 0.764877C30.2262 0.906356 30.4235 1.07927 30.605 1.26398C31.0981 1.7513 31.4493 2.32901 31.5874 3.01282C31.6466 3.30364 31.6742 3.59839 31.7176 3.89314C31.7807 4.36473 31.8517 4.84026 31.903 5.31186C31.9227 5.48478 31.9188 5.66556 31.8951 5.83847C31.8714 6.01925 31.7452 6.13322 31.5716 6.1961C31.2086 6.32972 30.8338 6.30221 30.4708 6.23147C29.8672 6.1175 29.3227 5.86205 28.8808 5.4219C28.3758 4.92279 28.0838 4.30971 27.9497 3.62197C27.8984 3.36652 27.8865 3.10321 27.855 2.84383C27.851 2.80846 27.8431 2.76916 27.8313 2.69842C27.784 2.75344 27.7484 2.78095 27.7287 2.81632C27.5748 3.07177 27.5236 3.35866 27.5117 3.64555C27.488 4.42368 27.6774 5.14287 28.0996 5.80703C28.4389 6.34151 28.9163 6.69128 29.4805 6.92315C30.0447 7.15502 30.6247 7.16681 31.2047 6.96245C31.2796 6.93494 31.3585 6.91136 31.4374 6.88385C31.4927 6.8642 31.5321 6.87206 31.5558 6.93101C31.6544 7.1786 31.7334 7.43404 31.7136 7.70521C31.6978 7.90957 31.6229 8.09428 31.4808 8.24755C31.0468 8.72307 30.4945 9.02175 29.9145 9.28506C29.4805 9.48156 29.0465 9.67806 28.573 9.76845C28.1903 9.84312 27.8037 9.89814 27.4131 9.9453C26.7976 10.02 26.186 9.93744 25.5784 9.83919C25.5035 9.8274 25.468 9.79203 25.4443 9.72129C25.2786 9.1593 25.0813 8.60518 24.7933 8.09428C24.4619 7.50478 24.0673 6.95852 23.5189 6.53801C23.1796 6.27863 22.8166 6.07427 22.4063 5.95637C22.0512 5.85419 22.067 5.86205 21.9486 6.19217C21.8066 6.5891 21.6448 6.9821 21.4752 7.37116C21.1753 8.07463 20.8912 8.78202 20.7295 9.53265C20.5835 10.2125 20.5756 10.9003 20.7334 11.5762C20.8597 12.1186 21.1674 12.5627 21.5935 12.9321C22.1656 13.4273 22.8403 13.6395 23.5781 13.7141C24.4264 13.8006 25.2352 13.6631 26.0243 13.3487C26.2689 13.2504 26.2689 13.2543 26.1979 12.9989C26.0913 12.6255 25.9809 12.2522 25.8743 11.8788C25.8388 11.757 25.8507 11.7452 25.9848 11.7452C26.7384 11.7492 27.488 11.7334 28.2258 11.5644C28.2969 11.5487 28.3758 11.5055 28.4152 11.4505C28.5296 11.2776 28.6283 11.0928 28.719 10.9081C28.7427 10.861 28.7388 10.7785 28.7151 10.7274C28.5849 10.4483 28.723 10.2283 28.9124 10.1064C29.0899 9.98853 29.3661 10.0593 29.5002 10.244C29.6817 10.4916 29.6028 10.8217 29.3148 10.9474C29.2083 10.9946 29.153 11.0653 29.1057 11.1597C28.8058 11.7609 28.3876 12.2679 27.8944 12.7238C27.1093 13.4548 26.1742 13.8792 25.1365 14.0954C24.2251 14.284 23.3137 14.229 22.4339 13.9342C21.9052 13.7574 21.4515 13.4587 21.0609 13.0539C20.5322 12.5076 20.2521 11.8631 20.2047 11.1125C20.1732 10.5977 20.1495 10.0828 20.26 9.57981C20.3625 9.12 20.4848 8.65627 20.6506 8.21611C20.8754 7.60696 21.1516 7.01354 21.3962 6.41225C21.4594 6.25505 21.4909 6.08606 21.5383 5.92493C21.5659 5.82668 21.5264 5.77952 21.4357 5.75594C21.2503 5.70879 21.0569 5.67342 20.8754 5.60268C20.6348 5.51229 20.398 5.39832 20.1732 5.28042C20.0666 5.2254 19.9838 5.21361 19.8851 5.27649C19.4945 5.51622 19.1986 5.85026 18.9382 6.21575C18.6897 6.56159 18.5082 6.95066 18.4056 7.35937C18.3109 7.72879 18.2478 8.10607 18.2123 8.48728C18.1215 9.44619 18.1531 10.4051 18.2083 11.364C18.2438 11.9732 18.2991 12.5784 18.3188 13.1875C18.3306 13.5491 18.2991 13.9106 18.2833 14.2722C18.2793 14.3862 18.2714 14.4883 18.3937 14.563C18.4371 14.5905 18.4727 14.677 18.4648 14.732C18.4529 14.846 18.4214 14.956 18.3819 15.0621C18.2714 15.3529 18.1491 15.6398 18.0387 15.9346C17.9992 16.0407 17.9361 16.0918 17.8217 16.1075C17.6757 16.1271 17.6559 16.1507 17.6875 16.2883C17.7704 16.6891 17.8572 17.0861 17.9519 17.483C18.0189 17.7699 18.0308 18.0646 17.9597 18.3437C17.8295 18.8624 17.5928 19.334 17.1785 19.6956C16.6025 20.1986 15.9199 20.0296 15.5806 19.3851C15.4149 19.0668 15.3952 18.717 15.407 18.3712C15.4228 17.8799 15.5017 17.4005 15.6793 16.9367C15.8529 16.4808 16.1606 16.1625 16.6262 16.0053C16.7682 15.9582 16.9181 15.9228 17.0602 15.8717C17.0917 15.8599 17.1351 15.8127 17.1312 15.7931C17.0878 15.6477 17.143 15.5141 17.1904 15.3883C17.2969 15.0896 17.4153 14.791 17.5415 14.4962C17.5691 14.4373 17.6441 14.3822 17.7072 14.3547C17.794 14.3233 17.8335 14.2722 17.8414 14.1897C17.8493 14.1032 17.8611 14.0128 17.8611 13.9264C17.8808 13.0185 17.7822 12.1186 17.7349 11.2147C17.6717 10.075 17.6362 8.93529 17.8295 7.79953C17.9597 7.05677 18.2517 6.38867 18.7015 5.78345C18.9619 5.43369 19.2657 5.13108 19.6366 4.89921C19.6445 4.89528 19.6523 4.88349 19.6642 4.8717L19.6563 4.87563ZM15.8647 18.3279C15.8568 18.6266 15.8568 18.8703 15.9515 19.1061C16.0778 19.4205 16.3263 19.5698 16.5986 19.4794C16.709 19.444 16.8235 19.3812 16.9103 19.3065C17.4034 18.8703 17.5968 18.3161 17.4942 17.6756C17.435 17.3061 17.3285 16.9485 17.2614 16.5791C17.2062 16.2726 17.2219 16.3236 16.9418 16.3865C16.4447 16.5005 16.1646 16.8188 16.0265 17.2943C15.9239 17.648 15.8805 18.0096 15.8608 18.3279H15.8647Z" fill="#FFB94A"/>
<path d="M25.9967 26.4905C26.044 26.3962 26.0716 26.3254 26.1111 26.2586C26.5293 25.5709 26.8173 24.8281 27.0027 24.05C27.1882 23.2679 27.3184 22.4741 27.3697 21.6684C27.417 20.9728 27.4367 20.2772 27.4289 19.5777C27.4289 19.4637 27.4131 19.3458 27.4131 19.2318C27.4131 19.1925 27.4486 19.1297 27.4762 19.1218C28.0799 18.9528 28.6796 18.776 29.2872 18.6266C29.7882 18.5048 30.2933 18.4183 30.7983 18.3161C30.8259 18.3122 30.8535 18.3083 30.8772 18.3083C31.0311 18.3004 31.0271 18.3083 31.0192 18.4576C30.9995 18.7838 30.9956 19.1139 30.9679 19.4401C30.9166 20.0335 30.8496 20.627 30.7983 21.2204C30.7233 22.0496 30.5694 22.8671 30.3919 23.6806C30.1867 24.6159 29.8593 25.5159 29.5121 26.404C29.4844 26.4708 29.4489 26.4944 29.3819 26.4905C29.2635 26.4905 29.1412 26.4905 29.0228 26.4905C28.0641 26.4905 27.1014 26.4905 26.1426 26.4905C26.0992 26.4905 26.0598 26.4905 25.9888 26.4905H25.9967Z" fill="#FFB94A"/>
<path d="M37.7778 18.1943C37.8251 18.1943 37.8764 18.1904 37.9238 18.1943C38.8273 18.3201 39.715 18.493 40.583 18.772C41.1393 18.9528 41.6917 19.1414 42.2204 19.3851C42.4768 19.503 42.7294 19.6327 42.9819 19.7506C43.3015 19.8999 43.5303 20.1436 43.7276 20.4265C44.2207 21.1339 44.5719 21.9042 44.8283 22.7216C45.1519 23.7434 45.2742 24.7967 45.2584 25.8696C45.2584 26.0268 45.2584 26.0307 45.0927 26.0307C44.0077 26.0307 42.9227 26.0307 41.8377 26.0307C41.668 26.0307 41.672 26.0307 41.6996 25.8617C41.7509 25.5512 41.814 25.2408 41.8337 24.9264C41.8693 24.3094 41.7312 23.7159 41.5497 23.1343C41.1788 21.916 40.4804 20.8863 39.6519 19.9353C39.139 19.3458 38.5472 18.8349 37.9277 18.3554C37.8725 18.3122 37.8094 18.2729 37.7502 18.2336C37.7541 18.2218 37.7581 18.21 37.762 18.1982L37.7778 18.1943Z" fill="#FFB94A"/>
<path d="M5.90636 38.9092C4.12695 38.8345 2.78155 38.7952 1.87409 38.7952C1.1718 38.7952 0.690456 38.7206 0.42611 38.5673C0.161764 38.418 0.0276182 38.135 0.0276182 37.7184C0.0276182 37.3412 0.311692 36.9167 0.879838 36.4451C1.39275 36.0128 1.736 35.5884 1.91749 35.1718C2.09899 34.7552 2.18579 34.1618 2.18579 33.3876V24.388C2.18579 23.6138 2.09504 23.0203 1.91749 22.6037C1.736 22.1872 1.38091 21.7627 0.85222 21.3304C0.587874 21.0868 0.378764 20.8667 0.228837 20.6781C0.0789093 20.4894 0 20.2811 0 20.0571C0 19.6405 0.134146 19.3576 0.398492 19.2082C0.662838 19.0589 1.14813 18.9803 1.84648 18.9803C2.84862 18.9803 4.28083 18.9332 6.1352 18.8388C6.94796 18.7838 7.74494 18.7524 8.5222 18.7524C10.9092 18.7524 13.02 19.1375 14.8586 19.9117C16.6972 20.6859 18.1333 21.8492 19.175 23.4055C20.2166 24.9617 20.7374 26.8796 20.7374 29.1629C20.7374 32.4444 19.6918 34.9085 17.5968 36.5473C15.5057 38.19 12.6097 39.0075 8.91675 39.0075C8.42356 39.0075 7.42142 38.9682 5.90636 38.8935V38.9092ZM13.4067 34.4683C14.2392 33.1479 14.6574 31.2811 14.6574 28.8642C14.6574 27.3354 14.397 25.9875 13.8762 24.8163C13.3554 23.6452 12.6413 22.7413 11.7299 22.1007C10.8224 21.4601 9.81631 21.1379 8.71947 21.1379C8.38016 21.1379 8.12371 21.2165 7.95405 21.3776C7.7844 21.5387 7.6976 21.806 7.6976 22.1832V35.0028C7.6976 35.5884 7.85542 35.9735 8.16711 36.1622C8.4788 36.3508 8.99566 36.4451 9.71373 36.4451C11.3432 36.4451 12.5742 35.7849 13.4067 34.4644V34.4683Z" fill="white"/>
<path d="M25.8743 38.19C24.6039 37.5573 23.6215 36.6848 22.9192 35.5727C22.2169 34.4605 21.8697 33.2068 21.8697 31.8077C21.8697 30.4087 22.2208 29.1275 22.9192 28.0153C23.6215 26.9031 24.6039 26.0346 25.8743 25.4137C27.1448 24.7927 28.5928 24.4783 30.2222 24.4783C31.8517 24.4783 33.2681 24.7888 34.5267 25.4137C35.7853 26.0346 36.7678 26.9031 37.4661 28.0153C38.1684 29.1275 38.5156 30.393 38.5156 31.8077C38.5156 33.2225 38.1645 34.488 37.4661 35.6002C36.7638 36.7124 35.7853 37.5809 34.5267 38.2018C33.2681 38.8228 31.832 39.1372 30.2222 39.1372C28.6125 39.1372 27.1448 38.8228 25.8743 38.19ZM32.3528 36.1229C32.771 35.5845 32.9762 34.826 32.9762 33.8435C32.9762 32.9199 32.842 31.8942 32.5777 30.7742C32.3133 29.6502 31.9306 28.6991 31.4256 27.9171C30.9245 27.135 30.3327 26.742 29.6502 26.742C28.9676 26.742 28.4468 27.0092 28.0325 27.5477C27.6143 28.0861 27.4091 28.8249 27.4091 29.7681C27.4091 30.7113 27.5354 31.7724 27.7918 32.8964C28.0483 34.0203 28.4271 34.9714 28.9281 35.7534C29.4292 36.5355 30.0131 36.9285 30.676 36.9285C31.3783 36.9285 31.9346 36.6613 32.3528 36.1229Z" fill="white"/>
<path d="M55.1931 39.1372C55.1931 40.6463 54.4829 41.8331 53.0625 42.7016C51.6422 43.5702 49.7681 44.0025 47.4363 44.0025C46.5288 44.0025 45.6135 43.9042 44.6942 43.7038C43.7749 43.5073 42.9582 43.2165 42.2362 42.8392C41.4984 42.4619 40.9144 42.01 40.4883 41.4794C40.0622 40.9489 39.8492 40.3554 39.8492 39.6952C39.8492 39.035 40.0622 38.4966 40.4883 38.1389C40.9144 37.7813 41.4392 37.6005 42.0665 37.6005C42.6938 37.6005 43.3251 37.7813 43.913 38.1389C44.5009 38.4966 44.9349 39.0075 45.2189 39.6677C45.4636 40.2533 45.8147 40.7249 46.2684 41.0825C46.8563 41.5541 47.4797 41.7899 48.1425 41.7899C48.7107 41.7702 49.1841 41.5816 49.5629 41.224C49.9417 40.8663 50.131 40.3633 50.131 39.7227C50.131 38.8345 49.8312 38.0721 49.2354 37.4315C48.6397 36.791 47.8466 36.4412 46.8642 36.3862C45.5188 36.3862 44.3075 36.1347 43.2265 35.6355C42.1454 35.1364 41.2932 34.4369 40.6698 33.5409C40.0464 32.6448 39.7308 31.6112 39.7308 30.444C39.7308 29.2768 40.0543 28.2433 40.6974 27.3472C41.3406 26.4512 42.2401 25.7517 43.3961 25.2526C44.5522 24.7534 45.8976 24.5019 47.4284 24.5019C48.4306 24.5019 49.409 24.6238 50.3559 24.8713C50.5848 24.9106 50.7347 24.9264 50.8097 24.9264C51.2279 24.9264 51.512 24.7692 51.6619 24.4587C51.8118 24.1482 51.8907 23.7002 51.8907 23.1146C51.8907 22.4937 52.0998 22.0221 52.5141 21.6999C52.9323 21.3776 53.4137 21.2204 53.9621 21.2204C54.5105 21.2204 55.0195 21.4051 55.4259 21.7706C55.8322 22.14 56.0374 22.5684 56.0374 23.0596C56.0374 23.8535 55.7967 24.5412 55.3114 25.1268C54.8301 25.7124 54.1515 26.125 53.2795 26.3726C54.4908 27.4691 55.0984 28.8249 55.0984 30.448C55.0984 31.6191 54.7906 32.6448 54.1752 33.533C53.5597 34.4212 52.6838 35.1089 51.5475 35.6002C53.97 36.1857 55.1852 37.3647 55.1852 39.1372H55.1931ZM45.6332 27.4219C45.3018 27.8738 45.1361 28.4791 45.1361 29.2336C45.1361 30.7034 45.3886 31.8903 45.8897 32.7863C46.3907 33.6823 47.0496 34.1304 47.8624 34.1304C48.4108 34.1304 48.8527 33.9024 49.1841 33.4505C49.5156 32.9985 49.6813 32.3933 49.6813 31.6388C49.6813 30.169 49.4288 28.9821 48.9277 28.0861C48.4266 27.19 47.7598 26.742 46.9234 26.742C46.3947 26.742 45.9607 26.9699 45.6293 27.4219H45.6332Z" fill="white"/>
<path d="M66.3824 38.9367C65.037 38.9367 64.1098 38.2372 63.5969 36.842L58.9097 23.7395C58.6651 23.04 58.4126 22.5527 58.1561 22.2697C57.8997 21.9867 57.5446 21.7509 57.0909 21.5623C56.7515 21.413 56.499 21.24 56.3373 21.0514C56.1755 20.8628 56.0966 20.6073 56.0966 20.289C56.0966 19.9117 56.215 19.6288 56.4517 19.4401C56.6884 19.2515 57.0514 19.1297 57.5446 19.0707C58.0378 19.0157 58.7479 18.9842 59.6751 18.9842H63.9086C64.9699 18.9842 65.6762 19.0786 66.0234 19.2672C66.3745 19.4558 66.5481 19.7781 66.5481 20.23C66.5481 20.4383 66.4811 20.6388 66.3509 20.8392C66.2167 21.0357 66.0668 21.1654 65.8971 21.2204C65.5381 21.354 65.2816 21.4994 65.1317 21.6606C64.9818 21.8217 64.9029 22.0339 64.9029 22.2972C64.9029 22.5605 64.9778 22.9496 65.1317 23.4566L67.5187 31.7488C67.6331 32.1654 67.7831 32.3697 67.9724 32.3697C68.0671 32.3697 68.1579 32.3186 68.2407 32.2125C68.3275 32.1104 68.3985 31.961 68.4538 31.7724L70.4699 25.7752C70.6198 25.3783 70.6988 24.9735 70.6988 24.5569C70.6988 24.1993 70.6238 23.7159 70.4699 23.1146C70.3752 22.7767 70.2174 22.4583 70.0004 22.1675C69.7834 21.8767 69.5112 21.6527 69.1916 21.5034C68.9075 21.3737 68.7023 21.2047 68.58 21.0082C68.4577 20.8117 68.3946 20.5327 68.3946 20.175C68.3946 19.3812 69.0653 18.9882 70.4107 18.9882H75.3544C76.1514 18.9882 76.7195 19.0864 77.0588 19.2868C77.3981 19.4833 77.5717 19.8017 77.5717 20.234C77.5717 20.4776 77.5047 20.7056 77.3745 20.9139C77.2403 21.1221 77.0509 21.2715 76.8063 21.3658C76.3131 21.5741 75.9936 21.7706 75.8397 21.9592C75.7253 22.0929 75.67 22.2618 75.67 22.4701C75.67 22.6588 75.7253 22.9417 75.8397 23.319L78.3411 31.8077C78.4555 32.1457 78.6055 32.3186 78.7948 32.3186C78.9842 32.3186 79.1341 32.1497 79.2486 31.8077L82.2037 23.0636C82.2984 22.7806 82.3458 22.5644 82.3458 22.4112C82.3458 22.1832 82.2471 22.0025 82.0459 21.861C81.8486 21.7195 81.4541 21.5466 80.8662 21.3383C80.6374 21.244 80.4598 21.1025 80.3257 20.9139C80.1915 20.7252 80.1284 20.4973 80.1284 20.234C80.1284 19.782 80.2941 19.4598 80.6255 19.2711C80.957 19.0825 81.529 18.9882 82.3458 18.9882H85.9243C86.4924 18.9882 86.9383 19.0864 87.2579 19.2868C87.5814 19.4833 87.7392 19.782 87.7392 20.179C87.7392 20.5169 87.6524 20.7763 87.4827 20.9571C87.3131 21.1379 87.0645 21.2833 86.7449 21.3972C86.1373 21.6055 85.6876 21.8492 85.3956 22.1322C85.1036 22.4151 84.8511 22.8592 84.642 23.4605L80.0692 36.846C79.8246 37.5259 79.4813 38.0446 79.0473 38.4022C78.6133 38.7599 78.0926 38.9407 77.4849 38.9407H77.3705C76.7274 38.9407 76.1435 38.7677 75.6227 38.418C75.1019 38.0682 74.7468 37.573 74.5574 36.9324L72.4269 29.5205C72.3124 29.1629 72.1901 28.9821 72.056 28.9821C71.9218 28.9821 71.7916 29.1629 71.6575 29.5205C70.5212 32.802 69.6611 35.2661 69.0732 36.9049C68.8444 37.5652 68.5011 38.0682 68.0356 38.418C67.57 38.7677 67.065 38.9407 66.5166 38.9407H66.3745L66.3824 38.9367Z" fill="white"/>
<path d="M85.6442 37.9896C84.8866 37.2272 84.5079 36.2486 84.5079 35.0618C84.5079 33.702 85.1036 32.6055 86.2991 31.7645C87.4906 30.9235 89.0452 30.4283 90.9587 30.279C91.5663 30.224 92.0121 30.1572 92.308 30.0825C92.6 30.0078 92.8012 29.8899 92.9038 29.7288C93.0064 29.5677 93.0419 29.3358 93.0024 29.0371L92.9472 28.5577C92.8722 27.9524 92.7144 27.5005 92.4777 27.1979C92.241 26.8953 91.8464 26.7459 91.298 26.7459C90.864 26.7459 90.4695 26.8796 90.1183 27.1429C89.7672 27.4062 89.5265 27.8031 89.3923 28.3297C89.2424 28.9153 88.986 29.3476 88.6269 29.6305C88.2679 29.9135 87.7668 30.055 87.1198 30.055C86.7213 30.055 86.3622 29.9135 86.0387 29.6305C85.7152 29.3476 85.5574 28.9703 85.5574 28.4987C85.5574 27.7245 85.873 27.0328 86.5082 26.4198C87.1434 25.8067 87.9957 25.3312 89.0649 24.9892C90.1341 24.6513 91.2941 24.4783 92.5448 24.4783C93.9099 24.4783 94.9831 24.6709 95.7682 25.06C96.5534 25.4451 97.1255 25.9992 97.4884 26.7145C97.8475 27.4337 98.1039 28.3376 98.2539 29.4301L98.9088 34.2954C98.9838 34.7867 99.0824 35.1129 99.2087 35.2701C99.331 35.4312 99.5085 35.5098 99.7334 35.5098C99.9425 35.5098 100.136 35.4666 100.317 35.384C100.499 35.3015 100.633 35.2583 100.728 35.2583C101.162 35.2583 101.383 35.5216 101.383 36.0521C101.383 36.5041 101.225 36.9639 100.913 37.4237C100.601 37.8874 100.175 38.2686 99.6348 38.5712C99.0942 38.8738 98.5024 39.0232 97.8593 39.0232C96.9874 39.0232 96.3127 38.8581 95.8274 38.528C95.3461 38.1979 94.9791 37.7224 94.7345 37.0975C94.6595 36.8892 94.5648 36.787 94.4504 36.787C94.3952 36.787 94.2098 36.9992 93.8981 37.4237C93.5864 37.8481 93.0656 38.2411 92.3357 38.5987C91.6058 38.9564 90.6076 39.1372 89.3371 39.1372C87.6327 39.1372 86.4017 38.7559 85.6442 37.9896ZM93.1169 35.6395C93.4759 35.1954 93.6574 34.598 93.6574 33.8435C93.6574 33.7295 93.6377 33.5055 93.6022 33.1636L93.5745 32.9671C93.5193 32.5505 93.3812 32.2793 93.1642 32.1457C92.9472 32.016 92.5606 31.9492 92.0121 31.9492C90.5523 31.9492 89.8263 32.6959 89.8263 34.1854C89.8263 34.8849 90 35.4115 90.3511 35.7692C90.7022 36.1268 91.1718 36.3076 91.7557 36.3076C92.3041 36.3076 92.7578 36.0875 93.1208 35.6434L93.1169 35.6395Z" fill="white"/>
<path d="M102.416 38.7245C101.915 38.5437 101.663 38.249 101.663 37.8324C101.663 37.4158 101.872 37.125 102.286 36.8971C102.835 36.6141 103.178 36.2447 103.308 35.7927C103.438 35.3408 103.505 34.6413 103.505 33.6981V23.6531C103.505 23.1815 103.454 22.812 103.347 22.5487C103.241 22.2854 103.048 22.1243 102.764 22.0693C102.365 21.975 102.061 21.8649 101.856 21.7431C101.647 21.6213 101.544 21.4365 101.544 21.1929C101.544 20.8903 101.655 20.6584 101.872 20.5012C102.089 20.3401 102.444 20.1672 102.937 19.9785C104.945 19.2043 106.433 18.8192 107.395 18.8192C107.889 18.8192 108.236 18.9017 108.445 19.0589C108.654 19.22 108.757 19.5148 108.757 19.951V33.6745C108.757 34.6373 108.824 35.329 108.954 35.7534C109.084 36.1779 109.42 36.5512 109.948 36.8696C110.177 37.0032 110.347 37.1368 110.461 37.2783C110.576 37.4198 110.631 37.6045 110.631 37.8285C110.631 38.1114 110.544 38.3354 110.374 38.4926C110.205 38.6538 109.857 38.7756 109.337 38.8621C108.816 38.9485 108.054 38.9878 107.048 38.9878H105.289C103.868 38.9878 102.906 38.8974 102.404 38.7206L102.416 38.7245Z" fill="white"/>
<path d="M111.878 38.6695C111.507 38.5084 111.325 38.2293 111.325 37.8363C111.325 37.4433 111.542 37.1093 111.98 36.901C112.568 36.618 112.935 36.2486 113.089 35.7967C113.239 35.3447 113.318 34.6255 113.318 33.647V23.657C113.318 23.205 113.266 22.8395 113.16 22.5684C113.057 22.2933 112.86 22.1282 112.576 22.0732C112.197 21.9985 111.897 21.9003 111.68 21.7745C111.463 21.6527 111.353 21.4601 111.353 21.1929C111.353 20.8903 111.463 20.6584 111.68 20.5012C111.897 20.3401 112.252 20.1672 112.746 19.9785C114.754 19.2043 116.241 18.8192 117.204 18.8192C117.697 18.8192 118.048 18.9017 118.253 19.0589C118.463 19.22 118.565 19.5148 118.565 19.951V28.9192C118.565 29.4301 118.687 29.6816 118.936 29.6816C119.086 29.6816 119.267 29.5795 119.476 29.3712L121.351 27.5044C121.56 27.2961 121.662 27.08 121.662 26.8521C121.662 26.6634 121.501 26.5416 121.181 26.4826C121.011 26.4433 120.873 26.3608 120.771 26.2272C120.668 26.0936 120.613 25.9246 120.613 25.7163C120.613 25.0954 121.209 24.781 122.404 24.781H126.152C126.72 24.781 127.15 24.836 127.446 24.9499C127.742 25.0639 127.888 25.3547 127.888 25.8263C127.888 26.2233 127.79 26.5023 127.588 26.6595C127.391 26.8206 127.119 26.9189 126.78 26.9582C126.251 26.9975 125.813 27.08 125.474 27.2136C125.134 27.3472 124.83 27.5437 124.566 27.807L123.769 28.5695C123.56 28.7777 123.457 28.9664 123.457 29.1354C123.457 29.269 123.525 29.438 123.655 29.6463L127.32 35.1915C127.659 35.6827 127.916 36.0128 128.085 36.1818C128.255 36.3508 128.472 36.4923 128.74 36.6062C128.969 36.7006 129.167 36.846 129.336 37.0464C129.506 37.2429 129.593 37.4669 129.593 37.7106C129.593 38.1075 129.411 38.4022 129.052 38.6027C128.693 38.7992 128.208 38.9014 127.604 38.9014L126.014 38.8738L124.396 38.9014C123.41 38.9014 122.739 38.8149 122.38 38.6459C122.021 38.4769 121.84 38.2018 121.84 37.8245C121.84 37.6162 121.927 37.4119 122.096 37.2036C122.246 36.9757 122.325 36.7792 122.325 36.6102C122.325 36.4215 122.23 36.1779 122.041 35.8753L120.281 33.2147C120.053 32.8767 119.855 32.7038 119.686 32.7038C119.536 32.7038 119.374 32.7902 119.204 32.9592L118.975 33.1557C118.826 33.2893 118.719 33.4544 118.664 33.6509C118.608 33.8474 118.577 34.1461 118.577 34.543V34.771C118.577 35.1875 118.656 35.5648 118.818 35.9028C118.979 36.2408 119.334 36.5552 119.883 36.8381C120.112 36.9717 120.285 37.1054 120.408 37.2468C120.53 37.3883 120.593 37.5809 120.593 37.8285C120.593 38.2254 120.427 38.5044 120.096 38.6616C119.765 38.8228 119.133 38.9014 118.206 38.9014L115.989 38.8738L113.831 38.9014C112.903 38.9014 112.252 38.8188 111.885 38.6616L111.878 38.6695Z" fill="white"/>
<path d="M132.785 38.1468C131.64 37.4866 130.757 36.5945 130.141 35.4744C129.526 34.3504 129.218 33.1204 129.218 31.7802C129.218 30.3458 129.569 29.0843 130.267 27.9878C130.97 26.8953 131.905 26.0464 133.08 25.4412C134.256 24.836 135.523 24.5373 136.888 24.5373C138.253 24.5373 139.318 24.8006 140.253 25.3312C141.192 25.8578 141.902 26.5141 142.384 27.2961C142.865 28.0782 143.11 28.8288 143.11 29.5441C143.11 30.3379 142.924 30.9078 142.557 31.2576C142.187 31.6073 141.54 31.847 140.612 31.9807L135.696 32.6881C135.467 32.7077 135.314 32.7509 135.227 32.8138C135.14 32.8767 135.101 32.9867 135.101 33.14C135.101 33.4976 135.239 33.8749 135.511 34.2718C135.787 34.6688 136.189 35.0067 136.718 35.2897C137.247 35.5727 137.854 35.7141 138.537 35.7141C139.295 35.7141 139.965 35.5687 140.553 35.274C141.141 34.9832 141.595 34.6452 141.918 34.2679C142.068 34.1186 142.23 34.04 142.4 34.04C142.664 34.04 142.857 34.1146 142.984 34.2679C143.106 34.4173 143.169 34.6059 143.169 34.8338C143.169 34.9674 143.161 35.0618 143.141 35.1168C142.838 36.1936 142.151 37.1289 141.082 37.9307C140.013 38.7324 138.576 39.1332 136.777 39.1332C135.262 39.1332 133.933 38.8031 132.785 38.1429V38.1468ZM137.345 30.0825C137.669 30.0275 137.894 29.9253 138.028 29.7838C138.162 29.6423 138.225 29.4498 138.225 29.2022C138.225 28.8642 138.135 28.4987 137.957 28.1136C137.776 27.7284 137.535 27.4022 137.231 27.1389C136.927 26.8756 136.596 26.742 136.237 26.742C135.061 26.742 134.477 27.6302 134.477 29.4026C134.477 29.8388 134.517 30.1336 134.592 30.2947C134.667 30.4558 134.789 30.5344 134.962 30.5344L135.302 30.4794L137.345 30.0825Z" fill="white"/>
<path d="M144.66 38.7245C144.159 38.5437 143.907 38.249 143.907 37.8324C143.907 37.4158 144.116 37.125 144.53 36.8971C145.079 36.6141 145.422 36.2447 145.552 35.7927C145.682 35.3408 145.749 34.6413 145.749 33.6981V29.4812C145.749 29.0096 145.698 28.6441 145.592 28.3769C145.489 28.1136 145.292 27.9524 145.008 27.8974C144.609 27.8031 144.305 27.6931 144.1 27.5712C143.891 27.4494 143.788 27.2647 143.788 27.021C143.788 26.7184 143.899 26.4866 144.116 26.3294C144.333 26.1682 144.688 25.9953 145.181 25.8067C147.189 25.0325 148.677 24.6473 149.64 24.6473C150.133 24.6473 150.484 24.7299 150.689 24.8871C150.898 25.0482 151.001 25.3429 151.001 25.7792V26.7145C151.001 27.1311 151.048 27.3354 151.143 27.3354C151.182 27.3354 151.356 27.0721 151.668 26.5416C151.979 26.011 152.417 25.5355 152.973 25.1111C153.534 24.6866 154.236 24.4744 155.088 24.4744C155.996 24.4744 156.706 24.7731 157.219 25.3665C157.732 25.9599 157.984 26.8245 157.984 27.9564C157.984 28.6913 157.744 29.3672 157.258 29.9803C156.777 30.5934 156.154 30.8999 155.396 30.8999C154.867 30.8999 154.418 30.7545 154.047 30.4598C153.676 30.169 153.494 29.7288 153.494 29.1432C153.494 28.8603 153.451 28.6284 153.368 28.4516C153.281 28.2708 153.088 28.1843 152.784 28.1843C152.291 28.1843 151.869 28.5419 151.522 29.2611C151.17 29.9764 150.997 30.8253 150.997 31.8078V33.6745C150.997 34.6373 151.064 35.329 151.194 35.7534C151.324 36.1779 151.66 36.5512 152.188 36.8696C152.417 37.0032 152.587 37.1368 152.701 37.2783C152.816 37.4198 152.871 37.6045 152.871 37.8285C152.871 38.1114 152.784 38.3354 152.614 38.4926C152.445 38.6538 152.098 38.7756 151.577 38.8621C151.056 38.9485 150.295 38.9878 149.288 38.9878H147.529C146.108 38.9878 145.146 38.8974 144.645 38.7206L144.66 38.7245Z" fill="white"/>
</svg>
