<svg width="95" height="24" viewBox="0 0 95 24" fill="none" xmlns="http://www.w3.org/2000/svg">
<g clip-path="url(#clip0_169_702)">
<path d="M70.9678 12.0043C70.9678 8.84525 70.9678 5.68784 70.9678 2.52875C70.9678 2.27152 70.9712 2.01261 70.9729 1.75537C70.9796 0.839085 71.6922 0.0808365 72.6152 0.0488925C73.3901 0.0219923 74.1683 0.0354424 74.9448 0.0287174C75.4771 0.0236736 76.0094 0.00517971 76.5417 0.00349845C77.6332 0.000135932 78.7248 0.000135932 79.8163 0.00349845C80.5574 0.00686098 81.3003 0.0270361 82.0415 0.0270361C82.9662 0.0270361 83.8893 0.00854224 84.8141 0.00517971C86.0673 0.000135932 87.3205 0.00517971 88.5721 0.00517971C89.7192 0.00517971 90.868 -0.00154533 92.0151 0.00854224C92.5306 0.013586 93.0511 0.0203111 93.5631 0.0825177C94.3616 0.180031 94.9949 0.906336 94.9916 1.85289C94.9831 4.82367 94.9899 7.79446 94.9899 10.7636C94.9899 14.5498 94.9747 18.336 95 22.1222C95.0067 23.1091 94.2133 24.0035 93.1235 24.0001C89.5777 23.9867 86.0336 23.9951 82.4878 23.9951C79.2857 23.9951 76.0835 23.9934 72.8831 23.9985C72.3137 23.9985 71.8286 23.8286 71.4378 23.4067C71.1312 23.0738 70.9712 22.6888 70.9729 22.2331C70.9729 18.8235 70.9729 15.4139 70.9729 12.0043C70.9712 12.0043 70.9695 12.0043 70.9678 12.0043ZM83.7579 8.96966C83.6467 8.96966 83.576 8.96966 83.5069 8.96966C82.5266 8.96966 81.5445 8.96966 80.5642 8.96966C80.293 8.96966 80.2896 8.97471 80.2896 9.25716C80.2896 10.5316 80.2879 11.8076 80.2879 13.082C80.2879 14.2808 80.2879 15.4795 80.2879 16.6782C80.2879 17.835 80.2879 18.9917 80.2879 20.1484C80.2879 20.4459 80.2964 20.4577 80.5878 20.4594C81.5833 20.4594 82.5771 20.4594 83.5726 20.4594C83.9213 20.4594 83.9196 20.4628 83.9196 20.1248C83.9179 18.605 83.9078 17.0851 83.9196 15.5653C83.9247 14.9331 83.9466 14.2976 84.014 13.6705C84.1336 12.5608 84.8444 11.9186 85.9427 11.8749C86.8253 11.8396 87.4385 12.2279 87.6625 13.0366C87.7871 13.4889 87.873 13.9664 87.8798 14.4338C87.9034 16.3235 87.8899 18.2132 87.8899 20.103C87.8899 20.3417 88.0134 20.4611 88.2605 20.4611C89.2408 20.4611 90.2229 20.4611 91.2032 20.4611C91.4896 20.4611 91.4913 20.4611 91.4913 20.1719C91.4913 18.0165 91.4811 15.8628 91.4963 13.7075C91.503 12.8198 91.3531 11.9657 91.0752 11.1267C90.676 9.92462 89.8607 9.16301 88.6243 8.87047C88.247 8.78136 87.8528 8.74437 87.4654 8.71579C86.0572 8.61492 84.9033 9.1008 84.0308 10.2188C83.9567 10.313 83.8809 10.4071 83.8051 10.5013L83.7596 10.4862V8.96798L83.7579 8.96966ZM74.4867 8.97975C74.4816 9.05877 74.4766 9.11257 74.4766 9.16805C74.4766 12.8567 74.4766 16.5437 74.4732 20.2324C74.4732 20.4073 74.5321 20.4644 74.7023 20.4628C75.7601 20.456 76.818 20.456 77.8758 20.4577C78.0223 20.4577 78.083 20.4241 78.083 20.2593C78.0779 16.5723 78.0779 12.8836 78.083 9.19663C78.083 9.00665 78.0207 8.96294 77.8421 8.96462C76.791 8.97134 75.7399 8.96798 74.6905 8.96798C74.6282 8.96798 74.5675 8.97471 74.485 8.97807L74.4867 8.97975ZM78.3761 5.39194C78.4098 4.28567 77.4193 3.28364 76.3126 3.29036C75.1706 3.29709 74.2222 4.17807 74.2222 5.39698C74.2222 6.49148 75.1385 7.44476 76.3092 7.44308C77.549 7.4414 78.403 6.33681 78.3761 5.39194Z" fill="white"/>
<path d="M64.0582 18.8759C63.9773 18.9482 63.9133 18.9885 63.8695 19.044C63.3372 19.7232 62.6449 20.1873 61.8431 20.4815C61.5214 20.5992 61.166 20.6479 60.8223 20.6799C60.157 20.7438 59.4899 20.6765 58.8482 20.505C58.4085 20.3873 57.9588 20.2276 57.573 19.9906C56.5169 19.3416 55.705 18.4573 55.267 17.2821C54.952 16.4364 54.7987 15.5621 54.8223 14.6458C54.8611 13.1445 55.2771 11.7827 56.1935 10.5873C57.0374 9.48605 58.1559 8.85053 59.5472 8.70258C60.5326 8.59834 61.486 8.71603 62.3939 9.1229C62.8386 9.32297 63.2311 9.60037 63.5495 9.97361C63.595 10.0257 63.6438 10.0762 63.6943 10.1249C63.7078 10.1384 63.7297 10.1434 63.7819 10.1686C63.7988 10.0896 63.824 10.0224 63.824 9.9568C63.8156 8.64037 63.8021 7.32395 63.792 6.00752C63.787 5.27617 63.792 4.54482 63.7836 3.81347C63.7803 3.62013 63.8544 3.55792 64.043 3.5596C65.0588 3.56633 66.0745 3.56297 67.0902 3.56465C67.353 3.56465 67.3698 3.58314 67.3698 3.85719C67.3698 5.80913 67.3698 7.76107 67.3698 9.71302C67.3698 13.1646 67.3698 16.6163 67.3698 20.0662C67.3698 20.4025 67.3698 20.3974 67.0262 20.4008C66.1233 20.4075 65.2188 20.4159 64.3159 20.4344C64.134 20.4378 64.0683 20.3941 64.075 20.2041C64.0902 19.8275 64.0801 19.4509 64.0784 19.0743C64.0784 19.0222 64.0666 18.97 64.0548 18.8742L64.0582 18.8759ZM61.2064 17.5729C61.3024 17.5729 61.4085 17.578 61.513 17.5729C62.367 17.5309 63.0677 17.1862 63.5613 16.4851C64.0279 15.8227 64.1458 15.0695 64.0582 14.276C63.979 13.5513 63.728 12.899 63.1637 12.4232C62.3822 11.7658 61.4608 11.6465 60.4787 11.8381C59.6938 11.9911 59.0823 12.4283 58.7067 13.0974C58.3108 13.8035 58.2215 14.5988 58.4085 15.4041C58.5635 16.0732 58.86 16.66 59.4428 17.0685C59.97 17.4384 60.5511 17.62 61.2064 17.5763V17.5729Z" fill="white"/>
<path d="M34.2871 13.5729C34.3814 13.5074 34.437 13.4805 34.4741 13.4401C35.6768 12.0699 36.8845 10.7064 38.0704 9.32269C38.2793 9.07891 38.4848 8.9898 38.7981 8.99485C39.9957 9.01166 41.1934 9.00157 42.3927 9.00157C42.4668 9.00157 42.541 9.00157 42.6791 9.00157C42.482 9.22182 42.3253 9.39499 42.1704 9.56816C41.4208 10.4138 40.6712 11.2612 39.9199 12.1069C39.354 12.7441 38.7846 13.3779 38.2186 14.0134C37.9896 14.2706 37.9862 14.2757 38.19 14.5497C39.2428 15.9586 40.3006 17.3642 41.3534 18.7731C41.7122 19.2539 42.0659 19.7381 42.4197 20.2223C42.4601 20.2761 42.4921 20.335 42.5477 20.4207C42.4416 20.4257 42.3675 20.4341 42.2933 20.4341C40.9896 20.4341 39.6875 20.4341 38.3837 20.4375C38.2136 20.4375 38.1041 20.3921 38.0047 20.2408C37.026 18.7647 36.0389 17.2936 35.0519 15.8208C34.8548 15.5249 34.6493 15.234 34.4455 14.9431C34.4219 14.9095 34.3764 14.891 34.2888 14.8255C34.2888 14.9667 34.2888 15.0524 34.2888 15.1399C34.2888 16.8194 34.2854 18.5007 34.2922 20.1803C34.2922 20.3837 34.2315 20.4392 34.0311 20.4375C33.0221 20.4274 32.0131 20.4291 31.0041 20.4375C30.8087 20.4375 30.7396 20.3854 30.7396 20.1786C30.7447 15.424 30.743 10.6694 30.7396 5.91478C30.7396 5.21705 30.7396 4.52101 30.7245 3.82329C30.7211 3.62154 30.7868 3.55597 30.9889 3.55765C32.0047 3.56605 33.0204 3.56774 34.0361 3.55765C34.2467 3.55597 34.2922 3.62826 34.2905 3.82329C34.2854 6.9538 34.2871 10.0843 34.2871 13.2148C34.2871 13.3123 34.2871 13.4082 34.2871 13.5729Z" fill="white"/>
<path d="M49.6292 15.7921C48.3405 15.7921 47.0519 15.7921 45.7616 15.7921C45.477 15.7921 45.4803 15.7971 45.5494 16.0762C45.8341 17.2346 47.0081 18.0568 48.1199 18.04C49.1592 18.0231 49.9997 17.6196 50.6213 16.784C50.7325 16.6327 50.8335 16.6966 50.938 16.7773C51.5562 17.2464 52.1727 17.7155 52.7909 18.1845C52.8465 18.2266 52.9037 18.2669 52.9627 18.3056C53.2086 18.4687 53.2103 18.4804 53.0031 18.7074C52.2805 19.4976 51.3776 19.9953 50.3855 20.3836C49.4371 20.7569 48.4517 20.7821 47.4916 20.6627C45.386 20.4021 43.678 19.4438 42.6286 17.5204C42.2445 16.8177 42.0558 16.0561 41.9733 15.2709C41.8267 13.894 42.1451 12.6128 42.8846 11.446C43.7336 10.1061 44.9851 9.31757 46.5028 8.91407C47.1614 8.73922 47.8352 8.63666 48.514 8.67196C50.3349 8.7678 51.8661 9.43694 52.8431 11.0425C53.2811 11.7638 53.5792 12.5674 53.6584 13.4148C53.7274 14.1546 53.7241 14.901 53.7527 15.6442C53.7594 15.8089 53.6415 15.7904 53.5371 15.7904C52.4506 15.7904 51.3658 15.7938 50.2794 15.7938C50.0621 15.7938 49.8448 15.7938 49.6275 15.7938L49.6292 15.7921ZM47.8622 13.3845V13.3795C48.5562 13.3795 49.2485 13.3812 49.9425 13.3795C50.2659 13.3795 50.2625 13.3728 50.2036 13.0516C49.9475 11.673 48.7263 10.9787 47.5067 11.209C46.5618 11.3872 45.7751 11.9807 45.509 13.1408C45.4584 13.361 45.477 13.3862 45.6976 13.3862C46.4186 13.3862 47.1412 13.3862 47.8622 13.3862V13.3845Z" fill="white"/>
<path d="M17.7542 9.00106C17.8553 9.00106 17.9243 9.00106 17.9917 9.00106C18.9721 9.00106 19.9524 9.00778 20.9344 8.99601C21.1349 8.99433 21.1821 9.05822 21.1753 9.24484C21.1618 9.59959 21.172 9.95601 21.172 10.3108C21.172 10.378 21.1787 10.4453 21.1854 10.5747C21.2747 10.4907 21.3337 10.4503 21.3724 10.3948C22.0984 9.37766 23.0804 8.81444 24.3387 8.74719C25.0007 8.71188 25.6543 8.76736 26.286 8.97584C27.5257 9.38606 28.2753 10.2351 28.5751 11.4994C28.8228 12.5452 28.8716 13.606 28.8716 14.6719C28.8716 16.4776 28.8699 18.2833 28.8699 20.089C28.8699 20.4067 28.8733 20.4034 28.5482 20.4034C27.5611 20.4034 26.5723 20.3983 25.5852 20.4118C25.3629 20.4151 25.3191 20.3412 25.3191 20.1377C25.3258 18.2345 25.3275 16.3314 25.3174 14.4282C25.314 13.9356 25.2837 13.4429 25.1153 12.9672C24.7784 12.0156 24.1063 11.8205 23.323 11.839C23.0889 11.8457 22.848 11.8911 22.6256 11.9651C22.0529 12.1551 21.7194 12.5788 21.5139 13.1336C21.3118 13.6783 21.3151 14.2432 21.3101 14.8031C21.2949 16.5936 21.3033 18.3859 21.3134 20.1781C21.3134 20.3697 21.2478 20.4118 21.0709 20.4101C20.2169 20.4017 19.3612 20.405 18.5071 20.4067C18.3471 20.4067 18.1854 20.4151 18.0254 20.4286C17.8216 20.4454 17.7491 20.3781 17.7508 20.1596C17.7609 18.4447 17.7559 16.7298 17.7559 15.0149C17.7559 13.0916 17.7559 11.1665 17.7559 9.24316C17.7559 9.17423 17.7559 9.10529 17.7559 9.00442L17.7542 9.00106Z" fill="white"/>
<path d="M3.68389 17.033C3.8018 17.033 3.89108 17.033 3.97867 17.033C6.09435 17.033 8.21002 17.0364 10.3257 17.028C10.5295 17.028 10.5834 17.0852 10.5817 17.2852C10.5716 18.2536 10.5716 19.2237 10.5817 20.1921C10.5834 20.3871 10.5245 20.4393 10.3308 20.4393C6.97532 20.4342 3.61988 20.4359 0.264439 20.4342C-0.0151811 20.4342 -0.00170541 20.4342 -2.09518e-05 20.1417C0.00840133 18.8387 0.0100858 17.534 0.0117702 16.2311C0.0117702 13.5326 0.0117702 10.8359 0.0117702 8.13748C0.0117702 6.72186 0.00671688 5.30624 0.00334796 3.8923C0.00334796 3.58967 0.0016635 3.58967 0.298128 3.58631C0.99044 3.57958 1.68444 3.56613 2.37675 3.56445C2.73385 3.56445 3.09096 3.59135 3.44638 3.58127C3.64851 3.57622 3.68726 3.65356 3.68726 3.8385C3.6822 6.33517 3.68389 8.83016 3.68389 11.3268C3.68389 13.146 3.68389 14.9668 3.68389 16.7859C3.68389 16.8548 3.68389 16.9238 3.68389 17.033Z" fill="white"/>
<path d="M12.2056 8.99951C12.4902 8.99951 12.7429 8.99951 12.9939 8.99951C13.8344 8.99951 14.675 9.00455 15.5155 8.99615C15.6941 8.99447 15.7564 9.03145 15.7564 9.2248C15.7497 12.8429 15.7513 16.4626 15.7497 20.0807C15.7497 20.4018 15.748 20.3985 15.433 20.4001C14.4594 20.4001 13.4858 20.4052 12.5121 20.4069C12.2275 20.4069 12.2224 20.4035 12.214 20.1143C12.2073 19.8285 12.2056 19.5427 12.2056 19.2569C12.2056 15.9162 12.2056 12.5772 12.2056 9.23657C12.2056 9.16764 12.2056 9.10039 12.2056 9.00119V8.99951Z" fill="white"/>
<path d="M11.9529 5.35015C11.9478 4.26741 12.8541 3.32087 13.986 3.32423C15.0523 3.32759 16.0209 4.15981 16.0327 5.4174C16.0411 6.4396 15.1028 7.41474 14.0366 7.40801C12.7261 7.3996 11.9546 6.4043 11.9529 5.35015Z" fill="white"/>
</g>
<defs>
<clipPath id="clip0_169_702">
<rect width="95" height="24" fill="white"/>
</clipPath>
</defs>
</svg>
