<svg width="23" height="24" viewBox="0 0 23 24" fill="none" xmlns="http://www.w3.org/2000/svg">
<g clip-path="url(#clip0_169_713)">
<path d="M23 23.9631C22.8083 23.9631 22.6346 23.9631 22.461 23.9631C20.4695 23.9631 18.478 23.9631 16.4843 23.9724C16.252 23.9724 16.1032 23.9056 15.9723 23.7098C14.7297 21.8601 13.4802 20.015 12.233 18.1676C11.4752 17.0458 10.7197 15.9263 9.96185 14.8045C9.93705 14.7676 9.90322 14.7377 9.86036 14.6893C9.51981 15.0924 9.18827 15.484 8.85899 15.8756C6.8382 18.2758 4.79261 20.6553 2.81241 23.0924C2.29143 23.7328 1.78172 24.1152 0.951755 23.9747C0.649539 23.924 0.333791 23.9654 0.00225534 23.9654C0.0157874 23.9171 0.0157874 23.8756 0.0360855 23.8549C1.31938 22.3392 2.60718 20.8235 3.89047 19.3078C5.46921 17.442 7.04569 15.5739 8.62218 13.708C8.95823 13.3118 8.96499 13.3095 8.68082 12.888C7.53059 11.1811 6.37586 9.48114 5.22563 7.77426C3.59051 5.34639 1.95989 2.91851 0.32928 0.490642C0.22779 0.343219 0.124044 0.1981 0 0.0230348C0.103746 0.0138209 0.182683 0.00460697 0.259365 0.00460697C2.37488 0.00460697 4.48813 0.00691045 6.60365 0C6.79084 0 6.90812 0.0529801 7.01638 0.216527C8.89733 3.02678 10.7851 5.83242 12.6705 8.63806C12.6863 8.6611 12.7089 8.67722 12.7607 8.7256C12.9254 8.54132 13.0923 8.36625 13.2479 8.18198C15.51 5.49842 17.7699 2.81486 20.0342 0.133602C20.0838 0.0737115 20.1673 0.00921394 20.2349 0.00691045C20.8777 -0.00230348 21.5227 0.00230348 22.2174 0.00230348C21.94 0.329398 21.6964 0.61503 21.4551 0.902966C19.2155 3.56579 16.9737 6.23092 14.7342 8.89375C14.441 9.24388 14.1523 9.59862 13.8501 9.93953C13.7283 10.0754 13.717 10.1699 13.8253 10.3311C15.6656 13.0538 17.497 15.7812 19.3373 18.5039C20.5417 20.2868 21.755 22.0651 22.9639 23.8457C22.9774 23.8664 22.9797 23.8963 22.9977 23.9585L23 23.9631ZM3.01539 1.56407C3.91979 2.89778 4.80163 4.19234 5.6767 5.49381C7.04344 7.52318 8.40567 9.55715 9.77241 11.5865C11.6804 14.4221 13.593 17.2577 15.5032 20.0933C15.9723 20.7889 16.4505 21.4754 16.9196 22.171C17.0391 22.3484 17.179 22.4106 17.3932 22.4014C17.9277 22.3783 18.4622 22.3853 18.999 22.383C19.3238 22.383 19.6486 22.383 20.0139 22.383C19.944 22.2724 19.9057 22.2079 19.8628 22.148C18.9855 20.8673 18.1036 19.5911 17.2331 18.3081C15.828 16.235 14.4319 14.1549 13.0336 12.0772C11.5293 9.84048 10.0295 7.6015 8.52295 5.36712C7.70426 4.15088 6.88105 2.93694 6.05334 1.72761C5.99922 1.64699 5.87066 1.57789 5.77819 1.57558C4.86703 1.56407 3.95587 1.56867 3.01539 1.56867V1.56407Z" fill="white"/>
</g>
<defs>
<clipPath id="clip0_169_713">
<rect width="23" height="24" fill="white"/>
</clipPath>
</defs>
</svg>
