<svg width="24" height="24" viewBox="0 0 24 24" fill="none" xmlns="http://www.w3.org/2000/svg">
<path d="M23.9961 12.0888C23.9961 14.352 23.9861 16.6153 24.0021 18.8785C24.0081 19.7459 23.7941 20.5406 23.3859 21.2971C22.8078 22.3702 21.9916 23.1811 20.8433 23.6289C20.2812 23.8487 19.699 23.9859 19.0929 23.9879C14.4517 23.996 9.80855 24.0041 5.16739 23.998C3.80905 23.998 2.59275 23.5563 1.6045 22.6042C0.91433 21.9405 0.43421 21.1236 0.204153 20.1876C0.0921248 19.7318 0.0121048 19.2537 0.0101043 18.7857C-0.00389919 14.2673 0.000101812 9.7489 0.000101812 5.23251C0.000101812 3.92943 0.408204 2.76957 1.25442 1.77915C2.14264 0.744359 3.28292 0.187627 4.62926 0.0484435C4.93534 0.0161692 5.24341 0.0040663 5.55149 0.0040663C9.95259 3.20105e-05 14.3517 -0.00803657 18.7528 0.0121349C19.3009 0.014152 19.8651 0.121061 20.3952 0.272347C22.3917 0.843199 23.46 2.27537 23.9261 4.22797C23.9821 4.45994 23.9901 4.70805 23.9901 4.95011C23.9941 7.33034 23.9921 9.71057 23.9921 12.0908H23.9941L23.9961 12.0888ZM15.9841 17.9849C16.0081 17.9829 16.0841 17.9809 16.1561 17.9627C16.6423 17.8356 16.7683 17.4282 16.8443 17.0126C16.9803 16.2582 17.0884 15.4978 17.2044 14.7393C17.4885 12.8936 17.7745 11.0479 18.0546 9.20225C18.1366 8.65762 18.2107 8.11299 18.2767 7.56635C18.3527 6.91279 18.0006 6.60215 17.3644 6.7615C17.2204 6.79781 17.0804 6.85429 16.9423 6.91279C15.9821 7.3142 15.0259 7.72368 14.0636 8.12106C13.0714 8.53256 12.0751 8.93397 11.0809 9.33942C9.5945 9.94859 8.10413 10.5477 6.62176 11.169C6.05561 11.407 5.49348 11.6632 4.95934 11.9637C4.56924 12.1836 4.60925 12.583 5.03336 12.7343C5.82356 13.0167 6.62176 13.287 7.43396 13.4927C7.95609 13.6258 8.50423 13.6279 8.99835 13.295C10.6128 12.2017 12.2312 11.1165 13.8516 10.0333C14.0796 9.88001 14.3197 9.74486 14.5677 9.62585C14.6598 9.58147 14.7858 9.61375 14.8958 9.61173C14.8798 9.71461 14.8938 9.83563 14.8418 9.91834C14.7198 10.116 14.5877 10.3137 14.4237 10.4771C13.5935 11.2981 12.7533 12.1069 11.9131 12.9178C11.607 13.2123 11.2869 13.4927 10.9748 13.7832C10.5147 14.2088 10.5247 14.5638 11.0049 14.9733C11.1009 15.054 11.1989 15.1327 11.3009 15.2033C12.3912 15.9557 13.4795 16.7101 14.5777 17.4524C14.9858 17.7267 15.412 17.9809 15.9801 17.9869L15.9841 17.9849Z" fill="white"/>
</svg>
