<svg width="18" height="18" viewBox="0 0 18 18" fill="none" xmlns="http://www.w3.org/2000/svg">
<path d="M9 17C10.7733 16.9999 12.4964 16.4108 13.8987 15.3254C15.301 14.2399 16.303 12.7194 16.7475 11.0027M9 17C7.22667 16.9999 5.50359 16.4108 4.10131 15.3254C2.69903 14.2399 1.69696 12.7194 1.25245 11.0027M9 17C11.2089 17 13 13.4178 13 9C13 4.58222 11.2089 1 9 1M9 17C6.79111 17 5 13.4178 5 9C5 4.58222 6.79111 1 9 1M16.7475 11.0027C16.912 10.3627 17 9.69156 17 9C17.0021 7.6241 16.6478 6.27112 15.9715 5.07289M16.7475 11.0027C14.3773 12.3175 11.7105 13.005 9 13C6.28951 13.005 3.62268 12.3175 1.25245 11.0027M1.25245 11.0027C1.08408 10.3484 0.999261 9.67554 1 9C1 7.57333 1.37334 6.23289 2.02845 5.07289M9 1C10.4188 0.999685 11.8122 1.37671 13.0373 2.09242C14.2624 2.80813 15.2751 3.83678 15.9715 5.07289M9 1C7.58117 0.999685 6.18779 1.37671 4.96271 2.09242C3.73763 2.80813 2.72493 3.83678 2.02845 5.07289M15.9715 5.07289C14.0363 6.74948 11.5605 7.67059 9 7.66667C6.33511 7.66667 3.89778 6.68889 2.02845 5.07289" stroke="black" stroke-width="1.5" stroke-linecap="round" stroke-linejoin="round"/>
</svg>
