<svg width="187" height="212" viewBox="0 0 187 212" fill="none" xmlns="http://www.w3.org/2000/svg">
<path d="M52.2521 28.0943C50.2927 26.0112 50.8447 23.1551 51.7532 20.0076C52.3772 17.8421 52.3268 15.3377 52.0029 13.0694C51.4746 9.32408 49.0031 7.19721 45.2494 6.63585C40.9773 5.99581 37.1595 7.23528 33.7394 9.70254C28.1992 13.7012 24.4444 19.0056 22.6589 25.6251C21.0902 31.4319 22.455 36.3206 27.1881 40.2533C31.53 43.8619 36.4479 45.8634 42.0594 46.3085C44.5592 46.5064 46.6478 45.7067 48.5533 44.1632C52.1284 41.2748 55.1661 34.1654 52.2521 28.0943Z" fill="#FFB94A" fill-opacity="0.3"/>
<path d="M138.473 105.201C139.025 106.308 139.511 107.456 140.149 108.513C142.964 113.185 146.963 114.818 152.317 113.65C156.863 112.66 160.242 110.277 162.102 105.92C162.838 104.189 163.907 103.068 165.87 102.386C168.233 101.56 170.549 100.22 172.491 98.617C176.236 95.5337 176.564 91.396 173.853 87.3642C172.17 84.8641 169.942 82.9924 167.173 81.8901C158.979 78.6431 150.902 78.8779 143.11 83.1717C139.808 84.9928 137.752 87.8172 137.111 91.6376C136.322 96.2954 136.732 100.799 138.473 105.201Z" fill="#FFB94A" fill-opacity="0.3"/>
<path d="M152.232 192.861C155.127 199.412 159.824 203.913 166.371 206.451C169.79 207.775 172.878 206.66 175.57 204.587C179.903 201.248 182.215 196.914 181.154 191.282C180.77 189.24 181.057 187.583 182.51 185.92C184.299 183.876 185.373 181.352 185.887 178.646C186.657 174.564 185.066 171.428 181.329 169.587C177.862 167.878 174.231 167.703 170.577 168.675C163.49 170.554 157.863 174.579 153.854 180.734C151.92 183.697 150.837 186.951 151.542 190.559C151.703 191.379 152.017 192.168 152.23 192.855L152.232 192.861Z" fill="#FFB94A" fill-opacity="0.3"/>
<path d="M47.1888 115.83C43.0008 117.666 39.3079 120.107 36.3276 123.568C32.7505 127.716 31.8008 132.288 33.7869 137.514C35.5687 142.207 38.4344 145.968 42.3197 149.106C47.3564 153.181 51.9953 152.064 56.1864 149.066C59.8642 146.436 61.9652 142.875 61.8143 138.231C61.7461 136.116 62.3157 134.474 64.0463 133.037C66.2112 131.241 67.7296 128.855 68.6369 126.157C69.9092 122.378 68.9317 119.276 65.7338 116.906C61.9718 114.115 57.6943 113.575 53.218 114.327C51.1811 114.672 49.19 115.32 47.1798 115.827L47.1888 115.83Z" fill="#FFB94A" fill-opacity="0.3"/>
<path d="M15.6488 26.32C16.925 25.5133 17.8938 25.0461 18.6898 24.3703C21.0064 22.4088 21.0261 19.8167 18.8275 17.7162C15.5449 14.5857 9.66693 13.6772 5.56978 15.8741C4.09437 16.6699 2.66084 17.7787 1.60327 19.0603C0.050001 20.9432 0.441819 22.9674 2.32625 24.541C4.3075 26.1884 6.66726 27.0338 9.19228 27.0121C11.4637 26.9937 13.7286 26.5434 15.6488 26.32Z" fill="#FFB94A" fill-opacity="0.3"/>
<path d="M149.121 69.1505C147.085 64.5138 144.157 62.0136 139.967 61.1462C136.063 60.3376 133.803 62.4414 134.354 66.3949C135.126 71.8861 138.475 75.5223 143.39 77.6298C146.914 79.1435 149.746 77.0823 149.708 73.232C149.693 71.6275 149.252 70.0273 149.115 69.153L149.121 69.1505Z" fill="#FFB94A" fill-opacity="0.3"/>
<path d="M137.85 166.394C137.71 166.457 137.344 166.61 136.993 166.802C134.308 168.251 133.567 170.897 135.551 173.21C136.866 174.748 138.543 176.157 140.338 177.054C143.223 178.485 146.401 178.975 149.645 178.271C153.522 177.427 154.784 174.282 152.591 170.951C149.491 166.242 143.265 164.25 137.855 166.407L137.85 166.394Z" fill="#FFB94A" fill-opacity="0.3"/>
<path d="M37.0341 113.572C34.8159 108.064 27.8718 104.792 22.4521 106.698C19.2373 107.833 18.334 109.974 19.8213 113.039C20.8815 115.217 22.5431 116.909 24.6825 117.954C26.495 118.837 28.4687 119.409 30.4113 119.978C31.2347 120.221 32.1726 120.185 33.042 120.109C36.8601 119.776 38.4645 117.116 37.0341 113.572Z" fill="#FFB94A" fill-opacity="0.3"/>
<path d="M7.40283 32.15C6.29998 32.9402 5.1081 33.6384 4.12263 34.5542C2.74688 35.8273 2.6883 37.4536 3.76308 38.9893C5.20257 41.0467 7.31201 42.1489 9.6138 42.9049C12.165 43.7417 14.761 44.276 17.3809 43.1154C17.7447 42.9559 18.1125 42.7873 18.4301 42.5488C20.0009 41.3705 21.5647 39.9103 21.1587 37.8693C20.6059 35.1001 19.358 32.4871 16.257 31.644C13.2995 30.8413 10.3816 31.2514 7.4093 32.1474L7.40283 32.15Z" fill="#FFB94A" fill-opacity="0.3"/>
<path d="M132.477 188.476C134.34 191.617 137.439 194.266 141.838 195.17C143.454 195.502 145.018 195.098 146.423 194.24C148.916 192.703 149.534 190.503 148.266 187.029C147.886 185.996 147.23 184.856 146.356 184.259C142.781 181.807 138.795 181.075 134.606 182.38C131.837 183.24 131.087 185.126 132.48 188.483L132.477 188.476Z" fill="#FFB94A" fill-opacity="0.3"/>
<path d="M124.627 83.6301C125.161 84.3694 126.008 85.8981 127.182 87.1172C129.168 89.1745 132.608 89.6434 134.648 88.3833C136.527 87.2251 138.108 82.8068 137.141 80.5991C135.374 76.5668 132.454 73.6516 128.064 72.5265C125.651 71.9046 123.999 73.0104 123.454 75.4514C122.877 78.0179 123.513 80.4472 124.63 83.6365L124.627 83.6301Z" fill="#FFB94A" fill-opacity="0.3"/>
<path d="M14.6358 128.29C15.8719 130.968 18.0374 133.381 21.0226 134.952C22.0392 135.492 23.2893 135.789 24.4456 135.832C28.0555 135.956 30.0994 133.893 30.2162 130.318C30.3036 127.557 29.2911 125.442 26.8799 123.996C24.2788 122.43 21.5145 121.453 18.4562 121.604C14.4057 121.805 12.9456 124.168 14.6448 128.294L14.6358 128.29Z" fill="#FFB94A" fill-opacity="0.3"/>
<path d="M169.858 71.7598C168 68.1978 164.845 65.4813 160.071 65.1078C158.037 64.9496 155.92 65.2062 154.886 67.2649C153.88 69.2602 154.885 71.093 156.167 72.6214C158.13 74.9579 160.636 76.6439 163.469 77.736C164.495 78.1299 165.731 78.2231 166.839 78.1052C170.209 77.74 171.457 75.4466 169.86 71.7662L169.858 71.7598Z" fill="#FFB94A" fill-opacity="0.3"/>
<path d="M42.9778 101.72C41.0778 102.617 39.2643 103.6 39.1679 105.848C39.078 108.093 40.7355 109.36 42.5404 110.186C45.6024 111.592 48.8437 112.184 52.2223 111.726C52.7852 111.652 53.3458 111.46 53.8548 111.212C57.5214 109.441 57.8791 106.19 54.6375 103.748C51.0782 101.072 47.1674 100.266 42.9688 101.716L42.9778 101.72Z" fill="#FFB94A" fill-opacity="0.3"/>
<path d="M158.172 157.752C156.511 158.382 155.078 159.303 154.124 160.828C153.1 162.456 153.399 163.813 154.643 165.266C157.049 168.078 167.086 168.226 169.621 165.534C171.92 163.092 171.87 160.551 168.99 158.848C165.58 156.832 161.956 156.331 158.172 157.752Z" fill="#FFB94A" fill-opacity="0.3"/>
<path d="M26.8882 10.4766C29.2767 9.71499 31.2171 8.71199 32.4176 6.67699C34.1977 3.64772 33.1307 1.07522 29.7046 0.413716C25.6114 -0.379789 21.8582 0.39956 18.7435 3.3148C18.0161 3.99329 17.3774 4.83876 16.9043 5.72336C15.3457 8.64968 16.4883 10.9599 19.7631 11.5991C22.3553 12.105 24.7542 11.3693 26.8843 10.4856L26.8882 10.4766Z" fill="#FFB94A" fill-opacity="0.3"/>
<path d="M142.779 203.501C145.026 206.93 148.264 210.176 153.174 211.027C154.456 211.252 155.987 210.823 157.225 210.279C158.999 209.499 159.5 207.817 158.468 206.182C156.507 203.074 154.123 200.32 150.345 199.394C148.685 198.99 146.95 198.773 145.241 198.717C142.438 198.625 141.434 200.23 142.779 203.501Z" fill="#FFB94A" fill-opacity="0.3"/>
<path d="M22.0333 144.176C23.9613 147.897 26.2472 150.764 29.6665 152.56C31.4078 153.471 33.2514 153.81 35.1589 153.007C36.9887 152.235 37.609 150.948 37.0577 149.069C35.5615 143.963 29.4964 139.451 24.1102 139.441C22.7377 139.439 21.7566 140.196 21.7077 141.564C21.6728 142.551 21.947 143.544 22.0333 144.176Z" fill="#FFB94A" fill-opacity="0.3"/>
<path d="M124.484 102.272C125.623 103.819 126.699 105.414 127.936 106.885C128.418 107.458 129.22 107.836 129.947 108.117C133.022 109.292 135.045 107.837 134.997 104.582C134.919 99.1225 132.654 94.8913 127.993 91.9711C125.827 90.6141 124.101 91.2698 123.59 93.795C123.002 96.6729 123.786 99.4025 124.48 102.281L124.484 102.272Z" fill="#FFB94A" fill-opacity="0.3"/>
<path d="M33.1925 54.6324C33.6901 54.2999 34.2885 53.9948 34.7786 53.5679C36.8361 51.7843 36.8076 49.788 34.6557 48.1259C29.9916 44.5179 24.9191 43.7689 19.4594 46.14C17.9236 46.8026 17.4673 48.1449 18.2823 49.6114C18.5153 50.0282 18.7936 50.4645 19.155 50.7704C22.6874 53.7942 26.7177 55.4292 31.4362 55.023C32.0003 54.9712 32.5544 54.781 33.1951 54.6389L33.1925 54.6324Z" fill="#FFB94A" fill-opacity="0.3"/>
</svg>
