<svg width="19" height="19" viewBox="0 0 19 19" fill="none" xmlns="http://www.w3.org/2000/svg">
<path d="M12.6297 11.5662C12.7222 11.9532 12.7686 12.3543 12.7692 12.7692C12.7692 14.1565 12.2181 15.487 11.2372 16.4679C10.2562 17.4489 8.92575 18 7.53846 18V13.8154M12.6297 11.5662C14.2948 10.3533 15.6493 8.76377 16.5826 6.9274C17.5159 5.09104 18.0016 3.05994 18 1C15.9402 0.998516 13.9093 1.48427 12.0731 2.4176C10.2369 3.35093 8.64749 4.70535 7.43472 6.37026M12.6297 11.5662C11.1148 12.6751 9.37844 13.4424 7.53846 13.8154M7.53846 13.8154C7.44837 13.834 7.358 13.8514 7.26733 13.8677C6.47596 13.2411 5.75981 12.5249 5.13318 11.7335L5.18461 11.4615M7.43472 6.37026C6.66654 6.18857 5.86721 6.1831 5.09662 6.35425C4.32603 6.52541 3.60417 6.86874 2.98514 7.35854C2.36611 7.84833 1.86595 8.47187 1.52216 9.18244C1.17837 9.89301 0.999856 10.6722 1 11.4615H5.18461M7.43472 6.37026C6.32591 7.8849 5.55769 9.62186 5.18461 11.4615M3.23267 13.5451C2.65896 13.9714 2.21291 14.5466 1.94289 15.2083C1.67288 15.8701 1.58919 16.5931 1.70092 17.2991C1.89911 17.3305 2.10137 17.3462 2.30769 17.3462C2.91909 17.3463 3.52206 17.2035 4.06848 16.9293C4.61491 16.655 5.08966 16.2568 5.45487 15.7665M13.4231 6.88462C13.4231 7.23144 13.2853 7.56406 13.0401 7.8093C12.7948 8.05454 12.4622 8.19231 12.1154 8.19231C11.7686 8.19231 11.4359 8.05454 11.1907 7.8093C10.9455 7.56406 10.8077 7.23144 10.8077 6.88462C10.8077 6.5378 10.9455 6.20518 11.1907 5.95994C11.4359 5.7147 11.7686 5.57693 12.1154 5.57693C12.4622 5.57693 12.7948 5.7147 13.0401 5.95994C13.2853 6.20518 13.4231 6.5378 13.4231 6.88462Z" stroke="black" stroke-width="1.75" stroke-linecap="round" stroke-linejoin="round"/>
</svg>
