<svg width="171" height="123" viewBox="0 0 171 123" fill="none" xmlns="http://www.w3.org/2000/svg">
<g filter="url(#filter0_d_91_47)">
<path d="M133.208 55.1625C133.532 55.5379 133.856 55.9132 134.18 56.2715C136.004 58.319 137.897 60.3153 139.62 62.4481C142.416 65.8947 144.889 69.5801 147.276 73.3168C148.623 75.4155 149.988 77.5141 151.198 79.681C153.057 82.9911 154.831 86.3524 156.57 89.7307C158.974 94.3887 161.038 99.2003 162.982 104.063C163.868 106.264 164.568 108.533 165.369 110.769C165.557 111.297 165.761 111.843 165.932 112.372C166.102 112.918 166.051 112.97 165.471 112.97C164.295 112.97 163.135 112.97 161.958 112.97C159.077 112.97 156.195 112.97 153.313 112.987C152.631 112.987 152.29 112.697 151.966 112.116C150.994 110.342 149.953 108.602 148.913 106.861C148.197 105.633 147.498 104.387 146.696 103.227C144.582 100.156 142.314 97.187 139.807 94.4058C136.908 91.1981 133.685 88.3487 130.172 85.8576C126.318 83.1105 122.158 80.8924 117.741 79.1521C114.654 77.9407 111.449 77.0534 108.243 76.2686C106.128 75.7567 103.945 75.4666 101.78 75.1425C100.109 74.8865 98.4204 74.7329 96.7492 74.5453C96.681 74.5453 96.6128 74.5453 96.5446 74.5453C92.8612 74.5111 89.1779 74.4088 85.4945 74.477C83.056 74.5111 80.6174 74.6818 78.196 74.9718C74.7002 75.3984 71.2044 75.8932 67.7257 76.5245C64.4686 77.1046 61.2457 77.8895 58.0227 78.6232C52.924 79.7663 47.9787 81.3531 43.1699 83.3494C40.1174 84.6291 37.1332 86.0794 34.473 88.0928C33.3305 88.9629 32.6484 90.1744 31.8128 91.2663C31.1137 92.2048 30.3974 93.1261 29.3743 93.7574C28.1124 94.5252 26.7141 95.0201 25.2476 94.9518C23.4741 94.8494 22.2292 93.7404 21.4448 92.256C20.2 89.9014 20.0806 87.4273 21.0014 84.9192C21.7518 82.8887 23.0478 81.1996 24.6848 79.8005C26.3389 78.3843 28.0442 76.9852 29.8347 75.7396C33.5522 73.1291 37.5766 71.0304 41.6863 69.1024C44.9263 67.5838 48.2857 66.4236 51.6791 65.2975C52.6852 64.9563 52.5659 65.0928 52.3783 64.0861C52.2078 63.1818 52.0372 62.2775 51.8497 61.3732C51.7814 60.9978 51.9008 60.8101 52.2589 60.6395C53.6743 59.9229 55.0897 59.2233 56.4539 58.4043C59.4722 56.5787 61.7913 54.0364 63.7183 51.1017C64.0764 50.5557 64.3151 49.9414 64.6903 49.4125C64.8949 49.1054 65.2189 48.7641 65.5429 48.6447C68.6294 47.6892 71.3749 46.0683 73.984 44.1914C76.0815 42.6729 77.8549 40.8472 79.185 38.6291C79.3726 38.322 79.5943 38.0149 79.7478 37.6907C79.8842 37.3835 80.0547 37.4006 80.3105 37.503C81.8964 38.1684 83.4652 38.885 85.0682 39.4993C87.1145 40.2841 89.1779 41.0178 91.2412 41.7515C92.6566 42.2463 94.089 42.7582 95.5385 43.1506C98.0793 43.8502 100.654 44.4644 103.212 45.1128C104.031 45.3175 104.866 45.5735 105.702 45.727C108.976 46.3071 112.267 46.8702 115.541 47.3821C119.378 47.9963 123.266 48.0646 127.154 48.2522C130.855 48.4399 134.555 48.184 138.238 47.9963C140.54 47.8769 142.825 47.5186 145.128 47.2797C145.861 47.2114 146.594 47.0749 147.293 47.4674C148.129 47.9451 148.368 48.8494 147.839 49.6514C147.14 50.6751 146.151 51.3064 145.025 51.733C141.632 52.9785 138.187 54.0876 134.64 54.8042C134.214 54.8895 133.788 54.9407 133.361 55.0089C133.327 55.0601 133.31 55.1113 133.276 55.1625H133.208Z" fill="white"/>
<path d="M22.3827 21.1573C22.3316 21.0549 22.2975 20.9355 22.2292 20.8502C20.6433 18.9051 19.7907 16.6187 19.1086 14.23C18.6482 12.6432 18.6141 11.0223 18.9381 9.41842C19.1598 8.36056 19.7907 7.72925 20.865 7.60981C23.5423 7.31975 26.2196 7.08088 28.8968 6.82495C29.3231 6.79082 29.7665 6.72257 30.1928 6.65432C31.216 6.51783 32.2391 6.38133 33.2623 6.24483C34.9846 6.02302 36.3488 5.18696 37.5425 3.95848C39.1796 2.25225 41.2429 1.2797 43.545 0.699576C47.092 -0.187664 50.6901 -0.0682279 54.2711 0.187707C56.1469 0.324205 58.0398 0.511891 59.8985 0.836075C62.4394 1.27969 64.9631 1.85981 67.1459 3.31011C68.0667 3.92435 68.9193 4.6751 69.7038 5.47702C71.8353 7.59275 73.353 10.1009 73.9499 13.0698C74.2057 14.3324 74.325 15.612 74.5126 16.8917C74.7855 18.9392 75.0924 21.0037 75.3141 23.0512C75.3994 23.802 75.3823 24.5868 75.28 25.3376C75.1777 26.1224 74.632 26.6172 73.8817 26.8902C72.3128 27.4703 70.6928 27.3509 69.124 27.0438C66.5149 26.549 64.1617 25.4399 62.2518 23.529C60.069 21.362 58.8071 18.7003 58.2273 15.7144C58.0057 14.6054 57.9545 13.4622 57.8181 12.3361C57.801 12.1825 57.7669 12.0119 57.7158 11.7048C57.5111 11.9436 57.3577 12.0631 57.2724 12.2166C56.6073 13.3257 56.3857 14.5712 56.3345 15.8168C56.2322 19.1951 57.0507 22.3175 58.8754 25.2011C60.3419 27.5215 62.4052 29.0401 64.8438 30.0468C67.2823 31.0534 69.789 31.1046 72.2958 30.2174C72.6198 30.0979 72.9608 29.9956 73.3019 29.8761C73.5406 29.7908 73.7111 29.8249 73.8135 30.0809C74.2398 31.1558 74.5808 32.2649 74.4956 33.4422C74.4274 34.3294 74.1033 35.1313 73.4895 35.7968C71.6137 37.8613 69.2263 39.158 66.7196 40.3012C64.8438 41.1543 62.968 42.0074 60.9217 42.3999C59.2676 42.7241 57.5964 42.9629 55.9082 43.1677C53.248 43.4919 50.6048 43.1336 47.9787 42.707C47.6547 42.6558 47.5012 42.5022 47.3989 42.1951C46.6827 39.7552 45.8301 37.3494 44.5852 35.1313C43.1528 32.572 41.4476 30.2003 39.0772 28.3746C37.6107 27.2485 36.0419 26.3613 34.2684 25.8494C32.7337 25.4058 32.8019 25.4399 32.2903 26.8732C31.6764 28.5965 30.9772 30.3027 30.244 31.9919C28.948 35.046 27.7202 38.1172 27.021 41.3761C26.3901 44.3279 26.356 47.3138 27.0381 50.2485C27.5838 52.6031 28.9139 54.5312 30.7556 56.135C33.2282 58.2849 36.1442 59.2063 39.333 59.5304C42.9993 59.9058 46.4951 59.3086 49.9057 57.9436C50.9629 57.5171 50.9629 57.5341 50.656 56.4251C50.1956 54.8042 49.7181 53.1833 49.2577 51.5623C49.1042 51.0334 49.1553 50.9822 49.7351 50.9822C52.9922 50.9993 56.2322 50.931 59.421 50.1973C59.728 50.1291 60.069 49.9414 60.2396 49.7025C60.7341 48.9518 61.1604 48.1499 61.5526 47.3479C61.6549 47.1432 61.6379 46.7849 61.5356 46.5631C60.9728 45.3517 61.5697 44.3962 62.3882 43.8672C63.1556 43.3554 64.3492 43.6625 64.929 44.4644C65.7135 45.5393 65.3724 46.9726 64.1276 47.5186C63.6671 47.7233 63.4284 48.0304 63.2238 48.4399C61.9278 51.0505 60.1202 53.2515 57.9886 55.2307C54.5951 58.4043 50.5537 60.2471 46.0688 61.1855C42.1297 62.0045 38.1905 61.7656 34.3878 60.4859C32.1027 59.7181 30.1417 58.4214 28.4535 56.664C26.1684 54.2923 24.9577 51.4941 24.753 48.2352C24.6166 46 24.5143 43.7649 24.9918 41.5809C25.4351 39.5846 25.9638 37.5712 26.68 35.6603C27.652 33.0156 28.8457 30.4392 29.9029 27.8287C30.1758 27.1462 30.3122 26.4125 30.5168 25.7129C30.6362 25.2864 30.4657 25.0816 30.0735 24.9793C29.272 24.7745 28.4364 24.6209 27.652 24.3138C26.6118 23.9214 25.5886 23.4266 24.6166 22.9147C24.1562 22.6758 23.7981 22.6247 23.3718 22.8976C21.6836 23.9384 20.4046 25.3887 19.2791 26.9755C18.2048 28.477 17.4204 30.1662 16.977 31.9407C16.5678 33.5445 16.2949 35.1825 16.1415 36.8376C15.7492 41.0008 15.8857 45.164 16.1244 49.3272C16.2779 51.9718 16.5166 54.5994 16.6019 57.2441C16.653 58.8138 16.5166 60.3836 16.4484 61.9533C16.4313 62.4481 16.3972 62.8917 16.9259 63.2159C17.1135 63.3353 17.2669 63.7107 17.2328 63.9496C17.1817 64.4444 17.0452 64.9221 16.8747 65.3828C16.3972 66.6454 15.8686 67.891 15.3911 69.1706C15.2206 69.6313 14.9478 69.8531 14.4532 69.9214C13.8223 70.0067 13.737 70.1091 13.8735 70.7063C14.2316 72.4466 14.6067 74.1699 15.016 75.8932C15.3059 77.1387 15.357 78.4184 15.0501 79.6298C14.4873 81.8821 13.4642 83.9296 11.6737 85.4993C9.18398 87.6833 6.23387 86.9496 4.76735 84.1514C4.05113 82.7693 3.96587 81.2508 4.01703 79.7493C4.08524 77.6165 4.42629 75.5349 5.19366 73.5215C5.94398 71.5423 7.27408 70.1603 9.28629 69.4778C9.90019 69.273 10.5482 69.1195 11.1621 68.8977C11.2985 68.8465 11.4861 68.6417 11.469 68.5564C11.2815 67.9251 11.5202 67.345 11.7248 66.799C12.1852 65.5023 12.6968 64.2055 13.2425 62.9258C13.3619 62.6699 13.6859 62.431 13.9587 62.3116C14.3339 62.1751 14.5044 61.9533 14.5385 61.595C14.5726 61.2196 14.6238 60.8272 14.6238 60.4518C14.709 56.5104 14.2827 52.6031 14.0781 48.6788C13.8052 43.7307 13.6518 38.7827 14.4873 33.8517C15.0501 30.6269 16.312 27.7263 18.256 25.0987C19.3815 23.5801 20.6945 22.2663 22.2975 21.2597C22.3316 21.2426 22.3657 21.1914 22.4168 21.1402L22.3827 21.1573ZM5.99513 79.5616C5.96103 80.8583 5.96103 81.9162 6.37029 82.9399C6.91598 84.3049 7.99029 84.9533 9.16692 84.5609C9.6444 84.4073 10.1389 84.1343 10.5141 83.8101C12.6457 81.9162 13.4812 79.5104 13.0379 76.7293C12.7821 75.1254 12.3217 73.5727 12.0318 71.9689C11.793 70.638 11.8612 70.8598 10.6505 71.1328C8.50187 71.6276 7.29113 73.0097 6.69429 75.0742C6.25092 76.6098 6.06335 78.1796 5.97808 79.5616H5.99513Z" fill="white"/>
<path d="M49.7863 115C49.9909 114.591 50.1103 114.283 50.2808 113.993C52.0884 111.007 53.3332 107.783 54.1347 104.404C54.9362 101.009 55.4989 97.5623 55.7206 94.0646C55.9252 91.0445 56.0105 88.0245 55.9764 84.9874C55.9764 84.4926 55.9082 83.9807 55.9082 83.4859C55.9082 83.3153 56.0617 83.0423 56.181 83.0082C58.7901 82.2745 61.3821 81.5067 64.0082 80.8583C66.1739 80.3294 68.3566 79.954 70.5393 79.5104C70.6587 79.4933 70.7781 79.4763 70.8804 79.4763C71.5455 79.4422 71.5284 79.4763 71.4943 80.1246C71.409 81.5408 71.392 82.9741 71.2726 84.3902C71.0509 86.9666 70.761 89.5431 70.5393 92.1195C70.2153 95.7196 69.5503 99.2686 68.7829 102.8C67.8962 106.861 66.4808 110.769 64.9802 114.625C64.8608 114.915 64.7073 115.017 64.4174 115C63.9059 115 63.3772 115 62.8657 115C58.7219 115 54.561 115 50.4172 115C50.2297 115 50.0591 115 49.7522 115H49.7863Z" fill="white"/>
<path d="M100.705 78.9815C100.91 78.9815 101.132 78.9644 101.336 78.9815C105.241 79.5275 109.078 80.2782 112.83 81.4896C115.234 82.2745 117.622 83.0935 119.907 84.1514C121.015 84.6632 122.107 85.2263 123.198 85.7382C124.579 86.3865 125.568 87.4444 126.421 88.6729C128.552 91.7441 130.07 95.0883 131.179 98.6373C132.577 103.073 133.105 107.646 133.037 112.304C133.037 112.987 133.037 113.004 132.321 113.004C127.632 113.004 122.942 113.004 118.253 113.004C117.519 113.004 117.536 113.004 117.656 112.27C117.877 110.922 118.15 109.574 118.236 108.209C118.389 105.53 117.792 102.954 117.008 100.429C115.405 95.1395 112.387 90.6692 108.805 86.5401C106.589 83.9807 104.031 81.7626 101.353 79.681C101.115 79.4933 100.842 79.3227 100.586 79.1521C100.603 79.1009 100.62 79.0497 100.637 78.9985L100.705 78.9815Z" fill="white"/>
</g>
<defs>
<filter id="filter0_d_91_47" x="0.00488281" y="0.00170898" width="170.012" height="123" filterUnits="userSpaceOnUse" color-interpolation-filters="sRGB">
<feFlood flood-opacity="0" result="BackgroundImageFix"/>
<feColorMatrix in="SourceAlpha" type="matrix" values="0 0 0 0 0 0 0 0 0 0 0 0 0 0 0 0 0 0 127 0" result="hardAlpha"/>
<feOffset dy="4"/>
<feGaussianBlur stdDeviation="2"/>
<feComposite in2="hardAlpha" operator="out"/>
<feColorMatrix type="matrix" values="0 0 0 0 0 0 0 0 0 0 0 0 0 0 0 0 0 0 0.13 0"/>
<feBlend mode="normal" in2="BackgroundImageFix" result="effect1_dropShadow_91_47"/>
<feBlend mode="normal" in="SourceGraphic" in2="effect1_dropShadow_91_47" result="shape"/>
</filter>
</defs>
</svg>
