<svg width="75" height="75" viewBox="0 0 75 75" fill="none" xmlns="http://www.w3.org/2000/svg">
<g filter="url(#filter0_d_91_50)">
<path fill-rule="evenodd" clip-rule="evenodd" d="M38.8278 11.2769C41.9627 8.13703 47.4683 5.961 52.9349 5.17724C55.3583 4.79688 57.8235 4.7641 60.2562 5.07988C62.4127 5.40118 63.7318 6.03403 64.3452 6.65227C64.9634 7.26565 65.5962 8.5849 65.9175 10.7415C66.2291 12.8201 66.2047 15.3661 65.8202 18.063C65.0413 23.5299 62.8605 29.0357 59.7207 32.1707L38.0782 53.8191L32.4996 48.2403C32.2736 48.0139 32.0053 47.8344 31.7099 47.7118C31.4145 47.5892 31.0979 47.526 30.7781 47.5257C30.4583 47.5255 30.1415 47.5883 29.846 47.7104C29.5504 47.8326 29.2818 48.0118 29.0556 48.2378C28.5985 48.6942 28.3415 49.3135 28.3411 49.9594C28.3408 50.2792 28.4036 50.5959 28.5258 50.8915C28.6479 51.1871 28.8271 51.4557 29.0531 51.682L36.3549 58.9841C36.581 59.2108 36.8496 59.3906 37.1453 59.5133C37.441 59.636 37.758 59.6992 38.0782 59.6992C38.3983 59.6992 38.7153 59.636 39.011 59.5133C39.3067 59.3906 39.5753 59.2108 39.8014 58.9841L42.4641 56.3164L48.1595 65.814C48.3494 66.132 48.6094 66.4025 48.9197 66.6048C49.23 66.8072 49.5823 66.936 49.9499 66.9815C50.3175 67.0271 50.6906 66.9881 51.0409 66.8676C51.3912 66.7471 51.7093 66.5483 51.9711 66.2862L61.7068 56.5501C61.9742 56.2823 62.1754 55.9559 62.2945 55.5967C62.4137 55.2376 62.4475 54.8556 62.3932 54.4811L60.1296 38.6501L63.1672 35.6173C67.3292 31.4503 69.7777 24.7859 70.6394 18.7494C71.0775 15.6972 71.1262 12.6643 70.7318 10.0161C70.3424 7.44577 69.4857 4.90463 67.7917 3.20567C66.0928 1.51158 63.5517 0.649931 60.9766 0.265353C58.0775 -0.118527 55.1384 -0.0857414 52.2485 0.362715C46.2075 1.21463 39.5385 3.66327 35.3814 7.82548L32.3487 10.8632L16.5183 8.5995C16.1439 8.54522 15.7619 8.579 15.4028 8.69815C15.0437 8.8173 14.7173 9.01855 14.4495 9.2859L4.71375 19.0221C4.45171 19.2838 4.25287 19.602 4.13238 19.9523C4.01189 20.3025 3.97293 20.6757 4.01846 21.0433C4.064 21.4109 4.19284 21.7633 4.39515 22.0735C4.59747 22.3838 4.86793 22.6438 5.18593 22.8338L14.6783 28.5294L12.0156 31.1922C11.7889 31.4183 11.6091 31.6869 11.4864 31.9827C11.3637 32.2784 11.3005 32.5954 11.3005 32.9156C11.3005 33.2357 11.3637 33.5527 11.4864 33.8484C11.6091 34.1441 11.7889 34.4127 12.0156 34.6388L19.3174 41.941C19.5437 42.1673 19.8123 42.3468 20.108 42.4693C20.4037 42.5917 20.7206 42.6548 21.0406 42.6548C21.3606 42.6548 21.6775 42.5917 21.9732 42.4693C22.2689 42.3468 22.5375 42.1673 22.7638 41.941C22.9901 41.7146 23.1696 41.446 23.2921 41.1503C23.4146 40.8546 23.4776 40.5377 23.4776 40.2177C23.4776 39.8976 23.4146 39.5807 23.2921 39.285C23.1696 38.9893 22.9901 38.7207 22.7638 38.4944L17.1804 32.9204L38.8278 11.2769ZM50.7298 60.6392L46.0079 52.7676L55.8264 42.9535L57.4036 53.9651L50.7298 60.6392ZM18.2318 24.9854L28.0455 15.1714L17.0343 13.5941L10.3654 20.2634L18.2318 24.9854ZM13.0232 46.8139C13.2495 46.5879 13.4291 46.3196 13.5517 46.0242C13.6743 45.7288 13.7375 45.4121 13.7377 45.0923C13.7379 44.7725 13.6752 44.4558 13.553 44.1602C13.4308 43.8647 13.2516 43.596 13.0256 43.3697C12.7997 43.1434 12.5313 42.9639 12.236 42.8413C11.9406 42.7187 11.6239 42.6554 11.3041 42.6552C10.9843 42.655 10.6676 42.7178 10.3721 42.8399C10.0765 42.9621 9.80792 43.1413 9.58162 43.3673L4.71375 48.2354C4.25737 48.6924 4.00123 49.3121 4.00169 49.958C4.00214 50.6039 4.25916 51.2231 4.71618 51.6796C5.17321 52.136 5.79282 52.3921 6.4387 52.3916C7.08458 52.3912 7.70382 52.1342 8.1602 51.6771L13.0232 46.8139ZM20.325 54.116C20.5575 53.8915 20.7429 53.6229 20.8705 53.3259C20.998 53.029 21.0652 52.7096 21.068 52.3864C21.0708 52.0632 21.0092 51.7427 20.8868 51.4436C20.7644 51.1444 20.5837 50.8727 20.3552 50.6441C20.1267 50.4156 19.8549 50.2348 19.5558 50.1125C19.2567 49.9901 18.9362 49.9285 18.613 49.9313C18.2898 49.9341 17.9704 50.0013 17.6735 50.1288C17.3765 50.2564 17.108 50.4418 16.8834 50.6743L7.14769 60.4104C6.6913 60.8675 6.43517 61.4871 6.43562 62.133C6.43608 62.7789 6.69309 63.3982 7.15012 63.8546C7.60715 64.311 8.22676 64.5672 8.87264 64.5667C9.51851 64.5662 10.1378 64.3092 10.5941 63.8522L20.325 54.116ZM27.6268 61.4181C27.8531 61.1922 28.0327 60.9238 28.1553 60.6284C28.2779 60.333 28.3411 60.0164 28.3413 59.6966C28.3416 59.3767 28.2788 59.06 28.1566 58.7644C28.0344 58.4689 27.8552 58.2003 27.6293 57.974C27.4033 57.7477 27.1349 57.5681 26.8396 57.4455C26.5442 57.3229 26.2276 57.2597 25.9078 57.2594C25.588 57.2592 25.2712 57.322 24.9757 57.4442C24.6801 57.5664 24.4115 57.7456 24.1852 57.9715L19.3174 62.8396C18.861 63.2967 18.6049 63.9163 18.6053 64.5622C18.6058 65.2081 18.8628 65.8274 19.3198 66.2838C19.7768 66.7402 20.3964 66.9963 21.0423 66.9959C21.6882 66.9954 22.3074 66.7384 22.7638 66.2813L27.6268 61.4181ZM47.8139 29.2645C48.6123 29.2645 49.403 29.1072 50.1406 28.8017C50.8783 28.4961 51.5485 28.0482 52.1131 27.4836C52.6777 26.919 53.1255 26.2488 53.4311 25.5111C53.7366 24.7734 53.8939 23.9827 53.8939 23.1843C53.8939 22.3858 53.7366 21.5951 53.4311 20.8575C53.1255 20.1198 52.6777 19.4495 52.1131 18.8849C51.5485 18.3203 50.8783 17.8724 50.1406 17.5669C49.403 17.2613 48.6123 17.104 47.8139 17.104C46.2014 17.104 44.6549 17.7446 43.5147 18.8849C42.3745 20.0252 41.7339 21.5717 41.7339 23.1843C41.7339 24.7968 42.3745 26.3434 43.5147 27.4836C44.6549 28.6239 46.2014 29.2645 47.8139 29.2645Z" fill="white"/>
</g>
<defs>
<filter id="filter0_d_91_50" x="0" y="0" width="75" height="75" filterUnits="userSpaceOnUse" color-interpolation-filters="sRGB">
<feFlood flood-opacity="0" result="BackgroundImageFix"/>
<feColorMatrix in="SourceAlpha" type="matrix" values="0 0 0 0 0 0 0 0 0 0 0 0 0 0 0 0 0 0 127 0" result="hardAlpha"/>
<feOffset dy="4"/>
<feGaussianBlur stdDeviation="2"/>
<feComposite in2="hardAlpha" operator="out"/>
<feColorMatrix type="matrix" values="0 0 0 0 0 0 0 0 0 0 0 0 0 0 0 0 0 0 0.13 0"/>
<feBlend mode="normal" in2="BackgroundImageFix" result="effect1_dropShadow_91_50"/>
<feBlend mode="normal" in="SourceGraphic" in2="effect1_dropShadow_91_50" result="shape"/>
</filter>
</defs>
</svg>
