<svg width="176" height="200" viewBox="0 0 176 200" fill="none" xmlns="http://www.w3.org/2000/svg">
<path d="M127.016 26.5183C128.875 24.5435 128.351 21.8359 127.489 18.852C126.897 16.7991 126.945 14.4249 127.252 12.2744C127.754 8.7238 130.099 6.70748 133.662 6.1753C137.717 5.56854 141.34 6.74358 144.586 9.08258C149.845 12.8734 153.409 17.902 155.103 24.1775C156.592 29.6825 155.297 34.317 150.804 38.0453C146.683 41.4663 142.016 43.3638 136.69 43.7857C134.317 43.9734 132.335 43.2153 130.526 41.752C127.133 39.0137 124.25 32.2738 127.016 26.5183Z" fill="black"/>
<path d="M45.181 99.6173C44.657 100.666 44.1958 101.755 43.5907 102.757C40.9185 107.186 37.1228 108.734 32.0421 107.627C27.7266 106.689 24.5201 104.429 22.7549 100.299C22.0557 98.6579 21.0413 97.595 19.1784 96.9481C16.9357 96.1648 14.7373 94.8948 12.8942 93.3752C9.33965 90.4522 9.0286 86.5295 11.6017 82.7073C13.1989 80.3372 15.3133 78.5628 17.9415 77.5178C25.7184 74.4395 33.3848 74.6622 40.7802 78.7328C43.9141 80.4592 45.8658 83.1368 46.4745 86.7586C47.2226 91.1743 46.8336 95.4441 45.181 99.6173Z" fill="black"/>
<path d="M32.122 182.721C29.3747 188.931 24.9169 193.198 18.7024 195.604C15.4572 196.859 12.5263 195.802 9.97121 193.837C5.85868 190.671 3.66505 186.563 4.6713 181.224C5.03578 179.288 4.76403 177.717 3.38486 176.14C1.68677 174.202 0.667647 171.809 0.179668 169.244C-0.551127 165.375 0.958542 162.402 4.50575 160.656C7.79669 159.036 11.2424 158.87 14.7107 159.791C21.4371 161.573 26.7778 165.389 30.583 171.224C32.4184 174.033 33.4468 177.118 32.7768 180.538C32.6241 181.315 32.3265 182.063 32.1244 182.715L32.122 182.721Z" fill="black"/>
<path d="M131.821 109.694C135.796 111.434 139.301 113.748 142.13 117.03C145.525 120.962 146.426 125.296 144.541 130.251C142.85 134.7 140.13 138.265 136.443 141.24C131.662 145.102 127.259 144.044 123.281 141.202C119.791 138.709 117.797 135.333 117.94 130.93C118.005 128.925 117.464 127.368 115.821 126.006C113.767 124.303 112.326 122.041 111.464 119.484C110.257 115.901 111.185 112.96 114.22 110.713C117.79 108.068 121.85 107.556 126.099 108.268C128.032 108.595 129.922 109.21 131.83 109.69L131.821 109.694Z" fill="black"/>
<path d="M161.757 24.8362C160.545 24.0715 159.626 23.6286 158.87 22.9879C156.672 21.1284 156.653 18.671 158.74 16.6797C161.855 13.7119 167.434 12.8506 171.323 14.9333C172.723 15.6878 174.084 16.7389 175.088 17.9539C176.562 19.739 176.19 21.658 174.401 23.1497C172.521 24.7115 170.281 25.513 167.885 25.4924C165.729 25.4749 163.579 25.0481 161.757 24.8362Z" fill="black"/>
<path d="M35.0746 65.4404C37.0078 61.0447 39.786 58.6745 43.7629 57.8522C47.4686 57.0856 49.6137 59.0801 49.0907 62.828C48.3579 68.0338 45.1797 71.481 40.5148 73.479C37.1693 74.914 34.4816 72.9599 34.5175 69.3098C34.5319 67.7887 34.9503 66.2716 35.0807 65.4428L35.0746 65.4404Z" fill="black"/>
<path d="M45.7723 157.629C45.9051 157.689 46.2529 157.834 46.5861 158.016C49.1347 159.389 49.8374 161.898 47.9549 164.091C46.7065 165.549 45.1152 166.884 43.4109 167.735C40.6729 169.091 37.6564 169.556 34.578 168.889C30.8977 168.089 29.7003 165.107 31.7816 161.949C34.7238 157.485 40.6327 155.597 45.7674 157.641L45.7723 157.629Z" fill="black"/>
<path d="M141.459 107.553C143.565 102.331 150.156 99.2294 155.299 101.036C158.351 102.112 159.208 104.142 157.796 107.048C156.79 109.112 155.213 110.717 153.183 111.708C151.462 112.545 149.589 113.087 147.745 113.626C146.964 113.856 146.074 113.822 145.248 113.75C141.625 113.435 140.102 110.913 141.459 107.553Z" fill="black"/>
<path d="M169.583 30.3632C170.63 31.1123 171.761 31.7742 172.696 32.6425C174.002 33.8494 174.058 35.3912 173.038 36.847C171.671 38.7975 169.669 39.8423 167.485 40.5591C165.063 41.3524 162.599 41.8589 160.113 40.7587C159.767 40.6074 159.418 40.4476 159.117 40.2215C157.626 39.1044 156.142 37.7201 156.527 35.7852C157.052 33.1599 158.236 30.6828 161.179 29.8835C163.986 29.1225 166.756 29.5113 169.577 30.3608L169.583 30.3632Z" fill="black"/>
<path d="M50.8718 178.564C49.1043 181.541 46.1631 184.052 41.9875 184.91C40.4537 185.224 38.9696 184.841 37.6354 184.028C35.2694 182.571 34.6833 180.485 35.8864 177.191C36.2472 176.212 36.8693 175.131 37.699 174.566C41.0925 172.241 44.8757 171.547 48.8518 172.784C51.48 173.6 52.1919 175.388 50.8694 178.57L50.8718 178.564Z" fill="black"/>
<path d="M58.3229 79.1673C57.8164 79.8682 57.0124 81.3175 55.8982 82.4732C54.0126 84.4236 50.7481 84.8681 48.8113 83.6735C47.0282 82.5754 45.5281 78.3869 46.4458 76.2939C48.1227 72.4712 50.8938 69.7075 55.0603 68.6409C57.3509 68.0514 58.919 69.0996 59.4358 71.4138C59.9836 73.8468 59.3806 76.1499 58.3204 79.1734L58.3229 79.1673Z" fill="black"/>
<path d="M162.718 121.506C161.545 124.044 159.49 126.332 156.656 127.821C155.691 128.333 154.505 128.615 153.407 128.656C149.981 128.773 148.041 126.817 147.93 123.429C147.847 120.811 148.808 118.806 151.097 117.435C153.566 115.95 156.189 115.024 159.092 115.167C162.937 115.358 164.322 117.598 162.71 121.51L162.718 121.506Z" fill="black"/>
<path d="M15.3934 67.9141C17.1562 64.5373 20.1512 61.9619 24.6818 61.6078C26.6126 61.4579 28.6218 61.7012 29.6029 63.6528C30.5581 65.5444 29.6038 67.282 28.3872 68.7309C26.5245 70.9459 24.1457 72.5443 21.4572 73.5796C20.4834 73.9531 19.3099 74.0414 18.2587 73.9296C15.0596 73.5835 13.8753 71.4092 15.391 67.9202L15.3934 67.9141Z" fill="black"/>
<path d="M135.818 96.3171C137.621 97.1675 139.343 98.0991 139.434 100.23C139.519 102.359 137.946 103.56 136.233 104.343C133.327 105.675 130.251 106.237 127.044 105.803C126.51 105.733 125.978 105.55 125.494 105.316C122.014 103.637 121.675 100.555 124.752 98.2392C128.13 95.7023 131.842 94.9381 135.827 96.3134L135.818 96.3171Z" fill="black"/>
<path d="M26.4844 149.436C28.0611 150.034 29.4212 150.907 30.3262 152.353C31.2989 153.896 31.0149 155.182 29.8338 156.56C27.5499 159.226 18.0244 159.366 15.6176 156.813C13.436 154.499 13.4837 152.089 16.2173 150.475C19.4534 148.564 22.8935 148.09 26.4844 149.436Z" fill="black"/>
<path d="M151.089 9.81638C148.822 9.09439 146.98 8.14352 145.841 6.2143C144.152 3.3425 145.164 0.903718 148.416 0.276601C152.301 -0.475657 155.863 0.263181 158.819 3.02688C159.51 3.67011 160.116 4.47163 160.565 5.31025C162.044 8.08445 160.96 10.2746 157.852 10.8806C155.391 11.3601 153.115 10.6627 151.093 9.82495L151.089 9.81638Z" fill="black"/>
<path d="M41.0947 192.807C38.9621 196.059 35.8886 199.135 31.2279 199.942C30.0118 200.155 28.5583 199.749 27.3833 199.233C25.6994 198.494 25.2237 196.899 26.2031 195.349C28.0652 192.402 30.3272 189.792 33.9135 188.914C35.4888 188.531 37.1359 188.325 38.7576 188.272C41.4178 188.185 42.3708 189.706 41.0947 192.807Z" fill="black"/>
<path d="M155.697 136.566C153.867 140.094 151.697 142.812 148.452 144.514C146.799 145.378 145.05 145.699 143.239 144.938C141.502 144.206 140.914 142.986 141.437 141.205C142.857 136.364 148.614 132.087 153.726 132.077C155.028 132.075 155.96 132.793 156.006 134.09C156.039 135.026 155.779 135.966 155.697 136.566Z" fill="black"/>
<path d="M58.4588 96.8399C57.3773 98.3068 56.3561 99.819 55.1824 101.214C54.7247 101.757 53.9632 102.115 53.2739 102.381C50.3549 103.495 48.4348 102.116 48.4807 99.0306C48.5544 93.8544 50.7046 89.8431 55.1282 87.0747C57.1837 85.7883 58.8219 86.4099 59.307 88.8038C59.8653 91.5322 59.1208 94.1199 58.4625 96.8484L58.4588 96.8399Z" fill="black"/>
<path d="M145.105 51.677C144.633 51.3618 144.065 51.0725 143.6 50.6678C141.647 48.9769 141.674 47.0844 143.717 45.5087C148.144 42.0883 152.958 41.3782 158.14 43.626C159.598 44.2541 160.031 45.5267 159.257 46.917C159.036 47.3121 158.772 47.7257 158.429 48.0157C155.076 50.8823 151.251 52.4324 146.772 52.0473C146.237 51.9981 145.711 51.8179 145.103 51.6831L145.105 51.677Z" fill="black"/>
</svg>
