<svg width="37" height="37" viewBox="0 0 37 37" fill="none" xmlns="http://www.w3.org/2000/svg">
<g filter="url(#filter0_d_15_633)">
<path d="M26 26V12.1841H22.0834C22.5129 11.4422 22.6511 10.567 22.4711 9.72888C22.2911 8.89072 21.8058 8.14943 21.1095 7.64915C20.4133 7.14887 19.5558 6.92535 18.7039 7.02205C17.8519 7.11875 17.0664 7.52876 16.5 8.17236C15.9336 7.52876 15.1481 7.11875 14.2961 7.02205C13.4442 6.92535 12.5867 7.14887 11.8905 7.64915C11.1942 8.14943 10.7089 8.89072 10.5289 9.72888C10.3489 10.567 10.4871 11.4422 10.9166 12.1841H7V26H26ZM17.3636 10.4572C17.3636 9.99914 17.5456 9.55987 17.8695 9.236C18.1935 8.91213 18.6328 8.73018 19.0909 8.73018C19.549 8.73018 19.9883 8.91213 20.3123 9.236C20.6362 9.55987 20.8182 9.99914 20.8182 10.4572C20.8182 10.9152 20.6362 11.3544 20.3123 11.6783C19.9883 12.0022 19.549 12.1841 19.0909 12.1841C18.6328 12.1841 18.1935 12.0022 17.8695 11.6783C17.5456 11.3544 17.3636 10.9152 17.3636 10.4572ZM18.5848 13.9111H24.2727V19.0921H8.72727V13.9111H14.4152L11.8243 16.5016L13.0455 17.7226L16.5 14.2686L19.9545 17.7226L21.1757 16.5016L18.5848 13.9111ZM8.72727 20.8191H24.2727V24.273H8.72727V20.8191ZM15.6364 10.4572C15.6364 10.9152 15.4544 11.3544 15.1305 11.6783C14.8065 12.0022 14.3672 12.1841 13.9091 12.1841C13.451 12.1841 13.0117 12.0022 12.6877 11.6783C12.3638 11.3544 12.1818 10.9152 12.1818 10.4572C12.1818 9.99914 12.3638 9.55987 12.6877 9.236C13.0117 8.91213 13.451 8.73018 13.9091 8.73018C14.3672 8.73018 14.8065 8.91213 15.1305 9.236C15.4544 9.55987 15.6364 9.99914 15.6364 10.4572Z" fill="#81D84B"/>
</g>
<defs>
<filter id="filter0_d_15_633" x="0.8" y="0.8" width="35.4" height="35.4" filterUnits="userSpaceOnUse" color-interpolation-filters="sRGB">
<feFlood flood-opacity="0" result="BackgroundImageFix"/>
<feColorMatrix in="SourceAlpha" type="matrix" values="0 0 0 0 0 0 0 0 0 0 0 0 0 0 0 0 0 0 127 0" result="hardAlpha"/>
<feOffset dx="2" dy="2"/>
<feGaussianBlur stdDeviation="4.1"/>
<feComposite in2="hardAlpha" operator="out"/>
<feColorMatrix type="matrix" values="0 0 0 0 0.50498 0 0 0 0 0.846154 0 0 0 0 0.292899 0 0 0 0.39 0"/>
<feBlend mode="normal" in2="BackgroundImageFix" result="effect1_dropShadow_15_633"/>
<feBlend mode="normal" in="SourceGraphic" in2="effect1_dropShadow_15_633" result="shape"/>
</filter>
</defs>
</svg>
