<svg width="21" height="21" viewBox="0 0 21 21" fill="none" xmlns="http://www.w3.org/2000/svg">
<path d="M6.21603 14.784C4.00736 12.571 2.30881 9.90226 1.23917 6.96435C0.650691 5.35811 1.18987 3.59372 2.39968 2.3839L3.14837 1.63624C3.34965 1.43456 3.58873 1.27455 3.85192 1.16537C4.11512 1.0562 4.39726 1 4.6822 1C4.96714 1 5.24928 1.0562 5.51248 1.16537C5.77567 1.27455 6.01475 1.43456 6.21603 1.63624L7.96913 3.38934C8.17082 3.59062 8.33083 3.8297 8.44 4.0929C8.54918 4.35609 8.60537 4.63824 8.60537 4.92318C8.60537 5.20812 8.54918 5.49026 8.44 5.75345C8.33083 6.01665 8.17082 6.25573 7.96913 6.45701L7.53779 6.88835C7.36514 7.06097 7.22818 7.26591 7.13473 7.49147C7.04129 7.71702 6.9932 7.95878 6.9932 8.20292C6.9932 8.44707 7.04129 8.68882 7.13473 8.91438C7.22818 9.13993 7.36514 9.34487 7.53779 9.51749L11.4815 13.4622C11.6541 13.6349 11.859 13.7718 12.0846 13.8653C12.3102 13.9587 12.5519 14.0068 12.7961 14.0068C13.0402 14.0068 13.282 13.9587 13.5075 13.8653C13.7331 13.7718 13.938 13.6349 14.1106 13.4622L14.543 13.0309C14.7443 12.8292 14.9834 12.6692 15.2466 12.56C15.5097 12.4508 15.7919 12.3946 16.0768 12.3946C16.3618 12.3946 16.6439 12.4508 16.9071 12.56C17.1703 12.6692 17.4094 12.8292 17.6107 13.0309L19.3638 14.784C19.5654 14.9853 19.7255 15.2243 19.8346 15.4875C19.9438 15.7507 20 16.0329 20 16.3178C20 16.6028 19.9438 16.8849 19.8346 17.1481C19.7255 17.4113 19.5654 17.6504 19.3638 17.8516L18.6161 18.5993C17.4063 19.8102 15.6419 20.3493 14.0357 19.7609C11.0978 18.6912 8.42899 16.9927 6.21603 14.784Z" stroke="black" stroke-width="1.75" stroke-linejoin="round"/>
</svg>
