<svg width="10" height="10" viewBox="0 0 10 10" fill="none" xmlns="http://www.w3.org/2000/svg">
<path d="M1.26366 9.79833C1.12121 9.93106 0.932815 10.0033 0.73815 9.99988C0.543485 9.99645 0.357752 9.91759 0.220081 9.77992C0.0824109 9.64225 0.00355171 9.45652 0.000117066 9.26185C-0.00331757 9.06719 0.0689405 8.87879 0.201669 8.73634L7.4352 1.50282H1.73454C1.53525 1.50282 1.34413 1.42365 1.20321 1.28273C1.0623 1.14182 0.98313 0.950697 0.98313 0.751411C0.98313 0.552126 1.0623 0.361004 1.20321 0.220088C1.34413 0.0791721 1.53525 5.72205e-06 1.73454 5.72205e-06H9.24859C9.34738 -0.00039196 9.44526 0.0187731 9.53661 0.0563936C9.62795 0.0940142 9.71095 0.149347 9.7808 0.219201C9.85065 0.289055 9.90599 0.372047 9.94361 0.463391C9.98123 0.554735 10.0004 0.652624 9.99999 0.751411V8.26546C9.99999 8.46475 9.92083 8.65587 9.77991 8.79679C9.639 8.9377 9.44787 9.01687 9.24859 9.01687C9.0493 9.01687 8.85818 8.9377 8.71727 8.79679C8.57635 8.65587 8.49718 8.46475 8.49718 8.26546V2.5648L1.26366 9.79833Z" fill="black"/>
</svg>
