<svg width="22" height="23" viewBox="0 0 22 23" fill="none" xmlns="http://www.w3.org/2000/svg">
<path d="M14.7188 9.02891L9.9635 13.7842C9.89849 13.8493 9.82129 13.901 9.73631 13.9362C9.65133 13.9714 9.56024 13.9895 9.46825 13.9895C9.37626 13.9895 9.28517 13.9714 9.20019 13.9362C9.11521 13.901 9.03801 13.8493 8.973 13.7842L6.53117 11.3459M20.25 10.0871V5.84625C20.25 4.87908 19.5115 4.07175 18.5548 3.92825C17.4453 3.76258 16.0115 3.48958 14.9638 3.08591C13.9057 2.67875 12.634 1.91108 11.7415 1.33008C11.409 1.11464 11.0212 1 10.625 1C10.2288 1 9.84103 1.11464 9.5085 1.33008C8.61717 1.91108 7.34433 2.67875 6.28617 3.08591C5.23733 3.48958 3.80467 3.76258 2.69517 3.92825C1.7385 4.07175 1 4.87908 1 5.84625V10.0871C0.999845 12.2292 1.58192 14.3312 2.684 16.1681C3.78607 18.005 5.36669 19.5079 7.25683 20.5159L7.52517 20.6594L9.81417 21.7631C10.0671 21.885 10.3442 21.9484 10.625 21.9484C10.9058 21.9484 11.1829 21.885 11.4358 21.7631L13.7237 20.6594L13.992 20.5159C15.8824 19.508 17.4632 18.0052 18.5655 16.1683C19.6678 14.3314 20.25 12.2294 20.25 10.0871Z" stroke="black" stroke-width="1.75" stroke-linecap="round" stroke-linejoin="round"/>
</svg>
