<svg width="24" height="24" viewBox="0 0 24 24" fill="none" xmlns="http://www.w3.org/2000/svg">
<path d="M4.20833 7.41667C5.05924 7.41667 5.87529 7.07865 6.47697 6.47697C7.07865 5.87529 7.41667 5.05924 7.41667 4.20833C7.41667 3.35743 7.07865 2.54138 6.47697 1.9397C5.87529 1.33802 5.05924 1 4.20833 1C3.35743 1 2.54138 1.33802 1.9397 1.9397C1.33802 2.54138 1 3.35743 1 4.20833C1 5.05924 1.33802 5.87529 1.9397 6.47697C2.54138 7.07865 3.35743 7.41667 4.20833 7.41667ZM4.20833 7.41667V15.875C4.20833 16.8033 4.57708 17.6935 5.23346 18.3499C5.88984 19.0063 6.78008 19.375 7.70833 19.375H12.767M19.375 16.1667C18.5241 16.1667 17.708 16.5047 17.1064 17.1064C16.5047 17.708 16.1667 18.5241 16.1667 19.375C16.1667 20.2259 16.5047 21.042 17.1064 21.6436C17.708 22.2453 18.5241 22.5833 19.375 22.5833C20.2259 22.5833 21.042 22.2453 21.6436 21.6436C22.2453 21.042 22.5833 20.2259 22.5833 19.375C22.5833 18.5241 22.2453 17.708 21.6436 17.1064C21.042 16.5047 20.2259 16.1667 19.375 16.1667ZM19.375 16.1667V7.70833C19.375 6.78008 19.0063 5.88984 18.3499 5.23346C17.6935 4.57708 16.8033 4.20833 15.875 4.20833H10.8163M12.767 19.375C12.7669 19.0656 12.644 18.7689 12.4252 18.5502L10.3333 16.4583M12.767 19.375C12.7669 19.6844 12.644 19.9811 12.4252 20.1998L10.3333 22.2917M10.8163 4.20833C10.8164 4.51773 10.9394 4.81442 11.1582 5.03317L13.25 7.125M10.8163 4.20833C10.8164 3.89894 10.9394 3.60224 11.1582 3.3835L13.25 1.29167" stroke="black" stroke-width="1.75" stroke-linecap="round" stroke-linejoin="round"/>
</svg>
