<svg width="21" height="27" viewBox="0 0 21 27" fill="none" xmlns="http://www.w3.org/2000/svg">
<path d="M20 5.72973C20 8.34189 15.7466 10.4595 10.5 10.4595C5.25338 10.4595 1 8.34189 1 5.72973M20 5.72973C20 3.11757 15.7466 1 10.5 1C5.25338 1 1 3.11757 1 5.72973M20 5.72973V13.5M1 5.72973V13.5M20 13.5V21.2703C20 23.8824 15.7466 26 10.5 26C5.25338 26 1 23.8824 1 21.2703V13.5M20 13.5C20 16.1122 15.7466 18.2297 10.5 18.2297C5.25338 18.2297 1 16.1122 1 13.5" stroke="black" stroke-width="1.75" stroke-linecap="round" stroke-linejoin="round"/>
</svg>
