<svg width="24" height="22" viewBox="0 0 24 22" fill="none" xmlns="http://www.w3.org/2000/svg">
<path d="M15.4923 1C16.0205 1.00153 16.5433 1.10716 17.0306 1.31085C17.5179 1.51453 17.9604 1.81229 18.3326 2.18708C18.7047 2.56187 18.9994 3.00635 19.1997 3.49511C19.4 3.98386 19.502 4.5073 19.4998 5.0355C19.4998 5.90933 19.2245 6.71783 18.7543 7.37933C18.386 7.90208 17.8974 8.32862 17.3297 8.62303C16.762 8.91743 16.1318 9.07107 15.4923 9.071M19.5197 12.0682C21.3117 13.0715 22.5857 15.2917 22.5833 17.17V20.25M13.334 5.0355C13.334 5.90933 13.0575 6.71783 12.5873 7.37933C12.219 7.90208 11.7304 8.32862 11.1627 8.62303C10.595 8.91743 9.96483 9.07107 9.32533 9.071C7.111 9.071 5.31667 7.26267 5.31667 5.03433C5.31667 2.806 7.111 1 9.32533 1C9.85363 1.00138 10.3765 1.10689 10.864 1.31051C11.3514 1.51413 11.794 1.81186 12.1663 2.18667C12.5386 2.56148 12.8334 3.00601 13.0338 3.49484C13.2341 3.98367 13.3361 4.50721 13.334 5.0355ZM1 17.7498C1 14.6267 5.13583 12.1802 9.32533 12.1802C10.996 12.1802 12.6585 12.5687 14.0538 13.2348C16.1573 14.2382 17.6518 15.8715 17.6495 17.7498V19.0833C17.6495 19.3928 17.5266 19.6895 17.3078 19.9083C17.089 20.1271 16.7923 20.25 16.4828 20.25H2.16667C1.85725 20.25 1.5605 20.1271 1.34171 19.9083C1.12292 19.6895 1 19.3928 1 19.0833V17.7498Z" stroke="black" stroke-width="1.75" stroke-linecap="round" stroke-linejoin="round"/>
</svg>
