<svg width="483" height="483" viewBox="0 0 483 483" fill="none" xmlns="http://www.w3.org/2000/svg">
<path d="M0.64809 223.335C3.77131 180.027 18.242 137.428 44.1212 100.945C45.4041 99.1283 46.7175 97.3343 48.0539 95.5556C50.0011 92.9524 51.5437 92.7615 53.8727 94.7388C65.5943 104.663 77.3465 114.542 89.0987 124.435C97.1549 131.222 105.135 138.1 113.328 144.711C115.902 146.788 115.994 148.116 114.069 150.811C96.9258 174.767 87.3576 201.593 85.4257 230.908C83.7915 255.757 87.8464 279.834 97.9033 302.737C113.046 337.227 137.459 363.115 171.02 380.116C195.808 392.674 222.344 398.193 250.055 396.262C281.929 394.04 310.771 383.23 336.055 363.427C340.278 360.122 340.461 360.488 343.554 364.061C350.785 372.398 358.544 380.284 366.081 388.368C376.382 399.422 386.637 410.514 396.992 421.515C398.756 423.393 398.542 424.47 396.61 426.073C374.015 444.898 348.96 459.411 321.24 469.297C260.891 490.817 192.364 486.763 134.847 458.693C101.874 442.6 74.0706 420.057 51.3451 391.292C13.3243 343.174 -3.63584 282.583 0.64809 223.335Z" fill="#F7931E"/>
<path d="M482.281 261.375C481.716 268.651 480.815 275.911 479.586 283.102C478.532 289.24 477.241 295.332 475.706 301.37C474.653 305.493 474.347 315.218 468.414 313.226C443.978 305.012 419.481 296.958 395.007 288.85C389.967 287.178 390.303 287.125 391.173 281.743C393.189 269.361 396.183 256.925 396.312 244.481C396.641 212.601 387.974 182.966 370.09 156.338C367.883 153.056 368.081 151.544 371.372 149.216C392.548 134.268 413.578 119.114 434.585 103.938C436.968 102.22 438.174 102.678 439.74 104.915C468.559 146.07 483.808 196.57 482.968 246.756C482.884 251.634 482.655 256.512 482.281 261.383V261.375Z" fill="#ED1E79"/>
<path d="M263.717 0.977204C269.459 1.47342 275.186 2.16048 280.883 3.03077C286.58 3.90105 289.825 3.54989 288.611 9.71821C283.831 34.0022 279.088 58.3014 274.323 82.5931C274.102 83.7153 273.797 84.8146 273.552 85.9368C273.102 88.0132 272.071 88.9522 269.765 88.4102C257.134 85.4711 244.275 85.723 231.454 86.036C215.036 86.4406 199.259 90.2577 184.01 96.2122C180.917 97.4184 179.611 96.8611 178.252 93.8609C167.622 70.516 156.909 47.2168 145.989 24.0092C144.202 20.2151 145.798 19.0852 148.768 17.879C172.311 8.29064 197.35 2.53455 222.695 0.671841C235.608 -0.274784 248.582 -0.221345 261.487 0.786352C262.228 0.847425 262.976 0.908497 263.717 0.96957V0.977204Z" fill="#3FA9F5"/>
<path d="M275.217 87.807C277.561 75.7986 279.684 64.8284 281.837 53.8659C284.701 39.2924 287.588 24.7266 290.474 10.1608C291.192 6.5372 293.33 5.16307 296.889 6.03844C336.154 15.6116 371.021 33.6051 401.36 60.3701C413.608 71.1723 424.475 83.2036 434.425 96.1205C436.166 98.3802 436.594 99.9833 433.761 101.991C412.501 117.03 391.303 132.153 370.212 147.437C367.318 149.528 366.073 148.818 364.156 146.36C344.401 121 319.339 103.09 288.695 93.1356C285.068 91.9599 281.326 91.1431 277.729 89.9063C276.591 89.517 275.751 88.2803 275.217 87.8222V87.807Z" fill="#FF7BAC"/>
<path d="M469.949 317.646C469.452 319.348 469.2 320.341 468.872 321.295C457.914 353.351 441.45 382.169 418.419 407.133C415.838 409.934 413.211 412.698 410.691 415.553C409.111 417.347 407.782 417.599 406.018 415.675C394.411 403.048 382.727 390.498 371.09 377.902C364.538 370.81 358.093 363.618 351.442 356.626C349.548 354.633 349.838 353.465 351.587 351.625C367.562 334.922 379.36 315.646 386.561 293.667C387.691 290.209 389.249 289.744 392.418 290.812C417.129 299.118 441.878 307.302 466.589 315.577C467.841 315.997 468.902 316.99 469.933 317.638L469.949 317.646Z" fill="#F15A24"/>
<path d="M177.16 98.3344C176.167 99.0673 175.19 99.9147 174.098 100.571C164.117 106.602 153.946 112.335 144.194 118.71C137.207 123.275 137.367 123.741 131.801 117.786C114.909 99.7086 98.1095 81.5471 81.2181 63.462C79.6756 61.813 79.5 60.8817 81.3861 59.248C98.6822 44.247 117.735 32.0249 138.551 22.4976C140.918 21.4135 141.942 22.0472 142.927 24.1847C151.632 43.0943 160.406 61.981 169.149 80.8753C171.333 85.6008 173.494 90.3339 175.663 95.067C176.083 95.9908 176.503 96.9069 177.16 98.3497V98.3344Z" fill="#22B573"/>
<path d="M122.484 139.543C117.551 135.337 112.817 131.23 108.021 127.199C91.6874 113.473 75.3382 99.7696 58.9661 86.0894C57.2785 84.6847 57.3014 83.5396 58.821 82.0357C64.3268 76.5926 69.7943 71.1113 75.216 65.5766C76.9724 63.775 78.3393 63.9735 79.9658 65.7522C93.5278 80.547 107.128 95.3113 120.736 110.068C124.951 114.648 129.304 119.107 133.381 123.809C134.183 124.733 134.733 127.168 134.175 127.787C130.266 132.069 126.028 136.054 122.492 139.551L122.484 139.543Z" fill="#8CC63F"/>
</svg>
