<svg width="196" height="54" viewBox="0 0 196 54" fill="none" xmlns="http://www.w3.org/2000/svg">
<path d="M56.1979 15.5954C56.2909 15.7015 56.3839 15.8076 56.4769 15.9089C57.0007 16.4876 57.544 17.0519 58.0384 17.6548C58.8411 18.629 59.5509 19.6707 60.2362 20.7269C60.6228 21.3202 61.0144 21.9134 61.362 22.5259C61.8955 23.4615 62.4046 24.4116 62.9039 25.3666C63.594 26.6832 64.1863 28.0433 64.7443 29.4178C64.9989 30.0399 65.1995 30.6814 65.4296 31.3132C65.4834 31.4627 65.5422 31.617 65.5911 31.7665C65.6401 31.9208 65.6254 31.9353 65.459 31.9353C65.1212 31.9353 64.7884 31.9353 64.4506 31.9353C63.6234 31.9353 62.7962 31.9353 61.9689 31.9401C61.7731 31.9401 61.6752 31.8581 61.5822 31.6942C61.3032 31.1926 61.0046 30.7007 60.7061 30.2087C60.5005 29.8615 60.2998 29.5094 60.0697 29.1815C59.4628 28.3133 58.8117 27.4742 58.0922 26.688C57.2601 25.7813 56.3349 24.9759 55.3266 24.2718C54.2204 23.4953 53.026 22.8683 51.7583 22.3764C50.8723 22.0339 49.9521 21.7832 49.0318 21.5613C48.4249 21.4166 47.7983 21.3346 47.1767 21.243C46.697 21.1706 46.2124 21.1272 45.7327 21.0742C45.7131 21.0742 45.6935 21.0742 45.6739 21.0742C44.6167 21.0645 43.5594 21.0356 42.5021 21.0549C41.8021 21.0645 41.1021 21.1128 40.4071 21.1948C39.4036 21.3153 38.4002 21.4552 37.4016 21.6336C36.4667 21.7976 35.5416 22.0195 34.6165 22.2269C33.1529 22.55 31.7334 22.9985 30.353 23.5628C29.4769 23.9245 28.6202 24.3345 27.8567 24.9036C27.5287 25.1495 27.3329 25.4919 27.0931 25.8006C26.8924 26.0659 26.6868 26.3263 26.3931 26.5048C26.0309 26.7218 25.6295 26.8616 25.2085 26.8424C24.6995 26.8134 24.3421 26.4999 24.117 26.0803C23.7597 25.4148 23.7254 24.7155 23.9897 24.0065C24.2051 23.4326 24.5771 22.9551 25.047 22.5596C25.5218 22.1593 26.0113 21.7639 26.5253 21.4118C27.5923 20.6739 28.7475 20.0807 29.9272 19.5357C30.8572 19.1065 31.8215 18.7785 32.7956 18.4602C33.0844 18.3637 33.0501 18.4023 32.9963 18.1178C32.9473 17.8622 32.8984 17.6065 32.8445 17.3509C32.8249 17.2448 32.8592 17.1918 32.962 17.1435C33.3683 16.941 33.7745 16.7432 34.1661 16.5117C35.0325 15.9957 35.6982 15.2771 36.2513 14.4475C36.3541 14.2932 36.4227 14.1196 36.5303 13.9701C36.5891 13.8833 36.6821 13.7868 36.7751 13.7531C37.6611 13.483 38.4491 13.0248 39.198 12.4943C39.8001 12.065 40.3092 11.549 40.691 10.922C40.7448 10.8352 40.8085 10.7484 40.8525 10.6568C40.8917 10.57 40.9406 10.5748 41.014 10.6037C41.4693 10.7918 41.9196 10.9944 42.3797 11.168C42.9671 11.3898 43.5594 11.5972 44.1516 11.8046C44.5579 11.9445 44.9691 12.0892 45.3852 12.2001C46.1145 12.3978 46.8536 12.5714 47.5878 12.7547C47.8228 12.8126 48.0626 12.8849 48.3025 12.9283C49.2423 13.0923 50.187 13.2515 51.1268 13.3962C52.2282 13.5698 53.3442 13.5891 54.4602 13.6421C55.5224 13.6952 56.5846 13.6228 57.6419 13.5698C58.3027 13.536 58.9586 13.4347 59.6194 13.3672C59.8299 13.3479 60.0404 13.3093 60.2411 13.4203C60.4809 13.5553 60.5494 13.8109 60.3977 14.0376C60.197 14.327 59.9131 14.5054 59.59 14.626C58.616 14.9781 57.6272 15.2916 56.6091 15.4941C56.4867 15.5182 56.3643 15.5327 56.242 15.552C56.2322 15.5665 56.2273 15.5809 56.2175 15.5954H56.1979Z" fill="#F7931E"/>
<path d="M24.3862 5.98339C24.3715 5.95446 24.3617 5.9207 24.3421 5.89658C23.8869 5.34677 23.6422 4.70051 23.4464 4.0253C23.3142 3.57678 23.3044 3.1186 23.3974 2.66525C23.4611 2.36623 23.6422 2.18779 23.9506 2.15403C24.719 2.07204 25.4875 2.00452 26.256 1.93217C26.3784 1.92253 26.5057 1.90324 26.628 1.88394C26.9217 1.84536 27.2154 1.80678 27.5091 1.7682C28.0035 1.7055 28.3951 1.46918 28.7377 1.12193C29.2076 0.639641 29.7999 0.364737 30.4607 0.200759C31.4788 -0.0548536 32.5068 -0.0210934 33.5396 0.0560727C34.078 0.0946557 34.6213 0.147707 35.1549 0.239342C35.8842 0.364737 36.6087 0.528715 37.2352 0.93866C37.4995 1.11228 37.7443 1.32449 37.9694 1.55117C38.5813 2.1492 39.0169 2.85817 39.1883 3.69735C39.2617 4.05424 39.2959 4.41596 39.3498 4.77767C39.4281 5.35642 39.5162 5.93999 39.5798 6.51873C39.6043 6.73094 39.5994 6.95279 39.5701 7.165C39.5407 7.38685 39.384 7.52672 39.1687 7.60388C38.7183 7.76786 38.2533 7.7341 37.803 7.64729C37.0541 7.50742 36.3786 7.19394 35.8304 6.65377C35.2038 6.04127 34.8416 5.2889 34.6752 4.44489C34.6116 4.13141 34.5969 3.80827 34.5577 3.48996C34.5528 3.44656 34.543 3.39833 34.5284 3.31152C34.4696 3.37904 34.4256 3.4128 34.4011 3.4562C34.2102 3.76969 34.1465 4.12176 34.1319 4.47383C34.1025 5.42876 34.3374 6.31135 34.8612 7.12642C35.2822 7.78233 35.8744 8.21157 36.5744 8.49611C37.2744 8.78066 37.9939 8.79513 38.7135 8.54434C38.8065 8.51058 38.9044 8.48165 39.0023 8.44789C39.0708 8.42377 39.1197 8.43342 39.1491 8.50576C39.2715 8.8096 39.3694 9.12309 39.3449 9.45587C39.3253 9.70666 39.2323 9.93333 39.0561 10.1214C38.5177 10.705 37.8324 11.0715 37.1128 11.3947C36.5744 11.6358 36.036 11.877 35.4486 11.9879C34.9738 12.0795 34.4941 12.147 34.0095 12.2049C33.2459 12.2965 32.4872 12.1953 31.7334 12.0747C31.6404 12.0602 31.5963 12.0168 31.567 11.93C31.3614 11.2403 31.1166 10.5603 30.7593 9.93333C30.3481 9.2099 29.8587 8.53952 29.1783 8.02347C28.7573 7.70516 28.307 7.45437 27.7979 7.30969C27.3574 7.18429 27.377 7.19394 27.2301 7.59906C27.0539 8.08617 26.8532 8.56846 26.6427 9.04592C26.2707 9.90922 25.9183 10.7773 25.7176 11.6985C25.5365 12.5329 25.5267 13.3769 25.7225 14.2064C25.8791 14.872 26.2609 15.4169 26.7896 15.8703C27.4993 16.478 28.3363 16.7384 29.2517 16.8301C30.3041 16.9362 31.3075 16.7674 32.2865 16.3815C32.59 16.261 32.59 16.2658 32.5019 15.9523C32.3697 15.4941 32.2327 15.0359 32.1005 14.5778C32.0564 14.4283 32.0711 14.4138 32.2376 14.4138C33.1725 14.4186 34.1025 14.3993 35.0178 14.1919C35.1059 14.1726 35.2038 14.1196 35.2528 14.0521C35.3947 13.8399 35.5171 13.6132 35.6297 13.3865C35.6591 13.3286 35.6542 13.2274 35.6248 13.1647C35.4633 12.8222 35.6346 12.5522 35.8695 12.4026C36.0898 12.258 36.4324 12.3448 36.5989 12.5714C36.824 12.8753 36.7261 13.2804 36.3688 13.4347C36.2367 13.4926 36.1681 13.5794 36.1094 13.6952C35.7374 14.4331 35.2185 15.0552 34.6067 15.6147C33.6326 16.5117 32.4725 17.0326 31.1852 17.2979C30.0544 17.5294 28.9237 17.4619 27.8322 17.1001C27.1763 16.8831 26.6134 16.5166 26.1288 16.0198C25.4729 15.3494 25.1253 14.5585 25.0666 13.6373C25.0274 13.0055 24.9981 12.3737 25.1351 11.7564C25.2624 11.1921 25.4141 10.623 25.6197 10.0828C25.8987 9.33529 26.2413 8.60704 26.5448 7.86914C26.6231 7.67622 26.6623 7.46884 26.721 7.2711C26.7553 7.15053 26.7064 7.09266 26.5938 7.06372C26.3637 7.00584 26.1239 6.96244 25.8987 6.87563C25.6001 6.7647 25.3064 6.62484 25.0274 6.48015C24.8953 6.41263 24.7925 6.39816 24.6701 6.47533C24.1855 6.76952 23.8184 7.17947 23.4953 7.628C23.187 8.05241 22.9618 8.52987 22.8345 9.03145C22.717 9.48481 22.6387 9.9478 22.5947 10.4156C22.4821 11.5924 22.5213 12.7692 22.5898 13.946C22.6338 14.6935 22.7024 15.4362 22.7268 16.1838C22.7415 16.6275 22.7024 17.0712 22.6828 17.5149C22.6779 17.6548 22.6681 17.7802 22.8198 17.8718C22.8737 17.9056 22.9177 18.0117 22.9079 18.0792C22.8933 18.219 22.8541 18.3541 22.8052 18.4843C22.6681 18.8412 22.5164 19.1933 22.3793 19.555C22.3304 19.6852 22.252 19.7479 22.1101 19.7672C21.929 19.7913 21.9045 19.8202 21.9437 19.989C22.0465 20.481 22.1541 20.9681 22.2716 21.4552C22.3548 21.8073 22.3695 22.169 22.2814 22.5114C22.1199 23.148 21.8262 23.7268 21.3122 24.1705C20.5976 24.7878 19.7508 24.5804 19.3298 23.7895C19.1242 23.3988 19.0997 22.9696 19.1144 22.5452C19.134 21.9423 19.2319 21.3539 19.4522 20.7848C19.6676 20.2254 20.0494 19.8347 20.6269 19.6418C20.8032 19.5839 20.9892 19.5405 21.1654 19.4778C21.2045 19.4633 21.2584 19.4055 21.2535 19.3814C21.1996 19.2029 21.2682 19.0389 21.3269 18.8846C21.4591 18.5181 21.6059 18.1515 21.7626 17.7898C21.7968 17.7175 21.8898 17.6499 21.9681 17.6162C22.0758 17.5776 22.1248 17.5149 22.1346 17.4136C22.1444 17.3075 22.159 17.1966 22.159 17.0905C22.1835 15.9764 22.0611 14.872 22.0024 13.7627C21.9241 12.3641 21.88 10.9654 22.1199 9.57162C22.2814 8.66009 22.6436 7.8402 23.2016 7.09748C23.5247 6.66824 23.9016 6.29688 24.3617 6.01233C24.3715 6.00751 24.3813 5.99304 24.396 5.97857L24.3862 5.98339ZM19.6822 22.4921C19.6724 22.8587 19.6724 23.1577 19.7899 23.447C19.9466 23.8329 20.2549 24.0161 20.5927 23.9052C20.7297 23.8618 20.8717 23.7846 20.9794 23.693C21.5912 23.1577 21.8311 22.4776 21.7038 21.6915C21.6304 21.2382 21.4982 20.7993 21.415 20.3459C21.3465 19.9697 21.3661 20.0324 21.0185 20.1096C20.4018 20.2495 20.0542 20.6401 19.8829 21.2237C19.7557 21.6578 19.7018 22.1015 19.6773 22.4921H19.6822Z" fill="#F7931E"/>
<path d="M32.2522 32.5092C32.311 32.3935 32.3452 32.3067 32.3942 32.2247C32.913 31.3807 33.2704 30.4692 33.5004 29.5142C33.7305 28.5545 33.892 27.5803 33.9556 26.5916C34.0144 25.7379 34.0389 24.8843 34.0291 24.0258C34.0291 23.8859 34.0095 23.7412 34.0095 23.6014C34.0095 23.5532 34.0535 23.476 34.0878 23.4663C34.8367 23.259 35.5807 23.0419 36.3345 22.8587C36.9562 22.7091 37.5827 22.603 38.2093 22.4776C38.2435 22.4728 38.2778 22.468 38.3072 22.468C38.4981 22.4584 38.4932 22.468 38.4834 22.6513C38.4589 23.0516 38.454 23.4567 38.4198 23.857C38.3561 24.5852 38.2729 25.3135 38.2093 26.0418C38.1163 27.0594 37.9254 28.0625 37.7051 29.0609C37.4506 30.2087 37.0443 31.3132 36.6136 32.4031C36.5793 32.4851 36.5352 32.5141 36.452 32.5092C36.3052 32.5092 36.1534 32.5092 36.0066 32.5092C34.8171 32.5092 33.6228 32.5092 32.4333 32.5092C32.3795 32.5092 32.3306 32.5092 32.2424 32.5092H32.2522Z" fill="#F7931E"/>
<path d="M46.8683 22.3281C46.927 22.3281 46.9907 22.3233 47.0494 22.3281C48.1703 22.4825 49.2717 22.6947 50.3485 23.0371C51.0387 23.259 51.724 23.4905 52.3799 23.7895C52.6981 23.9342 53.0113 24.0933 53.3246 24.238C53.7211 24.4213 54.005 24.7203 54.2497 25.0675C54.8616 25.9357 55.2972 26.8809 55.6154 27.8841C56.0168 29.138 56.1685 30.4306 56.1489 31.7472C56.1489 31.9401 56.1489 31.945 55.9434 31.945C54.5973 31.945 53.2512 31.945 51.9051 31.945C51.6946 31.945 51.6995 31.945 51.7338 31.7376C51.7974 31.3566 51.8757 30.9756 51.9002 30.5897C51.9443 29.8325 51.7729 29.1043 51.5478 28.3905C51.0877 26.8954 50.2213 25.6318 49.1933 24.4647C48.557 23.7412 47.8228 23.1143 47.0543 22.5259C46.9858 22.4728 46.9074 22.4246 46.834 22.3764C46.8389 22.3619 46.8438 22.3474 46.8487 22.333L46.8683 22.3281Z" fill="#F7931E"/>
<path d="M7.32761 47.7495C5.12002 47.6579 3.45088 47.6097 2.32506 47.6097C1.45377 47.6097 0.856601 47.518 0.528645 47.33C0.200689 47.1467 0.034264 46.7994 0.034264 46.2882C0.034264 45.8252 0.386694 45.3043 1.09155 44.7256C1.72789 44.1951 2.15374 43.6742 2.3789 43.163C2.60407 42.6518 2.71175 41.9235 2.71175 40.9734V29.929C2.71175 28.9789 2.59917 28.2506 2.3789 27.7394C2.15374 27.2282 1.7132 26.7073 1.05729 26.1768C0.729334 25.8778 0.469907 25.6077 0.283902 25.3762C0.0978972 25.1447 0 24.8891 0 24.6142C0 24.103 0.166425 23.7557 0.494381 23.5724C0.822337 23.3892 1.4244 23.2927 2.29079 23.2927C3.53409 23.2927 5.31092 23.2348 7.61151 23.1191C8.61985 23.0516 9.60861 23.013 10.5729 23.013C13.5343 23.013 16.153 23.4856 18.434 24.4357C20.7151 25.3858 22.4968 26.8134 23.789 28.7233C25.0813 30.6331 25.7274 32.9867 25.7274 35.7888C25.7274 39.8159 24.4303 42.8399 21.8311 44.851C19.2368 46.867 15.644 47.8701 11.0624 47.8701C10.4505 47.8701 9.20723 47.8219 7.32761 47.7303V47.7495ZM16.6327 42.2997C17.6656 40.6792 18.1844 38.3883 18.1844 35.4223C18.1844 33.5462 17.8613 31.8919 17.2152 30.4547C16.5691 29.0175 15.6831 27.9082 14.5524 27.1221C13.4266 26.336 12.1784 25.9405 10.8176 25.9405C10.3967 25.9405 10.0785 26.0369 9.86804 26.2347C9.65756 26.4324 9.54987 26.7604 9.54987 27.2234V42.9556C9.54987 43.6742 9.74567 44.1469 10.1324 44.3784C10.5191 44.6099 11.1603 44.7256 12.0511 44.7256C14.0727 44.7256 15.5999 43.9154 16.6327 42.2949V42.2997Z" fill="black"/>
<path d="M32.1005 46.867C30.5244 46.0905 29.3055 45.0198 28.4342 43.6549C27.563 42.29 27.1322 40.7515 27.1322 39.0346C27.1322 37.3177 27.5679 35.7454 28.4342 34.3805C29.3055 33.0156 30.5244 31.9498 32.1005 31.1878C33.6766 30.4258 35.4731 30.0399 37.4946 30.0399C39.5162 30.0399 41.2735 30.4209 42.8349 31.1878C44.3964 31.9498 45.6152 33.0156 46.4816 34.3805C47.3529 35.7454 47.7836 37.2984 47.7836 39.0346C47.7836 40.7708 47.348 42.3238 46.4816 43.6887C45.6103 45.0536 44.3964 46.1194 42.8349 46.8814C41.2735 47.6434 39.4917 48.0293 37.4946 48.0293C35.4975 48.0293 33.6766 47.6434 32.1005 46.867ZM40.1379 44.3301C40.6567 43.6694 40.9112 42.7386 40.9112 41.5329C40.9112 40.3995 40.7448 39.1407 40.4169 37.7662C40.0889 36.3868 39.6141 35.2197 38.9876 34.2599C38.3659 33.3002 37.6317 32.8179 36.7849 32.8179C35.9381 32.8179 35.2919 33.1459 34.778 33.8066C34.2591 34.4673 34.0046 35.374 34.0046 36.5315C34.0046 37.689 34.1612 38.9912 34.4794 40.3705C34.7976 41.7499 35.2675 42.917 35.8891 43.8768C36.5108 44.8365 37.2352 45.3188 38.0575 45.3188C38.9288 45.3188 39.619 44.9909 40.1379 44.3301Z" fill="black"/>
<path d="M68.4742 48.0293C68.4742 49.8813 67.5931 51.3378 65.831 52.4036C64.0688 53.4695 61.7438 54 58.8509 54C57.7251 54 56.5895 53.8794 55.449 53.6335C54.3085 53.3923 53.2952 53.0354 52.3995 52.5724C51.4841 52.1094 50.7597 51.5548 50.2311 50.9037C49.7024 50.2526 49.4381 49.5244 49.4381 48.7141C49.4381 47.9039 49.7024 47.2431 50.2311 46.8043C50.7597 46.3654 51.4107 46.1435 52.189 46.1435C52.9673 46.1435 53.7505 46.3654 54.4798 46.8043C55.2091 47.2431 55.7476 47.8701 56.1 48.6804C56.4035 49.399 56.8391 49.9777 57.402 50.4166C58.1314 50.9953 58.9048 51.2847 59.7271 51.2847C60.4319 51.2606 61.0193 51.0291 61.4892 50.5902C61.9591 50.1513 62.1941 49.534 62.1941 48.7479C62.1941 47.6579 61.8221 46.7223 61.083 45.9361C60.3438 45.15 59.36 44.7208 58.1412 44.6533C56.472 44.6533 54.9693 44.3446 53.6281 43.7321C52.2869 43.1196 51.2296 42.2611 50.4562 41.1615C49.6828 40.0619 49.2912 38.7935 49.2912 37.3611C49.2912 35.9287 49.6926 34.6602 50.4905 33.5606C51.2883 32.461 52.4044 31.6025 53.8386 30.99C55.2728 30.3775 56.9419 30.0689 58.8411 30.0689C60.0844 30.0689 61.2983 30.2184 62.4731 30.5222C62.757 30.5704 62.943 30.5897 63.036 30.5897C63.5549 30.5897 63.9073 30.3968 64.0933 30.0158C64.2793 29.6348 64.3772 29.085 64.3772 28.3664C64.3772 27.6044 64.6366 27.0256 65.1506 26.6301C65.6694 26.2347 66.2666 26.0418 66.947 26.0418C67.6274 26.0418 68.2588 26.2684 68.763 26.717C69.2672 27.1703 69.5217 27.696 69.5217 28.2989C69.5217 29.2731 69.2231 30.1171 68.621 30.8357C68.0239 31.5543 67.182 32.0607 66.1002 32.3646C67.6029 33.7101 68.3567 35.374 68.3567 37.3659C68.3567 38.8031 67.9749 40.0619 67.2113 41.1518C66.4477 42.2418 65.3611 43.0858 63.9514 43.6887C66.9568 44.4073 68.4644 45.8542 68.4644 48.0293H68.4742ZM56.614 33.6523C56.2028 34.2069 55.9972 34.9496 55.9972 35.8756C55.9972 37.6794 56.3105 39.1359 56.9321 40.2355C57.5538 41.3351 58.3712 41.8849 59.3796 41.8849C60.0599 41.8849 60.6082 41.6052 61.0193 41.0506C61.4305 40.4959 61.6361 39.7532 61.6361 38.8272C61.6361 37.0235 61.3228 35.5669 60.7012 34.4673C60.0795 33.3677 59.2523 32.8179 58.2146 32.8179C57.5587 32.8179 57.0202 33.0976 56.6091 33.6523H56.614Z" fill="black"/>
<path d="M82.356 47.7833C80.6869 47.7833 79.5366 46.9248 78.9003 45.2127L73.0852 29.1332C72.7817 28.2748 72.4684 27.6767 72.1503 27.3295C71.8321 26.9822 71.3915 26.6928 70.8286 26.4613C70.4077 26.2781 70.0944 26.0659 69.8937 25.8344C69.693 25.6029 69.5951 25.2894 69.5951 24.8987C69.5951 24.4357 69.742 24.0885 70.0357 23.857C70.3294 23.6255 70.7797 23.476 71.3915 23.4036C72.0034 23.3361 72.8845 23.2975 74.0348 23.2975H79.287C80.6037 23.2975 81.4799 23.4133 81.9106 23.6448C82.3463 23.8763 82.5616 24.2718 82.5616 24.8264C82.5616 25.082 82.4784 25.328 82.3169 25.5739C82.1505 25.8151 81.9644 25.9742 81.754 26.0418C81.3085 26.2057 80.9904 26.3842 80.8044 26.5819C80.6184 26.7797 80.5205 27.0401 80.5205 27.3632C80.5205 27.6864 80.6135 28.1638 80.8044 28.786L83.7658 38.9623C83.9077 39.4735 84.0937 39.7243 84.3287 39.7243C84.4461 39.7243 84.5587 39.6616 84.6615 39.5314C84.7692 39.406 84.8573 39.2227 84.9258 38.9912L87.4271 31.6315C87.6131 31.1444 87.711 30.6476 87.711 30.1364C87.711 29.6975 87.618 29.1043 87.4271 28.3664C87.3096 27.9516 87.1138 27.561 86.8446 27.2041C86.5754 26.8472 86.2377 26.5723 85.8412 26.389C85.4887 26.2299 85.2342 26.0225 85.0825 25.7813C84.9307 25.5402 84.8524 25.1978 84.8524 24.7589C84.8524 23.7847 85.6845 23.3024 87.3537 23.3024H93.487C94.4757 23.3024 95.1806 23.4229 95.6015 23.6689C96.0225 23.91 96.2379 24.3007 96.2379 24.8312C96.2379 25.1302 96.1546 25.41 95.9931 25.6656C95.8267 25.9212 95.5917 26.1045 95.2883 26.2202C94.6764 26.4758 94.2799 26.717 94.089 26.9485C93.9471 27.1124 93.8785 27.3198 93.8785 27.5754C93.8785 27.8069 93.9471 28.1542 94.089 28.6172L97.1924 39.0346C97.3343 39.4494 97.5203 39.6616 97.7553 39.6616C97.9902 39.6616 98.1762 39.4542 98.3182 39.0346L101.984 28.3037C102.102 27.9564 102.161 27.6912 102.161 27.5031C102.161 27.2234 102.038 27.0015 101.789 26.8279C101.544 26.6543 101.054 26.4421 100.325 26.1864C100.041 26.0707 99.8209 25.8971 99.6545 25.6656C99.4881 25.4341 99.4097 25.1543 99.4097 24.8312C99.4097 24.2766 99.6153 23.8811 100.026 23.6496C100.438 23.4181 101.147 23.3024 102.161 23.3024H106.6C107.305 23.3024 107.858 23.4229 108.255 23.6689C108.656 23.91 108.852 24.2766 108.852 24.7637C108.852 25.1785 108.744 25.4968 108.534 25.7186C108.323 25.9405 108.015 26.1189 107.618 26.2588C106.865 26.5144 106.307 26.8134 105.944 27.1607C105.582 27.5079 105.269 28.0529 105.009 28.7908L99.3363 45.2175C99.0328 46.0519 98.607 46.6885 98.0685 47.1274C97.5301 47.5663 96.884 47.7881 96.1302 47.7881H95.9882C95.1904 47.7881 94.4659 47.5759 93.8198 47.1467C93.1737 46.7174 92.7331 46.1098 92.4982 45.3236L89.855 36.2277C89.713 35.7888 89.5613 35.5669 89.3948 35.5669C89.2284 35.5669 89.0669 35.7888 88.9005 36.2277C87.4907 40.2548 86.4237 43.2787 85.6943 45.2899C85.4104 46.1001 84.9846 46.7174 84.407 47.1467C83.8294 47.5759 83.2029 47.7881 82.5225 47.7881H82.3462L82.356 47.7833Z" fill="black"/>
<path d="M106.253 46.621C105.313 45.6854 104.843 44.4845 104.843 43.0279C104.843 41.3592 105.582 40.0136 107.065 38.9815C108.544 37.9495 110.472 37.3418 112.846 37.1585C113.6 37.091 114.153 37.009 114.52 36.9174C114.882 36.8257 115.132 36.681 115.259 36.4833C115.387 36.2856 115.431 36.001 115.382 35.6345L115.313 35.0461C115.22 34.3034 115.024 33.7487 114.731 33.3774C114.437 33.006 113.947 32.8227 113.267 32.8227C112.729 32.8227 112.239 32.9867 111.804 33.3098C111.368 33.633 111.069 34.1201 110.903 34.7663C110.717 35.485 110.399 36.0155 109.953 36.3627C109.508 36.71 108.886 36.8836 108.083 36.8836C107.589 36.8836 107.144 36.71 106.742 36.3627C106.341 36.0155 106.145 35.5525 106.145 34.9737C106.145 34.0236 106.537 33.1748 107.325 32.4224C108.113 31.6701 109.17 31.0865 110.497 30.6669C111.823 30.2521 113.262 30.0399 114.814 30.0399C116.507 30.0399 117.839 30.2762 118.813 30.7537C119.787 31.2264 120.497 31.9064 120.947 32.7841C121.393 33.6667 121.711 34.776 121.897 36.1168L122.709 42.0875C122.802 42.6903 122.925 43.0906 123.081 43.2836C123.233 43.4813 123.453 43.5778 123.732 43.5778C123.992 43.5778 124.232 43.5247 124.457 43.4234C124.682 43.3221 124.848 43.2691 124.966 43.2691C125.504 43.2691 125.778 43.5922 125.778 44.2433C125.778 44.7979 125.583 45.3622 125.196 45.9265C124.809 46.4956 124.281 46.9634 123.61 47.3348C122.939 47.7061 122.205 47.8894 121.407 47.8894C120.325 47.8894 119.488 47.6869 118.886 47.2817C118.289 46.8766 117.834 46.293 117.53 45.5262C117.437 45.2706 117.32 45.1452 117.178 45.1452C117.11 45.1452 116.879 45.4056 116.493 45.9265C116.106 46.4474 115.46 46.9297 114.554 47.3685C113.649 47.8074 112.41 48.0293 110.834 48.0293C108.72 48.0293 107.193 47.5615 106.253 46.621ZM115.524 43.7369C115.969 43.1919 116.194 42.4588 116.194 41.5329C116.194 41.393 116.17 41.1181 116.126 40.6985L116.091 40.4573C116.023 39.9461 115.852 39.6133 115.582 39.4494C115.313 39.2902 114.833 39.2082 114.153 39.2082C112.342 39.2082 111.441 40.1246 111.441 41.9524C111.441 42.8109 111.657 43.4572 112.092 43.8961C112.528 44.3349 113.11 44.5568 113.835 44.5568C114.515 44.5568 115.078 44.2867 115.528 43.7417L115.524 43.7369Z" fill="black"/>
<path d="M127.061 47.5229C126.439 47.301 126.126 46.9393 126.126 46.4281C126.126 45.9169 126.385 45.56 126.899 45.2802C127.58 44.933 128.005 44.4796 128.167 43.925C128.329 43.3704 128.412 42.5119 128.412 41.3544V29.0271C128.412 28.4484 128.348 27.995 128.216 27.6719C128.084 27.3488 127.844 27.151 127.492 27.0835C126.997 26.9678 126.62 26.8327 126.366 26.6832C126.106 26.5337 125.979 26.307 125.979 26.008C125.979 25.6366 126.116 25.3521 126.385 25.1592C126.655 24.9614 127.095 24.7492 127.707 24.5177C130.198 23.5676 132.044 23.095 133.238 23.095C133.85 23.095 134.281 23.1963 134.54 23.3892C134.8 23.5869 134.927 23.9486 134.927 24.484V41.3255C134.927 42.5071 135.01 43.3559 135.172 43.8768C135.333 44.3976 135.749 44.8558 136.405 45.2465C136.689 45.4104 136.899 45.5744 137.041 45.7481C137.183 45.9217 137.252 46.1483 137.252 46.4233C137.252 46.7705 137.144 47.0454 136.934 47.2383C136.723 47.4361 136.292 47.5856 135.646 47.6917C135 47.7978 134.056 47.846 132.807 47.846H130.624C128.862 47.846 127.668 47.7351 127.046 47.518L127.061 47.5229Z" fill="black"/>
<path d="M138.799 47.4553C138.339 47.2576 138.113 46.9152 138.113 46.4329C138.113 45.9506 138.383 45.5407 138.926 45.2851C139.655 44.9378 140.11 44.4845 140.301 43.9298C140.487 43.3752 140.585 42.4926 140.585 41.2917V29.0319C140.585 28.4773 140.522 28.0288 140.389 27.696C140.262 27.3584 140.017 27.1558 139.665 27.0883C139.195 26.9967 138.823 26.8761 138.554 26.7218C138.285 26.5723 138.148 26.336 138.148 26.008C138.148 25.6366 138.285 25.3521 138.554 25.1592C138.823 24.9614 139.264 24.7492 139.876 24.5177C142.367 23.5676 144.212 23.095 145.407 23.095C146.019 23.095 146.454 23.1963 146.709 23.3892C146.968 23.5869 147.095 23.9486 147.095 24.484V35.4898C147.095 36.1168 147.247 36.4254 147.556 36.4254C147.742 36.4254 147.967 36.3 148.226 36.0444L150.551 33.7535C150.811 33.4979 150.938 33.2327 150.938 32.9529C150.938 32.7214 150.737 32.5719 150.341 32.4996C150.13 32.4514 149.959 32.3501 149.832 32.1861C149.704 32.0221 149.636 31.8147 149.636 31.5591C149.636 30.7971 150.375 30.4113 151.858 30.4113H156.508C157.213 30.4113 157.747 30.4788 158.114 30.6187C158.481 30.7585 158.662 31.1154 158.662 31.6942C158.662 32.1813 158.54 32.5237 158.29 32.7166C158.045 32.9144 157.708 33.0349 157.287 33.0832C156.631 33.1314 156.087 33.2327 155.666 33.3967C155.245 33.5606 154.868 33.8018 154.541 34.1249L153.552 35.0605C153.292 35.3162 153.165 35.5477 153.165 35.755C153.165 35.919 153.248 36.1264 153.41 36.382L157.957 43.1871C158.378 43.79 158.696 44.1951 158.907 44.4025C159.117 44.6098 159.386 44.7835 159.719 44.9233C160.003 45.0391 160.248 45.2175 160.458 45.4635C160.669 45.7046 160.777 45.9795 160.777 46.2786C160.777 46.7657 160.551 47.1274 160.106 47.3734C159.661 47.6145 159.058 47.7399 158.31 47.7399L156.337 47.7061L154.33 47.7399C153.106 47.7399 152.274 47.6338 151.829 47.4264C151.383 47.219 151.158 46.8814 151.158 46.4184C151.158 46.1628 151.266 45.912 151.476 45.6564C151.662 45.3767 151.76 45.1355 151.76 44.9282C151.76 44.6967 151.643 44.3976 151.408 44.0263L149.225 40.7612C148.941 40.3464 148.696 40.1342 148.486 40.1342C148.3 40.1342 148.099 40.2403 147.888 40.4477L147.605 40.6889C147.419 40.8528 147.286 41.0554 147.218 41.2965C147.149 41.5377 147.11 41.9042 147.11 42.3913V42.6711C147.11 43.1823 147.208 43.6453 147.409 44.06C147.609 44.4748 148.05 44.8606 148.73 45.2079C149.014 45.3719 149.23 45.5358 149.381 45.7095C149.533 45.8831 149.611 46.1194 149.611 46.4233C149.611 46.9104 149.406 47.2528 148.995 47.4457C148.583 47.6434 147.8 47.7399 146.65 47.7399L143.899 47.7061L141.222 47.7399C140.071 47.7399 139.264 47.6386 138.808 47.4457L138.799 47.4553Z" fill="black"/>
<path d="M164.737 46.8139C163.317 46.0037 162.221 44.9089 161.457 43.5344C160.693 42.155 160.312 40.6454 160.312 39.0008C160.312 37.2405 160.747 35.6923 161.614 34.3468C162.485 33.006 163.645 31.9643 165.104 31.2215C166.562 30.4788 168.134 30.1123 169.827 30.1123C171.521 30.1123 172.842 30.4354 174.002 31.0865C175.167 31.7328 176.049 32.5382 176.646 33.4979C177.243 34.4577 177.546 35.3789 177.546 36.2566C177.546 37.2308 177.316 37.9302 176.861 38.3594C176.401 38.7886 175.598 39.0828 174.448 39.2468L168.349 40.1149C168.065 40.139 167.874 40.1921 167.766 40.2693C167.659 40.3464 167.61 40.4815 167.61 40.6696C167.61 41.1084 167.781 41.5714 168.119 42.0585C168.462 42.5457 168.961 42.9604 169.617 43.3077C170.273 43.6549 171.026 43.8285 171.873 43.8285C172.813 43.8285 173.645 43.6501 174.375 43.2884C175.104 42.9315 175.667 42.5167 176.068 42.0537C176.254 41.8705 176.455 41.774 176.665 41.774C176.993 41.774 177.233 41.8656 177.39 42.0537C177.541 42.237 177.62 42.4685 177.62 42.7482C177.62 42.9122 177.61 43.0279 177.586 43.0955C177.209 44.4169 176.357 45.5648 175.03 46.5487C173.704 47.5325 171.922 48.0245 169.69 48.0245C167.81 48.0245 166.161 47.6193 164.737 46.8091V46.8139ZM170.395 36.9174C170.796 36.8498 171.075 36.7244 171.242 36.5508C171.408 36.3772 171.487 36.1409 171.487 35.837C171.487 35.4223 171.374 34.9737 171.154 34.5011C170.929 34.0285 170.63 33.6282 170.253 33.305C169.876 32.9819 169.465 32.8179 169.02 32.8179C167.561 32.8179 166.836 33.9079 166.836 36.083C166.836 36.6183 166.885 36.9801 166.978 37.1778C167.071 37.3755 167.223 37.472 167.438 37.472L167.859 37.4045L170.395 36.9174Z" fill="black"/>
<path d="M179.47 47.5229C178.848 47.301 178.535 46.9393 178.535 46.4281C178.535 45.9169 178.795 45.56 179.309 45.2802C179.989 44.933 180.415 44.4796 180.576 43.925C180.738 43.3704 180.821 42.5119 180.821 41.3544V36.1795C180.821 35.6007 180.757 35.1522 180.625 34.8242C180.498 34.5011 180.253 34.3034 179.901 34.2358C179.406 34.1201 179.03 33.985 178.775 33.8355C178.516 33.686 178.388 33.4594 178.388 33.1603C178.388 32.789 178.525 32.5044 178.795 32.3115C179.064 32.1138 179.504 31.9016 180.116 31.6701C182.608 30.72 184.453 30.2473 185.647 30.2473C186.259 30.2473 186.695 30.3486 186.949 30.5415C187.209 30.7392 187.336 31.101 187.336 31.6363V32.7841C187.336 33.2954 187.395 33.5462 187.512 33.5462C187.561 33.5462 187.777 33.223 188.163 32.5719C188.55 31.9208 189.093 31.3373 189.784 30.8164C190.479 30.2955 191.35 30.0351 192.407 30.0351C193.533 30.0351 194.414 30.4016 195.05 31.1299C195.687 31.8582 196 32.9192 196 34.3082C196 35.2101 195.701 36.0396 195.099 36.792C194.502 37.5443 193.729 37.9205 192.789 37.9205C192.133 37.9205 191.575 37.7421 191.115 37.3804C190.655 37.0235 190.43 36.4833 190.43 35.7647C190.43 35.4174 190.376 35.1329 190.273 34.9159C190.165 34.694 189.925 34.5879 189.549 34.5879C188.937 34.5879 188.413 35.0268 187.982 35.9094C187.547 36.7871 187.331 37.8289 187.331 39.0346V41.3255C187.331 42.5071 187.414 43.3559 187.576 43.8768C187.737 44.3976 188.154 44.8558 188.809 45.2465C189.093 45.4104 189.304 45.5744 189.446 45.7481C189.588 45.9217 189.656 46.1483 189.656 46.4233C189.656 46.7705 189.549 47.0454 189.338 47.2383C189.128 47.4361 188.697 47.5856 188.051 47.6917C187.405 47.7978 186.46 47.846 185.212 47.846H183.029C181.266 47.846 180.072 47.7351 179.45 47.518L179.47 47.5229Z" fill="black"/>
</svg>
