<svg width="16" height="16" viewBox="0 0 16 16" fill="none" xmlns="http://www.w3.org/2000/svg">
<path d="M0 2C0 1.46957 0.210714 0.960859 0.585787 0.585787C0.960859 0.210714 1.46957 0 2 0H14C14.5304 0 15.0391 0.210714 15.4142 0.585787C15.7893 0.960859 16 1.46957 16 2V2.53467C15.3918 2.18402 14.702 1.99963 14 2H2C1.272 2 0.588 2.19467 0 2.53467V2ZM2 4C1.46957 4 0.960859 4.21071 0.585787 4.58579C0.210714 4.96086 0 5.46957 0 6V6.53467C0.608196 6.18402 1.29797 5.99963 2 6H14C14.728 6 15.412 6.19467 16 6.53467V6C16 5.46957 15.7893 4.96086 15.4142 4.58579C15.0391 4.21071 14.5304 4 14 4H2ZM8 10.6667C8.59242 10.6667 9.16799 10.4695 9.63589 10.1062C10.1038 9.74281 10.4374 9.23399 10.584 8.66C10.6747 8.30267 10.9653 8 11.3333 8H14C14.5304 8 15.0391 8.21071 15.4142 8.58579C15.7893 8.96086 16 9.46957 16 10V14C16 14.5304 15.7893 15.0391 15.4142 15.4142C15.0391 15.7893 14.5304 16 14 16H2C1.46957 16 0.960859 15.7893 0.585787 15.4142C0.210714 15.0391 0 14.5304 0 14V10C0 9.46957 0.210714 8.96086 0.585787 8.58579C0.960859 8.21071 1.46957 8 2 8H4.66667C5.03467 8 5.32533 8.30267 5.416 8.66C5.56262 9.23399 5.89621 9.74281 6.36411 10.1062C6.83201 10.4695 7.40758 10.6667 8 10.6667Z" fill="black"/>
</svg>
