<svg width="158" height="44" viewBox="0 0 158 44" fill="none" xmlns="http://www.w3.org/2000/svg">
<path d="M45.3018 12.7056C45.3768 12.7921 45.4517 12.8785 45.5267 12.9611C45.9489 13.4327 46.3868 13.8925 46.7853 14.3837C47.4323 15.1776 48.0044 16.0264 48.5568 16.8871C48.8685 17.3705 49.1841 17.8539 49.4643 18.353C49.8943 19.1154 50.3046 19.8896 50.7071 20.6677C51.2634 21.7406 51.7408 22.8489 52.1906 23.9689C52.3957 24.4759 52.5575 24.9986 52.7429 25.5134C52.7863 25.6352 52.8337 25.761 52.8731 25.8828C52.9126 26.0086 52.9008 26.0204 52.7666 26.0204C52.4944 26.0204 52.2261 26.0204 51.9538 26.0204C51.2871 26.0204 50.6203 26.0204 49.9535 26.0243C49.7957 26.0243 49.7168 25.9575 49.6418 25.8239C49.4169 25.4151 49.1762 25.0143 48.9356 24.6134C48.7699 24.3305 48.6081 24.0436 48.4227 23.7763C47.9334 23.0689 47.4087 22.3851 46.8287 21.7445C46.158 21.0057 45.4123 20.3494 44.5995 19.7756C43.7078 19.1429 42.7451 18.632 41.7233 18.2311C41.0091 17.9521 40.2674 17.7478 39.5256 17.567C39.0364 17.4491 38.5314 17.3823 38.0303 17.3076C37.6437 17.2487 37.2531 17.2133 36.8664 17.1701C36.8506 17.1701 36.8348 17.1701 36.819 17.1701C35.9668 17.1622 35.1146 17.1386 34.2624 17.1543C33.6982 17.1622 33.134 17.2015 32.5737 17.2683C31.7649 17.3666 30.9561 17.4805 30.1512 17.6259C29.3976 17.7596 28.6519 17.9403 27.9063 18.1093C26.7266 18.3726 25.5824 18.7381 24.4698 19.1979C23.7635 19.4927 23.0731 19.8267 22.4576 20.2905C22.1932 20.4909 22.0354 20.7699 21.8421 21.0214C21.6803 21.2376 21.5146 21.4498 21.2779 21.5952C20.9859 21.7721 20.6624 21.886 20.3231 21.8703C19.9127 21.8467 19.6247 21.5913 19.4432 21.2494C19.1552 20.707 19.1276 20.1372 19.3407 19.5595C19.5143 19.0918 19.8141 18.7027 20.1929 18.3805C20.5756 18.0543 20.9701 17.732 21.3844 17.4452C22.2445 16.8439 23.1756 16.3605 24.1265 15.9164C24.8761 15.5666 25.6534 15.2994 26.4385 15.04C26.6713 14.9614 26.6437 14.9929 26.6003 14.761C26.5608 14.5527 26.5214 14.3444 26.478 14.1361C26.4622 14.0497 26.4898 14.0064 26.5727 13.9671C26.9002 13.8021 27.2276 13.6409 27.5433 13.4523C28.2416 13.0318 28.7782 12.4462 29.224 11.7703C29.3069 11.6445 29.3621 11.503 29.4489 11.3812C29.4963 11.3105 29.5712 11.2319 29.6462 11.2044C30.3603 10.9843 30.9955 10.6109 31.5992 10.1786C32.0845 9.82886 32.4948 9.40836 32.8026 8.89746C32.846 8.82672 32.8973 8.75598 32.9328 8.68131C32.9643 8.61057 33.0038 8.6145 33.063 8.63808C33.4299 8.79135 33.7929 8.95641 34.1638 9.09789C34.6372 9.27867 35.1146 9.44766 35.592 9.61664C35.9195 9.73061 36.2509 9.84851 36.5863 9.9389C37.1741 10.1 37.7699 10.2415 38.3617 10.3909C38.5511 10.438 38.7444 10.497 38.9378 10.5323C39.6953 10.6659 40.4568 10.7956 41.2143 10.9135C42.102 11.055 43.0016 11.0707 43.9012 11.114C44.7573 11.1572 45.6135 11.0982 46.4657 11.055C46.9983 11.0275 47.527 10.945 48.0597 10.89C48.2293 10.8742 48.399 10.8428 48.5607 10.9332C48.7541 11.0432 48.8093 11.2515 48.687 11.4362C48.5252 11.672 48.2964 11.8174 48.036 11.9157C47.2509 12.2026 46.4539 12.458 45.6332 12.6231C45.5346 12.6427 45.4359 12.6545 45.3373 12.6702C45.3294 12.682 45.3255 12.6938 45.3176 12.7056H45.3018Z" fill="#FFB94A"/>
<path d="M19.6602 4.87317C19.6484 4.84959 19.6405 4.82208 19.6247 4.80243C19.2578 4.35441 19.0605 3.82779 18.9027 3.2776C18.7962 2.91211 18.7883 2.53876 18.8633 2.16934C18.9145 1.92569 19.0605 1.78028 19.3091 1.75277C19.9285 1.68596 20.548 1.63094 21.1674 1.57199C21.266 1.56413 21.3686 1.54841 21.4673 1.53269C21.704 1.50125 21.9407 1.46981 22.1774 1.43837C22.5759 1.38728 22.8916 1.19471 23.1678 0.911751C23.5465 0.518754 24.0239 0.294745 24.5566 0.161126C25.3772 -0.0471623 26.2058 -0.0196525 27.0382 0.0432271C27.4722 0.0746669 27.9102 0.117897 28.3403 0.192566C28.9281 0.294745 29.5121 0.428365 30.0171 0.762412C30.2301 0.903892 30.4274 1.07681 30.6089 1.26152C31.1021 1.74884 31.4532 2.32654 31.5913 3.01036C31.6505 3.30118 31.6781 3.59592 31.7215 3.89067C31.7846 4.36227 31.8557 4.8378 31.9069 5.30939C31.9267 5.48231 31.9227 5.66309 31.8991 5.83601C31.8754 6.01679 31.7491 6.13076 31.5755 6.19364C31.2125 6.32726 30.8377 6.29975 30.4747 6.22901C29.8711 6.11504 29.3266 5.85959 28.8847 5.41943C28.3797 4.92033 28.0877 4.30725 27.9536 3.6195C27.9023 3.36406 27.8905 3.10075 27.8589 2.84137C27.855 2.806 27.8471 2.7667 27.8352 2.69596C27.7879 2.75098 27.7524 2.77849 27.7327 2.81386C27.5788 3.06931 27.5275 3.3562 27.5156 3.64308C27.492 4.42122 27.6814 5.1404 28.1035 5.80457C28.4428 6.33905 28.9202 6.68881 29.4844 6.92068C30.0486 7.15255 30.6286 7.16434 31.2086 6.95998C31.2836 6.93247 31.3625 6.90889 31.4414 6.88138C31.4966 6.86173 31.5361 6.86959 31.5597 6.92854C31.6584 7.17613 31.7373 7.43158 31.7176 7.70275C31.7018 7.90711 31.6268 8.09181 31.4848 8.24508C31.0508 8.72061 30.4984 9.01929 29.9184 9.2826C29.4844 9.4791 29.0504 9.6756 28.577 9.76598C28.1943 9.84065 27.8076 9.89567 27.417 9.94283C26.8015 10.0175 26.19 9.93497 25.5824 9.83672C25.5074 9.82493 25.4719 9.78956 25.4482 9.71882C25.2825 9.15684 25.0852 8.60271 24.7972 8.09181C24.4658 7.50232 24.0713 6.95605 23.5228 6.53554C23.1835 6.27617 22.8205 6.07181 22.4102 5.95391C22.0551 5.85173 22.0709 5.85959 21.9525 6.18971C21.8105 6.58664 21.6487 6.97963 21.4791 7.3687C21.1792 8.07217 20.8952 8.77956 20.7334 9.53019C20.5874 10.2101 20.5795 10.8978 20.7373 11.5738C20.8636 12.1161 21.1713 12.5602 21.5975 12.9296C22.1695 13.4248 22.8442 13.637 23.582 13.7117C24.4303 13.7981 25.2391 13.6606 26.0282 13.3462C26.2728 13.2479 26.2728 13.2519 26.2018 12.9964C26.0953 12.6231 25.9848 12.2497 25.8783 11.8764C25.8428 11.7546 25.8546 11.7428 25.9888 11.7428C26.7423 11.7467 27.492 11.731 28.2298 11.562C28.3008 11.5463 28.3797 11.503 28.4192 11.448C28.5336 11.2751 28.6322 11.0904 28.723 10.9057C28.7466 10.8585 28.7427 10.776 28.719 10.7249C28.5888 10.4459 28.7269 10.2258 28.9163 10.104C29.0938 9.98606 29.37 10.0568 29.5042 10.2415C29.6857 10.4891 29.6067 10.8192 29.3187 10.945C29.2122 10.9921 29.157 11.0629 29.1096 11.1572C28.8098 11.7585 28.3915 12.2654 27.8984 12.7213C27.1132 13.4523 26.1781 13.8767 25.1405 14.0929C24.2291 14.2815 23.3177 14.2265 22.4378 13.9318C21.9091 13.7549 21.4554 13.4562 21.0648 13.0514C20.5361 12.5052 20.256 11.8607 20.2087 11.11C20.1771 10.5952 20.1534 10.0804 20.2639 9.57735C20.3665 9.11754 20.4888 8.6538 20.6545 8.21364C20.8794 7.6045 21.1556 7.01107 21.4002 6.40979C21.4633 6.25259 21.4949 6.0836 21.5422 5.92247C21.5698 5.82422 21.5304 5.77706 21.4396 5.75348C21.2542 5.70632 21.0609 5.67095 20.8794 5.60021C20.6387 5.50982 20.402 5.39585 20.1771 5.27795C20.0706 5.22293 19.9877 5.21114 19.8891 5.27402C19.4985 5.51375 19.2026 5.8478 18.9422 6.21329C18.6936 6.55912 18.5121 6.94819 18.4095 7.35691C18.3148 7.72633 18.2517 8.10361 18.2162 8.48481C18.1254 9.44373 18.157 10.4026 18.2122 11.3616C18.2478 11.9707 18.303 12.5759 18.3227 13.1851C18.3346 13.5466 18.303 13.9082 18.2872 14.2697C18.2833 14.3837 18.2754 14.4859 18.3977 14.5606C18.4411 14.5881 18.4766 14.6745 18.4687 14.7295C18.4569 14.8435 18.4253 14.9536 18.3858 15.0597C18.2754 15.3505 18.1531 15.6374 18.0426 15.9321C18.0031 16.0382 17.94 16.0893 17.8256 16.105C17.6796 16.1247 17.6599 16.1483 17.6914 16.2858C17.7743 16.6867 17.8611 17.0836 17.9558 17.4805C18.0229 17.7674 18.0347 18.0622 17.9637 18.3412C17.8335 18.8599 17.5968 19.3315 17.1825 19.6931C16.6064 20.1961 15.9239 20.0271 15.5846 19.3826C15.4189 19.0643 15.3991 18.7145 15.411 18.3687C15.4268 17.8775 15.5057 17.398 15.6832 16.9343C15.8568 16.4784 16.1646 16.1601 16.6301 16.0029C16.7722 15.9557 16.9221 15.9203 17.0641 15.8692C17.0957 15.8574 17.1391 15.8103 17.1351 15.7906C17.0917 15.6452 17.147 15.5116 17.1943 15.3858C17.3008 15.0872 17.4192 14.7885 17.5455 14.4937C17.5731 14.4348 17.648 14.3798 17.7112 14.3523C17.798 14.3208 17.8374 14.2697 17.8453 14.1872C17.8532 14.1007 17.865 14.0104 17.865 13.9239C17.8848 13.0161 17.7861 12.1161 17.7388 11.2122C17.6757 10.0725 17.6402 8.93283 17.8335 7.79707C17.9637 7.0543 18.2556 6.38621 18.7054 5.78099C18.9658 5.43122 19.2696 5.12861 19.6405 4.89675C19.6484 4.89282 19.6563 4.88103 19.6681 4.86924L19.6602 4.87317ZM15.8686 18.3255C15.8608 18.6241 15.8608 18.8678 15.9554 19.1036C16.0817 19.418 16.3303 19.5673 16.6025 19.477C16.713 19.4416 16.8274 19.3787 16.9142 19.304C17.4074 18.8678 17.6007 18.3137 17.4981 17.6731C17.4389 17.3037 17.3324 16.946 17.2653 16.5766C17.2101 16.2701 17.2259 16.3212 16.9458 16.3841C16.4486 16.498 16.1685 16.8164 16.0304 17.2919C15.9278 17.6456 15.8844 18.0071 15.8647 18.3255H15.8686Z" fill="#FFB94A"/>
<path d="M26.0006 26.488C26.0479 26.3937 26.0756 26.323 26.115 26.2562C26.5332 25.5684 26.8212 24.8256 27.0067 24.0475C27.1921 23.2654 27.3223 22.4716 27.3736 21.666C27.421 20.9703 27.4407 20.2747 27.4328 19.5752C27.4328 19.4612 27.417 19.3433 27.417 19.2294C27.417 19.1901 27.4525 19.1272 27.4801 19.1193C28.0838 18.9503 28.6835 18.7735 29.2911 18.6241C29.7922 18.5023 30.2972 18.4159 30.8022 18.3137C30.8298 18.3098 30.8575 18.3058 30.8811 18.3058C31.035 18.298 31.0311 18.3058 31.0232 18.4552C31.0034 18.7813 30.9995 19.1115 30.9719 19.4377C30.9206 20.0311 30.8535 20.6245 30.8022 21.2179C30.7273 22.0472 30.5734 22.8646 30.3958 23.6781C30.1907 24.6134 29.8632 25.5134 29.516 26.4016C29.4884 26.4684 29.4529 26.492 29.3858 26.488C29.2674 26.488 29.1451 26.488 29.0268 26.488C28.068 26.488 27.1053 26.488 26.1466 26.488C26.1032 26.488 26.0637 26.488 25.9927 26.488H26.0006Z" fill="#FFB94A"/>
<path d="M37.7817 18.1919C37.8291 18.1919 37.8804 18.1879 37.9277 18.1919C38.8312 18.3176 39.719 18.4905 40.587 18.7696C41.1433 18.9503 41.6956 19.139 42.2243 19.3826C42.4808 19.5005 42.7333 19.6302 42.9858 19.7481C43.3054 19.8975 43.5342 20.1411 43.7315 20.4241C44.2247 21.1315 44.5758 21.9017 44.8323 22.7192C45.1558 23.741 45.2781 24.7942 45.2623 25.8671C45.2623 26.0243 45.2623 26.0282 45.0966 26.0282C44.0116 26.0282 42.9266 26.0282 41.8416 26.0282C41.672 26.0282 41.6759 26.0282 41.7035 25.8592C41.7548 25.5488 41.818 25.2383 41.8377 24.9239C41.8732 24.3069 41.7351 23.7135 41.5536 23.1318C41.1827 21.9135 40.4844 20.8839 39.6558 19.9328C39.1429 19.3433 38.5511 18.8324 37.9317 18.353C37.8764 18.3098 37.8133 18.2705 37.7541 18.2312C37.7581 18.2194 37.762 18.2076 37.766 18.1958L37.7817 18.1919Z" fill="#FFB94A"/>
<path d="M5.91029 38.9067C4.13089 38.8321 2.78549 38.7928 1.87803 38.7928C1.17574 38.7928 0.694393 38.7181 0.430047 38.5648C0.165701 38.4155 0.031555 38.1325 0.031555 37.716C0.031555 37.3387 0.315628 36.9143 0.883775 36.4427C1.39669 36.0104 1.73994 35.5859 1.92143 35.1693C2.10292 34.7528 2.18972 34.1593 2.18972 33.3851V24.3855C2.18972 23.6113 2.09898 23.0179 1.92143 22.6013C1.73994 22.1847 1.38485 21.7603 0.856157 21.328C0.591811 21.0843 0.382701 20.8642 0.232774 20.6756C0.082846 20.487 0.00393677 20.2787 0.00393677 20.0547C0.00393677 19.6381 0.138083 19.3551 0.402429 19.2058C0.666775 19.0564 1.15207 18.9778 1.85041 18.9778C2.85256 18.9778 4.28476 18.9307 6.13913 18.8364C6.9519 18.7813 7.74888 18.7499 8.52614 18.7499C10.9131 18.7499 13.024 19.135 14.8626 19.9093C16.7011 20.6835 18.1373 21.8467 19.1789 23.403C20.2205 24.9593 20.7413 26.8771 20.7413 29.1604C20.7413 32.4419 19.6957 34.906 17.6007 36.5448C15.5096 38.1876 12.6136 39.005 8.92068 39.005C8.4275 39.005 7.42535 38.9657 5.91029 38.891V38.9067ZM13.4106 34.4659C14.2431 33.1454 14.6613 31.2787 14.6613 28.8617C14.6613 27.333 14.4009 25.985 13.8801 24.8139C13.3593 23.6427 12.6452 22.7388 11.7338 22.0982C10.8263 21.4577 9.82025 21.1354 8.72341 21.1354C8.3841 21.1354 8.12765 21.214 7.95799 21.3751C7.78834 21.5363 7.70154 21.8035 7.70154 22.1808V35.0004C7.70154 35.5859 7.85935 35.9711 8.17104 36.1597C8.48274 36.3483 8.99959 36.4427 9.71767 36.4427C11.3471 36.4427 12.5781 35.7824 13.4106 34.4619V34.4659Z" fill="black"/>
<path d="M25.8783 38.1876C24.6078 37.5548 23.6254 36.6824 22.9231 35.5702C22.2208 34.458 21.8736 33.2044 21.8736 31.8053C21.8736 30.4062 22.2248 29.125 22.9231 28.0129C23.6254 26.9007 24.6078 26.0322 25.8783 25.4112C27.1487 24.7903 28.5967 24.4759 30.2262 24.4759C31.8557 24.4759 33.2721 24.7864 34.5307 25.4112C35.7893 26.0322 36.7717 26.9007 37.4701 28.0129C38.1723 29.125 38.5195 30.3905 38.5195 31.8053C38.5195 33.2201 38.1684 34.4855 37.4701 35.5977C36.7678 36.7099 35.7893 37.5784 34.5307 38.1994C33.2721 38.8203 31.8359 39.1347 30.2262 39.1347C28.6164 39.1347 27.1487 38.8203 25.8783 38.1876ZM32.3567 36.1204C32.775 35.582 32.9801 34.8235 32.9801 33.841C32.9801 32.9175 32.846 31.8917 32.5816 30.7717C32.3173 29.6477 31.9346 28.6967 31.4296 27.9146C30.9285 27.1325 30.3367 26.7395 29.6541 26.7395C28.9715 26.7395 28.4507 27.0068 28.0365 27.5452C27.6182 28.0836 27.4131 28.8224 27.4131 29.7656C27.4131 30.7088 27.5393 31.7699 27.7958 32.8939C28.0522 34.0179 28.431 34.9689 28.9321 35.751C29.4331 36.533 30.0171 36.926 30.6799 36.926C31.3822 36.926 31.9385 36.6588 32.3567 36.1204Z" fill="black"/>
<path d="M55.197 39.1347C55.197 40.6438 54.4868 41.8307 53.0665 42.6992C51.6461 43.5677 49.772 44 47.4402 44C46.5328 44 45.6174 43.9017 44.6981 43.7013C43.7788 43.5048 42.9621 43.214 42.2401 42.8367C41.5023 42.4594 40.9184 42.0075 40.4923 41.477C40.0662 40.9464 39.8531 40.353 39.8531 39.6927C39.8531 39.0325 40.0662 38.4941 40.4923 38.1365C40.9184 37.7788 41.4431 37.5981 42.0705 37.5981C42.6978 37.5981 43.3291 37.7788 43.9169 38.1365C44.5048 38.4941 44.9388 39.005 45.2229 39.6652C45.4675 40.2508 45.8186 40.7224 46.2724 41.08C46.8603 41.5516 47.4836 41.7874 48.1465 41.7874C48.7146 41.7678 49.1881 41.5791 49.5668 41.2215C49.9456 40.8639 50.135 40.3608 50.135 39.7203C50.135 38.8321 49.8351 38.0697 49.2394 37.4291C48.6436 36.7885 47.8506 36.4387 46.8681 36.3837C45.5227 36.3837 44.3115 36.1322 43.2304 35.6331C42.1494 35.134 41.2971 34.4344 40.6738 33.5384C40.0504 32.6424 39.7347 31.6088 39.7347 30.4416C39.7347 29.2744 40.0583 28.2408 40.7014 27.3448C41.3445 26.4487 42.2441 25.7492 43.4001 25.2501C44.5561 24.751 45.9015 24.4995 47.4323 24.4995C48.4345 24.4995 49.413 24.6213 50.3599 24.8689C50.5887 24.9082 50.7386 24.9239 50.8136 24.9239C51.2318 24.9239 51.5159 24.7667 51.6658 24.4562C51.8158 24.1458 51.8947 23.6977 51.8947 23.1122C51.8947 22.4912 52.1038 22.0196 52.518 21.6974C52.9363 21.3751 53.4176 21.2179 53.966 21.2179C54.5145 21.2179 55.0234 21.4026 55.4298 21.7681C55.8362 22.1375 56.0413 22.5659 56.0413 23.0572C56.0413 23.851 55.8007 24.5388 55.3154 25.1243C54.834 25.7099 54.1554 26.1225 53.2835 26.3701C54.4947 27.4666 55.1023 28.8224 55.1023 30.4455C55.1023 31.6166 54.7946 32.6424 54.1791 33.5305C53.5636 34.4187 52.6877 35.1065 51.5514 35.5977C53.9739 36.1833 55.1891 37.3623 55.1891 39.1347H55.197ZM45.6372 27.4194C45.3057 27.8714 45.14 28.4766 45.14 29.2311C45.14 30.701 45.3925 31.8878 45.8936 32.7838C46.3947 33.6799 47.0536 34.1279 47.8663 34.1279C48.4148 34.1279 48.8567 33.9 49.1881 33.448C49.5195 32.9961 49.6852 32.3909 49.6852 31.6363C49.6852 30.1665 49.4327 28.9796 48.9316 28.0836C48.4305 27.1876 47.7638 26.7395 46.9273 26.7395C46.3986 26.7395 45.9646 26.9675 45.6332 27.4194H45.6372Z" fill="black"/>
<path d="M66.3864 38.9343C65.0409 38.9343 64.1138 38.2347 63.6009 36.8396L58.9137 23.737C58.669 23.0375 58.4165 22.5502 58.1601 22.2672C57.9036 21.9843 57.5485 21.7485 57.0948 21.5598C56.7555 21.4105 56.503 21.2376 56.3412 21.0489C56.1794 20.8603 56.1005 20.6049 56.1005 20.2865C56.1005 19.9093 56.2189 19.6263 56.4556 19.4377C56.6924 19.249 57.0553 19.1272 57.5485 19.0682C58.0417 19.0132 58.7519 18.9818 59.6791 18.9818H63.9125C64.9739 18.9818 65.6801 19.0761 66.0273 19.2647C66.3785 19.4534 66.5521 19.7756 66.5521 20.2276C66.5521 20.4359 66.485 20.6363 66.3548 20.8367C66.2206 21.0332 66.0707 21.1629 65.9011 21.2179C65.542 21.3516 65.2856 21.497 65.1356 21.6581C64.9857 21.8192 64.9068 22.0314 64.9068 22.2947C64.9068 22.5581 64.9818 22.9471 65.1356 23.4541L67.5226 31.7463C67.6371 32.1629 67.787 32.3673 67.9764 32.3673C68.0711 32.3673 68.1618 32.3162 68.2447 32.2101C68.3315 32.1079 68.4025 31.9586 68.4577 31.7699L70.4739 25.7728C70.6238 25.3758 70.7027 24.9711 70.7027 24.5545C70.7027 24.1969 70.6277 23.7135 70.4739 23.1122C70.3792 22.7742 70.2213 22.4559 70.0043 22.1651C69.7873 21.8742 69.5151 21.6502 69.1955 21.5009C68.9115 21.3712 68.7063 21.2022 68.584 21.0057C68.4617 20.8092 68.3985 20.5302 68.3985 20.1726C68.3985 19.3787 69.0693 18.9857 70.4147 18.9857H75.3583C76.1553 18.9857 76.7235 19.084 77.0628 19.2844C77.4021 19.4809 77.5757 19.7992 77.5757 20.2315C77.5757 20.4752 77.5086 20.7031 77.3784 20.9114C77.2443 21.1197 77.0549 21.269 76.8103 21.3633C76.3171 21.5716 75.9975 21.7681 75.8436 21.9568C75.7292 22.0904 75.674 22.2594 75.674 22.4677C75.674 22.6563 75.7292 22.9393 75.8436 23.3165L78.3451 31.8053C78.4595 32.1433 78.6094 32.3162 78.7988 32.3162C78.9882 32.3162 79.1381 32.1472 79.2525 31.8053L82.2077 23.0611C82.3023 22.7781 82.3497 22.562 82.3497 22.4087C82.3497 22.1808 82.2511 22 82.0498 21.8585C81.8526 21.717 81.458 21.5441 80.8701 21.3358C80.6413 21.2415 80.4638 21.1 80.3296 20.9114C80.1955 20.7228 80.1323 20.4948 80.1323 20.2315C80.1323 19.7796 80.298 19.4573 80.6295 19.2687C80.9609 19.08 81.533 18.9857 82.3497 18.9857H85.9282C86.4964 18.9857 86.9422 19.084 87.2618 19.2844C87.5853 19.4809 87.7431 19.7796 87.7431 20.1765C87.7431 20.5145 87.6563 20.7738 87.4867 20.9546C87.317 21.1354 87.0685 21.2808 86.7489 21.3948C86.1413 21.6031 85.6915 21.8467 85.3995 22.1297C85.1076 22.4126 84.8551 22.8567 84.646 23.458L80.0732 36.8435C79.8285 37.5234 79.4853 38.0422 79.0513 38.3998C78.6173 38.7574 78.0965 38.9382 77.4889 38.9382H77.3745C76.7314 38.9382 76.1474 38.7653 75.6266 38.4155C75.1058 38.0657 74.7507 37.5706 74.5613 36.93L72.4308 29.518C72.3164 29.1604 72.1941 28.9796 72.0599 28.9796C71.9258 28.9796 71.7956 29.1604 71.6614 29.518C70.5251 32.7996 69.665 35.2637 69.0772 36.9025C68.8483 37.5627 68.5051 38.0657 68.0395 38.4155C67.5739 38.7653 67.0689 38.9382 66.5205 38.9382H66.3785L66.3864 38.9343Z" fill="black"/>
<path d="M85.6481 37.9871C84.8906 37.2247 84.5118 36.2462 84.5118 35.0593C84.5118 33.6995 85.1076 32.6031 86.303 31.7621C87.4946 30.921 89.0491 30.4259 90.9626 30.2765C91.5702 30.2215 92.0161 30.1547 92.312 30.08C92.6039 30.0054 92.8052 29.8875 92.9077 29.7263C93.0103 29.5652 93.0458 29.3333 93.0064 29.0347L92.9511 28.5552C92.8762 27.95 92.7184 27.498 92.4816 27.1954C92.2449 26.8928 91.8504 26.7435 91.3019 26.7435C90.868 26.7435 90.4734 26.8771 90.1223 27.1404C89.7711 27.4037 89.5304 27.8006 89.3963 28.3273C89.2464 28.9128 88.9899 29.3451 88.6309 29.6281C88.2718 29.911 87.7708 30.0525 87.1237 30.0525C86.7252 30.0525 86.3662 29.911 86.0426 29.6281C85.7191 29.3451 85.5613 28.9678 85.5613 28.4962C85.5613 27.722 85.8769 27.0304 86.5122 26.4173C87.1474 25.8042 87.9996 25.3287 89.0688 24.9868C90.138 24.6488 91.298 24.4759 92.5487 24.4759C93.9138 24.4759 94.987 24.6685 95.7722 25.0575C96.5573 25.4427 97.1294 25.9968 97.4924 26.712C97.8514 27.4312 98.1079 28.3351 98.2578 29.4276L98.9127 34.293C98.9877 34.7842 99.0863 35.1104 99.2126 35.2676C99.3349 35.4287 99.5125 35.5073 99.7373 35.5073C99.9464 35.5073 100.14 35.4641 100.321 35.3816C100.503 35.299 100.637 35.2558 100.732 35.2558C101.166 35.2558 101.387 35.5191 101.387 36.0497C101.387 36.5016 101.229 36.9614 100.917 37.4212C100.605 37.885 100.179 38.2662 99.6387 38.5688C99.0982 38.8714 98.5064 39.0207 97.8633 39.0207C96.9913 39.0207 96.3166 38.8557 95.8313 38.5255C95.35 38.1954 94.9831 37.7199 94.7384 37.095C94.6635 36.8867 94.5688 36.7846 94.4544 36.7846C94.3991 36.7846 94.2137 36.9968 93.902 37.4212C93.5903 37.8457 93.0695 38.2387 92.3396 38.5963C91.6097 38.9539 90.6115 39.1347 89.341 39.1347C87.6366 39.1347 86.4056 38.7535 85.6481 37.9871ZM93.1208 35.637C93.4798 35.1929 93.6613 34.5956 93.6613 33.841C93.6613 33.727 93.6416 33.503 93.6061 33.1611L93.5785 32.9646C93.5232 32.548 93.3852 32.2769 93.1682 32.1433C92.9511 32.0136 92.5645 31.9468 92.0161 31.9468C90.5563 31.9468 89.8303 32.6935 89.8303 34.1829C89.8303 34.8825 90.0039 35.4091 90.355 35.7667C90.7062 36.1243 91.1757 36.3051 91.7596 36.3051C92.308 36.3051 92.7618 36.085 93.1247 35.6409L93.1208 35.637Z" fill="black"/>
<path d="M102.42 38.722C101.919 38.5413 101.667 38.2465 101.667 37.8299C101.667 37.4134 101.876 37.1225 102.29 36.8946C102.838 36.6116 103.182 36.2422 103.312 35.7903C103.442 35.3383 103.509 34.6388 103.509 33.6956V23.6506C103.509 23.179 103.458 22.8096 103.351 22.5463C103.245 22.283 103.052 22.1218 102.767 22.0668C102.369 21.9725 102.065 21.8624 101.86 21.7406C101.651 21.6188 101.548 21.4341 101.548 21.1904C101.548 20.8878 101.659 20.6559 101.876 20.4987C102.093 20.3376 102.448 20.1647 102.941 19.9761C104.949 19.2019 106.437 18.8167 107.399 18.8167C107.893 18.8167 108.24 18.8992 108.449 19.0564C108.658 19.2176 108.761 19.5123 108.761 19.9485V33.672C108.761 34.6349 108.828 35.3265 108.958 35.751C109.088 36.1754 109.423 36.5488 109.952 36.8671C110.181 37.0007 110.351 37.1343 110.465 37.2758C110.579 37.4173 110.635 37.602 110.635 37.826C110.635 38.109 110.548 38.333 110.378 38.4902C110.209 38.6513 109.861 38.7731 109.341 38.8596C108.82 38.946 108.058 38.9853 107.052 38.9853H105.293C103.872 38.9853 102.909 38.895 102.408 38.7181L102.42 38.722Z" fill="black"/>
<path d="M111.881 38.667C111.511 38.5059 111.329 38.2269 111.329 37.8339C111.329 37.4409 111.546 37.1068 111.984 36.8985C112.572 36.6156 112.939 36.2462 113.093 35.7942C113.243 35.3423 113.322 34.6231 113.322 33.6445V23.6545C113.322 23.2026 113.27 22.8371 113.164 22.5659C113.061 22.2908 112.864 22.1258 112.58 22.0707C112.201 21.9961 111.901 21.8978 111.684 21.7721C111.467 21.6502 111.357 21.4577 111.357 21.1904C111.357 20.8878 111.467 20.6559 111.684 20.4987C111.901 20.3376 112.256 20.1647 112.749 19.9761C114.758 19.2019 116.245 18.8167 117.208 18.8167C117.701 18.8167 118.052 18.8992 118.257 19.0564C118.466 19.2176 118.569 19.5123 118.569 19.9485V28.9168C118.569 29.4277 118.691 29.6792 118.94 29.6792C119.09 29.6792 119.271 29.577 119.48 29.3687L121.355 27.502C121.564 27.2937 121.666 27.0775 121.666 26.8496C121.666 26.6609 121.504 26.5391 121.185 26.4802C121.015 26.4409 120.877 26.3583 120.775 26.2247C120.672 26.0911 120.617 25.9221 120.617 25.7138C120.617 25.0929 121.213 24.7785 122.408 24.7785H126.156C126.724 24.7785 127.154 24.8335 127.45 24.9475C127.746 25.0614 127.892 25.3523 127.892 25.8239C127.892 26.2208 127.794 26.4998 127.592 26.657C127.395 26.8181 127.123 26.9164 126.783 26.9557C126.255 26.995 125.817 27.0775 125.478 27.2111C125.138 27.3448 124.834 27.5413 124.57 27.8046L123.773 28.567C123.564 28.7753 123.461 28.9639 123.461 29.1329C123.461 29.2665 123.528 29.4355 123.659 29.6438L127.324 35.189C127.663 35.6802 127.92 36.0104 128.089 36.1793C128.259 36.3483 128.476 36.4898 128.744 36.6038C128.973 36.6981 129.17 36.8435 129.34 37.0439C129.51 37.2404 129.597 37.4644 129.597 37.7081C129.597 38.105 129.415 38.3998 129.056 38.6002C128.697 38.7967 128.212 38.8989 127.608 38.8989L126.018 38.8714L124.4 38.8989C123.414 38.8989 122.743 38.8124 122.384 38.6434C122.025 38.4745 121.844 38.1994 121.844 37.8221C121.844 37.6138 121.931 37.4094 122.1 37.2011C122.25 36.9732 122.329 36.7767 122.329 36.6077C122.329 36.4191 122.234 36.1754 122.045 35.8728L120.285 33.2122C120.056 32.8742 119.859 32.7013 119.69 32.7013C119.54 32.7013 119.378 32.7878 119.208 32.9568L118.979 33.1533C118.829 33.2869 118.723 33.4519 118.668 33.6484C118.612 33.8449 118.581 34.1436 118.581 34.5405V34.7685C118.581 35.1851 118.66 35.5623 118.822 35.9003C118.983 36.2383 119.338 36.5527 119.887 36.8357C120.116 36.9693 120.289 37.1029 120.412 37.2444C120.534 37.3858 120.597 37.5784 120.597 37.826C120.597 38.2229 120.431 38.502 120.1 38.6592C119.768 38.8203 119.137 38.8989 118.21 38.8989L115.993 38.8714L113.834 38.8989C112.907 38.8989 112.256 38.8164 111.889 38.6592L111.881 38.667Z" fill="black"/>
<path d="M132.788 38.1443C131.644 37.4841 130.76 36.592 130.145 35.472C129.53 34.348 129.222 33.1179 129.222 31.7778C129.222 30.3433 129.573 29.0818 130.271 27.9853C130.974 26.8928 131.909 26.0439 133.084 25.4387C134.26 24.8335 135.527 24.5348 136.892 24.5348C138.257 24.5348 139.322 24.7981 140.257 25.3287C141.196 25.8553 141.906 26.5116 142.388 27.2937C142.869 28.0757 143.114 28.8264 143.114 29.5416C143.114 30.3355 142.928 30.9053 142.561 31.2551C142.191 31.6049 141.543 31.8446 140.616 31.9782L135.7 32.6856C135.471 32.7052 135.318 32.7485 135.231 32.8114C135.144 32.8742 135.104 32.9843 135.104 33.1375C135.104 33.4952 135.243 33.8725 135.515 34.2694C135.791 34.6663 136.193 35.0043 136.722 35.2872C137.251 35.5702 137.858 35.7117 138.541 35.7117C139.298 35.7117 139.969 35.5663 140.557 35.2715C141.145 34.9807 141.599 34.6427 141.922 34.2654C142.072 34.1161 142.234 34.0375 142.404 34.0375C142.668 34.0375 142.861 34.1122 142.988 34.2654C143.11 34.4148 143.173 34.6034 143.173 34.8314C143.173 34.965 143.165 35.0593 143.145 35.1143C142.842 36.1911 142.155 37.1265 141.086 37.9282C140.017 38.7299 138.58 39.1308 136.781 39.1308C135.266 39.1308 133.937 38.8006 132.788 38.1404V38.1443ZM137.349 30.08C137.673 30.025 137.898 29.9228 138.032 29.7813C138.166 29.6399 138.229 29.4473 138.229 29.1997C138.229 28.8617 138.139 28.4962 137.961 28.1111C137.779 27.726 137.539 27.3998 137.235 27.1365C136.931 26.8732 136.6 26.7395 136.241 26.7395C135.065 26.7395 134.481 27.6277 134.481 29.4001C134.481 29.8364 134.521 30.1311 134.596 30.2922C134.67 30.4534 134.793 30.532 134.966 30.532L135.306 30.477L137.349 30.08Z" fill="black"/>
<path d="M144.664 38.722C144.163 38.5413 143.911 38.2465 143.911 37.8299C143.911 37.4134 144.12 37.1225 144.534 36.8946C145.083 36.6116 145.426 36.2422 145.556 35.7903C145.686 35.3383 145.753 34.6388 145.753 33.6956V29.4787C145.753 29.0071 145.702 28.6417 145.595 28.3744C145.493 28.1111 145.296 27.95 145.012 27.895C144.613 27.8006 144.309 27.6906 144.104 27.5688C143.895 27.4469 143.792 27.2622 143.792 27.0186C143.792 26.716 143.903 26.4841 144.12 26.3269C144.337 26.1658 144.692 25.9929 145.185 25.8042C147.193 25.03 148.681 24.6449 149.644 24.6449C150.137 24.6449 150.488 24.7274 150.693 24.8846C150.902 25.0457 151.005 25.3405 151.005 25.7767V26.712C151.005 27.1286 151.052 27.333 151.147 27.333C151.186 27.333 151.36 27.0697 151.671 26.5391C151.983 26.0086 152.421 25.533 152.977 25.1086C153.538 24.6842 154.24 24.472 155.092 24.472C156 24.472 156.71 24.7706 157.223 25.3641C157.736 25.9575 157.988 26.8221 157.988 27.9539C157.988 28.6888 157.747 29.3648 157.262 29.9778C156.781 30.5909 156.157 30.8975 155.4 30.8975C154.871 30.8975 154.421 30.7521 154.051 30.4573C153.68 30.1665 153.498 29.7263 153.498 29.1408C153.498 28.8578 153.455 28.6259 153.372 28.4491C153.285 28.2683 153.092 28.1818 152.788 28.1818C152.295 28.1818 151.873 28.5395 151.525 29.2587C151.174 29.9739 151.001 30.8228 151.001 31.8053V33.672C151.001 34.6349 151.068 35.3265 151.198 35.751C151.328 36.1754 151.664 36.5488 152.192 36.8671C152.421 37.0007 152.591 37.1343 152.705 37.2758C152.82 37.4173 152.875 37.602 152.875 37.826C152.875 38.109 152.788 38.333 152.618 38.4902C152.449 38.6513 152.102 38.7731 151.581 38.8596C151.06 38.946 150.298 38.9853 149.292 38.9853H147.533C146.112 38.9853 145.15 38.895 144.649 38.7181L144.664 38.722Z" fill="black"/>
</svg>
