<svg width="95" height="27" viewBox="0 0 95 27" fill="none" xmlns="http://www.w3.org/2000/svg">
<g clip-path="url(#clip0_188_26)">
<path d="M27.2384 7.7966C27.2835 7.84966 27.3285 7.90271 27.3736 7.95336C27.6275 8.24275 27.8908 8.5249 28.1304 8.82635C28.5194 9.31348 28.8634 9.83439 29.1955 10.3625C29.3829 10.6591 29.5727 10.9558 29.7411 11.262C29.9997 11.7299 30.2464 12.205 30.4884 12.6825C30.8229 13.3408 31.1099 14.0209 31.3804 14.7082C31.5037 15.0193 31.601 15.34 31.7125 15.6559C31.7386 15.7307 31.7671 15.8079 31.7908 15.8826C31.8145 15.9598 31.8074 15.967 31.7267 15.967C31.5631 15.967 31.4017 15.967 31.238 15.967C30.8371 15.967 30.4362 15.967 30.0353 15.9694C29.9404 15.9694 29.893 15.9284 29.8479 15.8464C29.7127 15.5956 29.568 15.3497 29.4233 15.1037C29.3236 14.93 29.2264 14.754 29.1149 14.59C28.8207 14.1559 28.5052 13.7363 28.1565 13.3432C27.7532 12.8899 27.3048 12.4871 26.8161 12.135C26.28 11.7468 25.7012 11.4333 25.0867 11.1873C24.6574 11.0161 24.2114 10.8907 23.7654 10.7797C23.4712 10.7074 23.1676 10.6664 22.8663 10.6206C22.6338 10.5844 22.399 10.5627 22.1665 10.5362C22.157 10.5362 22.1475 10.5362 22.138 10.5362C21.6256 10.5313 21.1132 10.5169 20.6008 10.5265C20.2615 10.5313 19.9223 10.5554 19.5854 10.5964C19.0991 10.6567 18.6128 10.7267 18.1289 10.8159C17.6758 10.8979 17.2274 11.0088 16.7791 11.1125C16.0697 11.2741 15.3818 11.4984 14.7128 11.7805C14.2882 11.9614 13.873 12.1664 13.5029 12.4509C13.344 12.5739 13.2491 12.7452 13.1329 12.8995C13.0356 13.0321 12.936 13.1624 12.7936 13.2516C12.6181 13.3601 12.4236 13.43 12.2195 13.4204C11.9728 13.4059 11.7997 13.2492 11.6905 13.0394C11.5174 12.7066 11.5007 12.3569 11.6289 12.0024C11.7332 11.7154 11.9135 11.4767 12.1413 11.2789C12.3714 11.0788 12.6086 10.881 12.8577 10.705C13.3748 10.336 13.9347 10.0394 14.5064 9.76686C14.9571 9.55223 15.4245 9.38824 15.8966 9.22908C16.0365 9.18085 16.0199 9.20014 15.9938 9.05786C15.9701 8.93004 15.9464 8.80223 15.9203 8.67442C15.9108 8.62136 15.9274 8.59484 15.9772 8.57072C16.1741 8.46943 16.371 8.37056 16.5608 8.2548C16.9807 7.99676 17.3033 7.63744 17.5714 7.22265C17.6212 7.14548 17.6544 7.05866 17.7066 6.9839C17.7351 6.94049 17.7802 6.89226 17.8252 6.87538C18.2546 6.74033 18.6365 6.51123 18.9995 6.24596C19.2913 6.03133 19.538 5.77329 19.723 5.45979C19.7491 5.41638 19.78 5.37297 19.8013 5.32715C19.8203 5.28374 19.844 5.28615 19.8796 5.30062C20.1002 5.39467 20.3185 5.49596 20.5415 5.58278C20.8261 5.69371 21.1132 5.79741 21.4002 5.90111C21.5971 5.97104 21.7964 6.04339 21.9981 6.09886C22.3515 6.19773 22.7097 6.28455 23.0656 6.37619C23.1794 6.40513 23.2957 6.4413 23.4119 6.463C23.8674 6.545 24.3252 6.62458 24.7807 6.69693C25.3145 6.78374 25.8554 6.79339 26.3962 6.81992C26.911 6.84644 27.4258 6.81027 27.9382 6.78374C28.2585 6.76686 28.5764 6.71622 28.8966 6.68246C28.9986 6.67281 29.1006 6.65352 29.1979 6.70898C29.3141 6.77651 29.3474 6.90432 29.2738 7.01767C29.1765 7.16236 29.039 7.25159 28.8824 7.31188C28.4103 7.48792 27.9311 7.64467 27.4377 7.74596C27.3784 7.75802 27.3191 7.76525 27.2598 7.7749C27.255 7.78214 27.2526 7.78937 27.2479 7.7966H27.2384Z" fill="#F7931E"/>
<path d="M11.821 2.99034C11.8139 2.97587 11.8092 2.95899 11.7997 2.94693C11.5791 2.67201 11.4604 2.34886 11.3656 2.01124C11.3015 1.78696 11.2968 1.55786 11.3418 1.33117C11.3727 1.18166 11.4604 1.09243 11.6099 1.07555C11.9823 1.03455 12.3548 1.00079 12.7272 0.964615C12.7865 0.959792 12.8482 0.950145 12.9075 0.940499C13.0499 0.921207 13.1922 0.901914 13.3345 0.882621C13.5741 0.851271 13.7639 0.733104 13.93 0.55947C14.1577 0.318313 14.4448 0.180853 14.765 0.0988593C15.2585 -0.0289542 15.7566 -0.0120732 16.2572 0.026512C16.5181 0.0458046 16.7815 0.072332 17.04 0.118152C17.3935 0.180853 17.7446 0.262846 18.0482 0.46783C18.1763 0.554647 18.295 0.660756 18.4041 0.7741C18.7006 1.07314 18.9118 1.42764 18.9948 1.84725C19.0304 2.02571 19.047 2.20658 19.0731 2.38744C19.111 2.67683 19.1537 2.96863 19.1846 3.25802C19.1964 3.36413 19.1941 3.47507 19.1798 3.58117C19.1656 3.69211 19.0897 3.76204 18.9853 3.80063C18.767 3.88262 18.5417 3.86574 18.3234 3.82233C17.9605 3.7524 17.6331 3.59564 17.3674 3.32555C17.0638 3.01928 16.8882 2.64307 16.8075 2.22105C16.7767 2.06429 16.7696 1.90272 16.7506 1.74355C16.7482 1.72185 16.7435 1.69773 16.7364 1.65433C16.7079 1.68809 16.6866 1.70497 16.6747 1.72667C16.5822 1.88343 16.5513 2.05947 16.5442 2.23552C16.53 2.71301 16.6439 3.15433 16.8977 3.56188C17.1017 3.88986 17.3888 4.10449 17.728 4.24677C18.0672 4.38905 18.4159 4.39629 18.7647 4.27088C18.8097 4.254 18.8572 4.23953 18.9046 4.22265C18.9378 4.2106 18.9616 4.21542 18.9758 4.25159C19.0351 4.40352 19.0826 4.56027 19.0707 4.72667C19.0612 4.85208 19.0161 4.96542 18.9307 5.05947C18.6698 5.35127 18.3377 5.53455 17.9889 5.69613C17.728 5.81671 17.467 5.93728 17.1824 5.99275C16.9523 6.03857 16.7198 6.07233 16.4849 6.10127C16.1148 6.14709 15.7471 6.09645 15.3818 6.03616C15.3367 6.02892 15.3154 6.00722 15.3012 5.96381C15.2015 5.61896 15.0829 5.27892 14.9097 4.96542C14.7105 4.60368 14.4732 4.26847 14.1435 4.01043C13.9395 3.85127 13.7212 3.72587 13.4745 3.65352C13.261 3.59082 13.2705 3.59564 13.1993 3.79822C13.1139 4.04179 13.0167 4.28294 12.9146 4.52169C12.7344 4.95336 12.5636 5.38744 12.4663 5.84806C12.3785 6.26526 12.3738 6.68728 12.4687 7.10208C12.5446 7.43487 12.7296 7.70738 12.9858 7.93407C13.3298 8.23793 13.7355 8.36815 14.1791 8.41397C14.6891 8.46703 15.1754 8.38262 15.6499 8.1897C15.797 8.12941 15.797 8.13182 15.7543 7.97507C15.6902 7.74597 15.6238 7.51687 15.5597 7.28777C15.5384 7.21301 15.5455 7.20577 15.6262 7.20577C16.0793 7.20818 16.53 7.19854 16.9736 7.09484C17.0163 7.08519 17.0638 7.05867 17.0875 7.0249C17.1563 6.9188 17.2156 6.80545 17.2701 6.69211C17.2844 6.66317 17.282 6.61253 17.2678 6.58117C17.1895 6.40995 17.2725 6.2749 17.3864 6.20015C17.4931 6.1278 17.6592 6.17121 17.7398 6.28455C17.849 6.43648 17.8015 6.63905 17.6284 6.71622C17.5643 6.74516 17.5311 6.78857 17.5026 6.84645C17.3223 7.21542 17.0709 7.52651 16.7743 7.80625C16.3023 8.25481 15.74 8.51526 15.1161 8.64789C14.5681 8.76365 14.0201 8.72989 13.4911 8.54902C13.1732 8.4405 12.9004 8.25722 12.6656 8.00883C12.3477 7.67362 12.1792 7.27812 12.1508 6.81751C12.1318 6.50159 12.1176 6.18568 12.184 5.87699C12.2457 5.59484 12.3192 5.31027 12.4188 5.04018C12.5541 4.66638 12.7201 4.30224 12.8672 3.93326C12.9052 3.8368 12.9241 3.7331 12.9526 3.63423C12.9692 3.57394 12.9455 3.545 12.8909 3.53053C12.7794 3.50159 12.6632 3.47989 12.5541 3.43648C12.4094 3.38101 12.267 3.31108 12.1318 3.23873C12.0677 3.20497 12.0179 3.19773 11.9586 3.23632C11.7238 3.38343 11.5458 3.58841 11.3893 3.81269C11.2398 4.0249 11.1307 4.26365 11.069 4.51445C11.0121 4.74114 10.9741 4.97265 10.9528 5.20658C10.8982 5.795 10.9172 6.38343 10.9504 6.97185C10.9718 7.34564 11.005 7.71703 11.0168 8.09082C11.0239 8.31269 11.005 8.53455 10.9955 8.75642C10.9931 8.82635 10.9884 8.88905 11.0619 8.93487C11.088 8.95175 11.1093 9.00481 11.1046 9.03857C11.0975 9.10851 11.0785 9.17603 11.0548 9.24114C10.9884 9.4196 10.9148 9.59564 10.8484 9.77651C10.8247 9.84163 10.7867 9.87298 10.7179 9.88262C10.6302 9.89468 10.6183 9.90915 10.6373 9.99355C10.6871 10.2395 10.7393 10.4831 10.7962 10.7267C10.8365 10.9027 10.8437 11.0836 10.801 11.2548C10.7227 11.5731 10.5803 11.8625 10.3312 12.0844C9.98489 12.3931 9.57449 12.2894 9.37047 11.8939C9.27084 11.6985 9.25898 11.4839 9.26609 11.2717C9.27558 10.9702 9.32303 10.676 9.42978 10.3915C9.53416 10.1117 9.7192 9.91638 9.99913 9.81992C10.0845 9.79098 10.1747 9.76928 10.2601 9.73793C10.2791 9.73069 10.3051 9.70175 10.3028 9.6897C10.2767 9.60047 10.3099 9.51847 10.3384 9.4413C10.4024 9.25802 10.4736 9.07474 10.5495 8.89388C10.5661 8.8577 10.6112 8.82394 10.6491 8.80706C10.7013 8.78777 10.725 8.75642 10.7298 8.70577C10.7345 8.65272 10.7416 8.59725 10.7416 8.5442C10.7535 7.98712 10.6942 7.43487 10.6657 6.88021C10.6278 6.18085 10.6064 5.4815 10.7227 4.78455C10.801 4.32876 10.9765 3.9188 11.2469 3.54741C11.4035 3.33278 11.5862 3.14709 11.8092 3.00481C11.8139 3.0024 11.8187 2.99516 11.8258 2.98793L11.821 2.99034ZM9.54128 11.2452C9.53653 11.4284 9.53653 11.578 9.59347 11.7227C9.66938 11.9156 9.81883 12.0072 9.98252 11.9518C10.0489 11.93 10.1177 11.8915 10.1699 11.8456C10.4665 11.578 10.5827 11.2379 10.521 10.8448C10.4854 10.6182 10.4214 10.3987 10.3811 10.172C10.3478 9.98391 10.3573 10.0153 10.1889 10.0538C9.89 10.1238 9.72157 10.3191 9.63854 10.6109C9.57686 10.828 9.55077 11.0498 9.5389 11.2452H9.54128Z" fill="#F7931E"/>
<path d="M15.6333 16.254C15.6618 16.1962 15.6784 16.1527 15.7021 16.1117C15.9535 15.6897 16.1267 15.2339 16.2382 14.7564C16.3497 14.2765 16.428 13.7894 16.4588 13.295C16.4873 12.8682 16.4992 12.4413 16.4944 12.0121C16.4944 11.9421 16.4849 11.8698 16.4849 11.7999C16.4849 11.7757 16.5063 11.7372 16.5229 11.7323C16.8858 11.6286 17.2464 11.5201 17.6118 11.4285C17.913 11.3537 18.2167 11.3007 18.5203 11.238C18.5369 11.2355 18.5536 11.2331 18.5678 11.2331C18.6603 11.2283 18.6579 11.2331 18.6532 11.3248C18.6413 11.5249 18.639 11.7275 18.6223 11.9277C18.5915 12.2918 18.5512 12.656 18.5203 13.0201C18.4753 13.529 18.3827 14.0306 18.276 14.5298C18.1526 15.1037 17.9557 15.656 17.747 16.201C17.7304 16.242 17.709 16.2564 17.6687 16.254C17.5975 16.254 17.524 16.254 17.4528 16.254C16.8764 16.254 16.2975 16.254 15.7211 16.254C15.695 16.254 15.6712 16.254 15.6285 16.254H15.6333Z" fill="#F7931E"/>
<path d="M22.7169 11.1632C22.7453 11.1632 22.7762 11.1608 22.8046 11.1632C23.3479 11.2404 23.8816 11.3465 24.4035 11.5177C24.738 11.6286 25.0702 11.7444 25.388 11.8939C25.5422 11.9662 25.6941 12.0458 25.8459 12.1182C26.038 12.2098 26.1756 12.3593 26.2942 12.533C26.5908 12.967 26.8019 13.4397 26.9561 13.9413C27.1506 14.5683 27.2242 15.2146 27.2147 15.873C27.2147 15.9695 27.2147 15.9719 27.1151 15.9719C26.4627 15.9719 25.8103 15.9719 25.1579 15.9719C25.0559 15.9719 25.0583 15.9719 25.0749 15.8682C25.1057 15.6777 25.1437 15.4871 25.1556 15.2942C25.1769 14.9156 25.0939 14.5514 24.9848 14.1945C24.7618 13.4469 24.3419 12.8151 23.8437 12.2315C23.5353 11.8698 23.1795 11.5563 22.807 11.2621C22.7738 11.2355 22.7358 11.2114 22.7003 11.1873C22.7026 11.1801 22.705 11.1728 22.7074 11.1656L22.7169 11.1632Z" fill="#F7931E"/>
<path d="M3.55367 23.8746C2.48378 23.8288 1.67483 23.8047 1.12921 23.8047C0.706945 23.8047 0.417528 23.7588 0.258586 23.6648C0.0996435 23.5731 0.0189863 23.3995 0.0189863 23.1439C0.0189863 22.9124 0.18979 22.6519 0.531397 22.3625C0.839792 22.0973 1.04618 21.8368 1.1553 21.5812C1.26443 21.3256 1.31662 20.9614 1.31662 20.4863V14.9638C1.31662 14.4887 1.26206 14.1246 1.1553 13.869C1.04618 13.6133 0.832676 13.3529 0.514791 13.0876C0.355849 12.9381 0.230118 12.803 0.139972 12.6873C0.0498258 12.5715 0.00238037 12.4437 0.00238037 12.3063C0.00238037 12.0506 0.0830376 11.877 0.24198 11.7854C0.400922 11.6937 0.692711 11.6455 1.1126 11.6455C1.71516 11.6455 2.5763 11.6165 3.69126 11.5587C4.17995 11.5249 4.65915 11.5056 5.12649 11.5056C6.56171 11.5056 7.83088 11.7419 8.93636 12.217C10.0418 12.6921 10.9053 13.4059 11.5316 14.3609C12.1579 15.3159 12.471 16.4928 12.471 17.8939C12.471 19.9075 11.8424 21.4196 10.5827 22.4252C9.32541 23.4333 7.58416 23.9349 5.36371 23.9349C5.06718 23.9349 4.46462 23.9108 3.55367 23.8649V23.8746ZM8.06336 21.1495C8.56391 20.3392 8.81537 19.1937 8.81537 17.7106C8.81537 16.7725 8.6588 15.9453 8.34566 15.2267C8.03252 14.508 7.60314 13.9534 7.05514 13.5603C6.50952 13.1672 5.90459 12.9694 5.2451 12.9694C5.04109 12.9694 4.88689 13.0177 4.78488 13.1165C4.68287 13.2154 4.63068 13.3794 4.63068 13.6109V21.4775C4.63068 21.8368 4.72557 22.0731 4.91298 22.1889C5.10039 22.3047 5.41116 22.3625 5.84291 22.3625C6.82266 22.3625 7.56281 21.9574 8.06336 21.1471V21.1495Z" fill="white" fill-opacity="0.16"/>
<path d="M15.5597 23.4333C14.7958 23.045 14.2051 22.5096 13.7829 21.8272C13.3606 21.1447 13.1519 20.3754 13.1519 19.5169C13.1519 18.6584 13.363 17.8722 13.7829 17.1897C14.2051 16.5072 14.7958 15.9743 15.5597 15.5932C16.3236 15.2122 17.1942 15.0193 18.174 15.0193C19.1537 15.0193 20.0053 15.2098 20.7621 15.5932C21.5189 15.9743 22.1096 16.5072 22.5294 17.1897C22.9517 17.8722 23.1605 18.6487 23.1605 19.5169C23.1605 20.385 22.9493 21.1616 22.5294 21.844C22.1072 22.5265 21.5189 23.0595 20.7621 23.4405C20.0053 23.8215 19.1418 24.0145 18.174 24.0145C17.2061 24.0145 16.3236 23.8215 15.5597 23.4333ZM19.455 22.1648C19.7064 21.8344 19.8298 21.369 19.8298 20.7661C19.8298 20.1994 19.7491 19.5699 19.5902 18.8826C19.4313 18.1929 19.2011 17.6093 18.8975 17.1294C18.5962 16.6495 18.2404 16.4084 17.83 16.4084C17.4196 16.4084 17.1064 16.5723 16.8573 16.9027C16.6059 17.2331 16.4825 17.6865 16.4825 18.2653C16.4825 18.844 16.5584 19.4952 16.7126 20.1849C16.8668 20.8746 17.0946 21.4582 17.3959 21.9381C17.6971 22.418 18.0482 22.6592 18.4468 22.6592C18.869 22.6592 19.2035 22.4952 19.455 22.1648Z" fill="white" fill-opacity="0.16"/>
<path d="M33.1881 24.0145C33.1881 24.9405 32.7611 25.6688 31.9071 26.2018C31.0531 26.7347 29.9262 27 28.5242 27C27.9786 27 27.4282 26.9397 26.8755 26.8167C26.3228 26.6961 25.8317 26.5177 25.3976 26.2862C24.954 26.0546 24.6029 25.7773 24.3467 25.4518C24.0904 25.1262 23.9623 24.762 23.9623 24.3569C23.9623 23.9518 24.0904 23.6214 24.3467 23.4019C24.6029 23.1825 24.9184 23.0715 25.2956 23.0715C25.6728 23.0715 26.0523 23.1825 26.4058 23.4019C26.7593 23.6214 27.0202 23.9349 27.191 24.34C27.3381 24.6993 27.5492 24.9887 27.822 25.2082C28.1755 25.4976 28.5503 25.6423 28.9489 25.6423C29.2905 25.6302 29.5751 25.5145 29.8029 25.295C30.0306 25.0755 30.1445 24.7669 30.1445 24.3738C30.1445 23.8288 29.9642 23.3609 29.606 22.9678C29.2478 22.5747 28.7709 22.3601 28.1802 22.3264C27.3713 22.3264 26.643 22.172 25.993 21.8657C25.343 21.5595 24.8306 21.1302 24.4558 20.5804C24.081 20.0305 23.8912 19.3963 23.8912 18.68C23.8912 17.9638 24.0857 17.3296 24.4724 16.7797C24.8591 16.2299 25.3999 15.8006 26.095 15.4944C26.7901 15.1881 27.599 15.0337 28.5195 15.0337C29.122 15.0337 29.7104 15.1085 30.2797 15.2604C30.4173 15.2845 30.5074 15.2942 30.5525 15.2942C30.804 15.2942 30.9748 15.1977 31.0649 15.0072C31.1551 14.8167 31.2025 14.5418 31.2025 14.1825C31.2025 13.8014 31.3282 13.512 31.5773 13.3143C31.8288 13.1165 32.1182 13.0201 32.448 13.0201C32.7777 13.0201 33.0837 13.1334 33.3281 13.3577C33.5724 13.5844 33.6958 13.8473 33.6958 14.1487C33.6958 14.6358 33.5511 15.0579 33.2593 15.4172C32.9699 15.7765 32.5618 16.0297 32.0376 16.1817C32.7658 16.8545 33.1312 17.6865 33.1312 18.6825C33.1312 19.4011 32.9461 20.0305 32.5761 20.5755C32.206 21.1206 31.6793 21.5426 30.9961 21.844C32.4527 22.2034 33.1834 22.9268 33.1834 24.0145H33.1881ZM27.4401 16.8255C27.2408 17.1029 27.1412 17.4743 27.1412 17.9373C27.1412 18.8392 27.293 19.5675 27.5943 20.1173C27.8956 20.6672 28.2917 20.9421 28.7804 20.9421C29.1102 20.9421 29.3759 20.8022 29.5751 20.5249C29.7744 20.2476 29.874 19.8762 29.874 19.4132C29.874 18.5112 29.7222 17.7829 29.4209 17.2331C29.1197 16.6833 28.7187 16.4083 28.2158 16.4083C27.8979 16.4083 27.637 16.5482 27.4377 16.8255H27.4401Z" fill="white" fill-opacity="0.16"/>
<path d="M39.9158 23.8915C39.1069 23.8915 38.5494 23.4622 38.241 22.6061L35.4228 14.5659C35.2757 14.1366 35.1238 13.8376 34.9696 13.664C34.8155 13.4903 34.6019 13.3456 34.3291 13.2299C34.1251 13.1382 33.9733 13.0321 33.876 12.9164C33.7788 12.8006 33.7313 12.6439 33.7313 12.4485C33.7313 12.217 33.8025 12.0434 33.9448 11.9276C34.0872 11.8119 34.3054 11.7371 34.6019 11.7009C34.8985 11.6672 35.3255 11.6479 35.883 11.6479H38.4284C39.0666 11.6479 39.4912 11.7058 39.7 11.8215C39.9111 11.9373 40.0155 12.135 40.0155 12.4124C40.0155 12.5402 39.9751 12.6632 39.8969 12.7862C39.8162 12.9067 39.7261 12.9863 39.624 13.0201C39.4082 13.1021 39.254 13.1913 39.1638 13.2902C39.0737 13.389 39.0262 13.5193 39.0262 13.6808C39.0262 13.8424 39.0713 14.0812 39.1638 14.3923L40.599 19.4807C40.6678 19.7363 40.758 19.8617 40.8719 19.8617C40.9288 19.8617 40.9834 19.8304 41.0332 19.7653C41.0854 19.7025 41.1281 19.6109 41.1613 19.4952L42.3735 15.8151C42.4637 15.5715 42.5111 15.3231 42.5111 15.0675C42.5111 14.848 42.466 14.5514 42.3735 14.1825C42.3166 13.9751 42.2217 13.7797 42.0912 13.6013C41.9607 13.4228 41.797 13.2853 41.6049 13.1937C41.4341 13.1141 41.3107 13.0104 41.2372 12.8898C41.1637 12.7693 41.1257 12.598 41.1257 12.3786C41.1257 11.8915 41.529 11.6503 42.3379 11.6503H45.3104C45.7896 11.6503 46.1312 11.7106 46.3352 11.8336C46.5392 11.9542 46.6436 12.1495 46.6436 12.4148C46.6436 12.5643 46.6033 12.7042 46.525 12.832C46.4443 12.9598 46.3305 13.0514 46.1834 13.1093C45.8868 13.2371 45.6947 13.3577 45.6022 13.4735C45.5334 13.5554 45.5002 13.6591 45.5002 13.787C45.5002 13.9027 45.5334 14.0763 45.6022 14.3079L47.1062 19.5169C47.175 19.7243 47.2651 19.8304 47.379 19.8304C47.4929 19.8304 47.583 19.7267 47.6518 19.5169L49.4286 14.1511C49.4856 13.9775 49.514 13.8448 49.514 13.7508C49.514 13.6109 49.4547 13.5 49.3338 13.4132C49.2151 13.3263 48.9779 13.2202 48.6244 13.0924C48.4869 13.0345 48.3801 12.9477 48.2994 12.832C48.2188 12.7162 48.1808 12.5763 48.1808 12.4148C48.1808 12.1374 48.2805 11.9397 48.4797 11.8239C48.679 11.7082 49.023 11.6503 49.514 11.6503H51.6657C52.0073 11.6503 52.2754 11.7106 52.4675 11.8336C52.6621 11.9542 52.7569 12.1374 52.7569 12.381C52.7569 12.5884 52.7048 12.7476 52.6027 12.8585C52.5007 12.9694 52.3513 13.0587 52.1591 13.1286C51.7938 13.2564 51.5234 13.4059 51.3478 13.5796C51.1723 13.7532 51.0204 14.0257 50.8947 14.3947L48.1452 22.6085C47.9982 23.0257 47.7918 23.344 47.5308 23.5635C47.2699 23.7829 46.9567 23.8939 46.5914 23.8939H46.5226C46.1359 23.8939 45.7848 23.7878 45.4717 23.5731C45.1586 23.3585 44.9451 23.0546 44.8312 22.6616L43.5502 18.1133C43.4814 17.8939 43.4078 17.7829 43.3272 17.7829C43.2465 17.7829 43.1682 17.8939 43.0876 18.1133C42.4043 20.127 41.8872 21.639 41.5337 22.6447C41.3961 23.0498 41.1897 23.3585 40.9098 23.5731C40.6299 23.7878 40.3262 23.8939 39.9965 23.8939H39.9111L39.9158 23.8915Z" fill="white" fill-opacity="0.16"/>
<path d="M51.4973 23.3103C51.0418 22.8424 50.8141 22.242 50.8141 21.5137C50.8141 20.6793 51.1723 20.0064 51.8911 19.4903C52.6075 18.9743 53.5422 18.6704 54.6928 18.5788C55.0581 18.545 55.3261 18.504 55.5041 18.4582C55.6796 18.4124 55.8006 18.34 55.8623 18.2412C55.924 18.1423 55.9453 18 55.9216 17.8167L55.8884 17.5225C55.8433 17.1511 55.7484 16.8738 55.6061 16.6881C55.4637 16.5024 55.2265 16.4108 54.8968 16.4108C54.6358 16.4108 54.3986 16.4928 54.1875 16.6543C53.9763 16.8159 53.8316 17.0595 53.751 17.3826C53.6608 17.742 53.5066 18.0072 53.2907 18.1809C53.0749 18.3545 52.7736 18.4413 52.3845 18.4413C52.1449 18.4413 51.9291 18.3545 51.7345 18.1809C51.54 18.0072 51.4451 17.7757 51.4451 17.4863C51.4451 17.0112 51.6349 16.5868 52.0168 16.2106C52.3988 15.8344 52.9112 15.5426 53.5541 15.3328C54.1969 15.1254 54.8944 15.0193 55.6464 15.0193C56.4672 15.0193 57.1125 15.1375 57.5846 15.3762C58.0566 15.6125 58.4006 15.9526 58.6189 16.3915C58.8347 16.8328 58.9889 17.3875 59.0791 18.0579L59.4729 21.0434C59.518 21.3449 59.5773 21.545 59.6532 21.6415C59.7267 21.7403 59.8335 21.7886 59.9687 21.7886C60.0944 21.7886 60.2107 21.7621 60.3198 21.7114C60.4289 21.6608 60.5096 21.6342 60.5665 21.6342C60.8274 21.6342 60.9603 21.7958 60.9603 22.1214C60.9603 22.3987 60.8654 22.6809 60.678 22.963C60.4906 23.2476 60.2344 23.4815 59.9094 23.6672C59.5844 23.8529 59.2285 23.9445 58.8419 23.9445C58.3176 23.9445 57.9119 23.8432 57.6201 23.6407C57.3307 23.4381 57.1101 23.1463 56.963 22.7629C56.9179 22.635 56.861 22.5723 56.7922 22.5723C56.759 22.5723 56.6475 22.7026 56.4601 22.963C56.2727 23.2235 55.9595 23.4646 55.5207 23.6841C55.0818 23.9035 54.4816 24.0145 53.7177 24.0145C52.6929 24.0145 51.9528 23.7805 51.4973 23.3103ZM55.9904 21.8682C56.2063 21.5957 56.3154 21.2291 56.3154 20.7661C56.3154 20.6961 56.3035 20.5587 56.2822 20.3489L56.2656 20.2283C56.2324 19.9727 56.1493 19.8063 56.0189 19.7243C55.8884 19.6447 55.6559 19.6037 55.3261 19.6037C54.4484 19.6037 54.0119 20.0619 54.0119 20.9759C54.0119 21.4051 54.1163 21.7283 54.3274 21.9477C54.5386 22.1672 54.8209 22.2781 55.172 22.2781C55.5017 22.2781 55.7745 22.1431 55.9928 21.8706L55.9904 21.8682Z" fill="white" fill-opacity="0.16"/>
<path d="M61.5818 23.7613C61.2805 23.6503 61.1287 23.4695 61.1287 23.2138C61.1287 22.9582 61.2545 22.7797 61.5035 22.6399C61.8333 22.4662 62.0397 22.2396 62.118 21.9622C62.1962 21.6849 62.2366 21.2556 62.2366 20.6769V14.5129C62.2366 14.2235 62.2057 13.9968 62.1417 13.8352C62.0776 13.6736 61.9614 13.5748 61.7906 13.541C61.551 13.4831 61.3683 13.4156 61.245 13.3408C61.1192 13.2661 61.0576 13.1527 61.0576 13.0032C61.0576 12.8175 61.124 12.6752 61.2545 12.5788C61.3849 12.4799 61.5984 12.3738 61.895 12.258C63.1025 11.783 63.9968 11.5466 64.5756 11.5466C64.8722 11.5466 65.0809 11.5973 65.2067 11.6937C65.3324 11.7926 65.3941 11.9735 65.3941 12.2412V20.6624C65.3941 21.2532 65.4344 21.6777 65.5127 21.9381C65.591 22.1986 65.7926 22.4277 66.1105 22.623C66.2481 22.705 66.3501 22.787 66.4189 22.8738C66.4877 22.9606 66.5209 23.074 66.5209 23.2114C66.5209 23.3851 66.4687 23.5225 66.3667 23.619C66.2647 23.7179 66.0559 23.7926 65.7428 23.8457C65.4297 23.8987 64.9718 23.9228 64.3669 23.9228H63.3088C62.4548 23.9228 61.876 23.8674 61.5747 23.7588L61.5818 23.7613Z" fill="white" fill-opacity="0.16"/>
<path d="M67.2705 23.7275C67.0475 23.6286 66.9384 23.4574 66.9384 23.2162C66.9384 22.9751 67.0688 22.7701 67.3321 22.6423C67.6856 22.4687 67.9062 22.242 67.9988 21.9646C68.0889 21.6873 68.1363 21.246 68.1363 20.6455V14.5153C68.1363 14.2379 68.1055 14.0137 68.0415 13.8473C67.9798 13.6785 67.8612 13.5772 67.6904 13.5434C67.4626 13.4976 67.2823 13.4373 67.1519 13.3601C67.0214 13.2854 66.955 13.1672 66.955 13.0032C66.955 12.8175 67.0214 12.6752 67.1519 12.5788C67.2823 12.4799 67.4958 12.3738 67.7924 12.258C68.9999 11.783 69.8942 11.5466 70.473 11.5466C70.7696 11.5466 70.9807 11.5973 71.1041 11.6937C71.2298 11.7926 71.2915 11.9735 71.2915 12.2412V17.7444C71.2915 18.0579 71.365 18.2122 71.5145 18.2122C71.6046 18.2122 71.7137 18.1495 71.8395 18.0217L72.9663 16.8762C73.092 16.7484 73.1537 16.6158 73.1537 16.4759C73.1537 16.3601 73.0564 16.2854 72.8643 16.2492C72.7623 16.2251 72.6792 16.1744 72.6176 16.0925C72.5559 16.0105 72.5227 15.9068 72.5227 15.7789C72.5227 15.3979 72.8809 15.205 73.5997 15.205H75.8533C76.195 15.205 76.4535 15.2388 76.6315 15.3087C76.8094 15.3786 76.8971 15.5571 76.8971 15.8465C76.8971 16.09 76.8378 16.2613 76.7169 16.3577C76.5982 16.4566 76.4346 16.5169 76.2305 16.541C75.9127 16.5651 75.6493 16.6158 75.4453 16.6978C75.2413 16.7797 75.0586 16.9003 74.8997 17.0619L74.4205 17.5298C74.2948 17.6576 74.2331 17.7733 74.2331 17.877C74.2331 17.959 74.2734 18.0627 74.3517 18.1905L76.5555 21.5933C76.7596 21.8947 76.9138 22.0973 77.0158 22.201C77.1178 22.3047 77.2482 22.3915 77.4096 22.4614C77.5472 22.5193 77.6658 22.6085 77.7678 22.7315C77.8698 22.8521 77.922 22.9896 77.922 23.1391C77.922 23.3826 77.8128 23.5635 77.597 23.6865C77.3811 23.8071 77.0893 23.8698 76.7263 23.8698L75.7703 23.8529L74.7977 23.8698C74.2046 23.8698 73.8013 23.8167 73.5855 23.713C73.3696 23.6093 73.2605 23.4405 73.2605 23.209C73.2605 23.0812 73.3126 22.9558 73.4147 22.828C73.5048 22.6881 73.5522 22.5675 73.5522 22.4638C73.5522 22.3481 73.4953 22.1986 73.3814 22.0129L72.3234 20.3802C72.1858 20.1728 72.0672 20.0667 71.9652 20.0667C71.875 20.0667 71.7778 20.1198 71.6758 20.2235L71.5382 20.3441C71.448 20.4261 71.384 20.5273 71.3508 20.6479C71.3176 20.7685 71.2986 20.9518 71.2986 21.1953V21.3352C71.2986 21.5908 71.346 21.8224 71.4433 22.0297C71.5406 22.2371 71.7541 22.4301 72.0838 22.6037C72.2214 22.6857 72.3258 22.7677 72.3993 22.8545C72.4729 22.9413 72.5108 23.0595 72.5108 23.2114C72.5108 23.455 72.4112 23.6262 72.2119 23.7227C72.0126 23.8216 71.6331 23.8698 71.0756 23.8698L69.7424 23.8529L68.4447 23.8698C67.8873 23.8698 67.4958 23.8191 67.2752 23.7227L67.2705 23.7275Z" fill="white" fill-opacity="0.16"/>
<path d="M79.8412 23.4068C79.1532 23.0016 78.6218 22.4542 78.2518 21.7669C77.8817 21.0772 77.6967 20.3224 77.6967 19.5C77.6967 18.6198 77.9078 17.8457 78.3277 17.1728C78.7499 16.5024 79.3122 15.9815 80.0191 15.6101C80.726 15.2388 81.4875 15.0555 82.3084 15.0555C83.1292 15.0555 83.7697 15.2171 84.3319 15.5426C84.8965 15.8658 85.3235 16.2685 85.6129 16.7484C85.9023 17.2283 86.0494 17.6889 86.0494 18.1278C86.0494 18.615 85.9379 18.9646 85.7173 19.1793C85.4943 19.3939 85.1053 19.541 84.5478 19.623L81.5919 20.0571C81.4543 20.0691 81.3618 20.0957 81.3096 20.1343C81.2574 20.1728 81.2337 20.2404 81.2337 20.3344C81.2337 20.5539 81.3167 20.7854 81.4804 21.029C81.6465 21.2725 81.8885 21.4799 82.2063 21.6536C82.5242 21.8272 82.8896 21.914 83.3 21.914C83.7554 21.914 84.1587 21.8248 84.5122 21.6439C84.8657 21.4654 85.1385 21.2581 85.333 21.0265C85.4231 20.9349 85.5204 20.8867 85.6224 20.8867C85.7814 20.8867 85.8976 20.9325 85.9735 21.0265C86.0471 21.1182 86.085 21.2339 86.085 21.3738C86.085 21.4558 86.0803 21.5137 86.0684 21.5474C85.8857 22.2082 85.473 22.7822 84.8301 23.2741C84.1872 23.7661 83.3237 24.0121 82.2419 24.0121C81.331 24.0121 80.5315 23.8095 79.8412 23.4044V23.4068ZM82.5835 18.4582C82.7781 18.4245 82.9133 18.3618 82.9939 18.2749C83.0746 18.1881 83.1126 18.07 83.1126 17.918C83.1126 17.7106 83.058 17.4863 82.9512 17.25C82.8421 17.0137 82.6974 16.8135 82.5147 16.6519C82.3321 16.4904 82.1328 16.4084 81.9169 16.4084C81.21 16.4084 80.8589 16.9534 80.8589 18.041C80.8589 18.3087 80.8826 18.4896 80.9277 18.5884C80.9728 18.6873 81.0463 18.7355 81.1507 18.7355L81.3547 18.7018L82.5835 18.4582Z" fill="white" fill-opacity="0.16"/>
<path d="M86.9818 23.7612C86.6805 23.6503 86.5287 23.4694 86.5287 23.2138C86.5287 22.9582 86.6544 22.7797 86.9035 22.6398C87.2332 22.4662 87.4396 22.2395 87.5179 21.9622C87.5962 21.6849 87.6365 21.2556 87.6365 20.6768V18.0892C87.6365 17.7998 87.6057 17.5755 87.5416 17.4115C87.48 17.25 87.3614 17.1511 87.1906 17.1173C86.951 17.0595 86.7683 16.9919 86.6449 16.9172C86.5192 16.8424 86.4575 16.7291 86.4575 16.5795C86.4575 16.3939 86.5239 16.2516 86.6544 16.1551C86.7849 16.0562 86.9984 15.9501 87.2949 15.8344C88.5024 15.3593 89.3968 15.123 89.9756 15.123C90.2721 15.123 90.4833 15.1736 90.6066 15.2701C90.7324 15.3689 90.794 15.5498 90.794 15.8175V16.3914C90.794 16.6471 90.8225 16.7725 90.8794 16.7725C90.9032 16.7725 91.0075 16.6109 91.1949 16.2853C91.3824 15.9598 91.6457 15.668 91.9802 15.4075C92.317 15.1471 92.7393 15.0168 93.2517 15.0168C93.7973 15.0168 94.2243 15.2001 94.5327 15.5643C94.8411 15.9284 94.9929 16.459 94.9929 17.1535C94.9929 17.6045 94.8482 18.0193 94.5565 18.3955C94.267 18.7717 93.8922 18.9598 93.4367 18.9598C93.1189 18.9598 92.8484 18.8705 92.6254 18.6897C92.4024 18.5112 92.2933 18.2411 92.2933 17.8818C92.2933 17.7082 92.2672 17.5659 92.2174 17.4574C92.1652 17.3464 92.049 17.2934 91.8663 17.2934C91.5698 17.2934 91.3159 17.5128 91.1072 17.9541C90.896 18.3931 90.7917 18.914 90.7917 19.5168V20.6623C90.7917 21.2532 90.832 21.6776 90.9103 21.9381C90.9886 22.1985 91.1902 22.4276 91.5081 22.623C91.6457 22.7049 91.7477 22.7869 91.8165 22.8738C91.8853 22.9606 91.9185 23.0739 91.9185 23.2114C91.9185 23.385 91.8663 23.5225 91.7643 23.6189C91.6623 23.7178 91.4535 23.7926 91.1404 23.8456C90.8272 23.8987 90.3694 23.9228 89.7645 23.9228H88.7064C87.8524 23.9228 87.2736 23.8673 86.9723 23.7588L86.9818 23.7612Z" fill="white" fill-opacity="0.16"/>
</g>
<defs>
<clipPath id="clip0_188_26">
<rect width="95" height="27" fill="white"/>
</clipPath>
</defs>
</svg>
