<svg width="42" height="42" viewBox="0 0 42 42" fill="none" xmlns="http://www.w3.org/2000/svg">
<path fill-rule="evenodd" clip-rule="evenodd" d="M21.8324 7.06913C23.7975 5.10083 27.2488 3.73675 30.6756 3.24544C32.1948 3.007 33.7401 2.98645 35.2651 3.1844C36.6169 3.38581 37.4438 3.78252 37.8283 4.17008C38.2159 4.55459 38.6126 5.38158 38.814 6.73345C39.0093 8.0365 38.994 9.6325 38.7529 11.3231C38.2647 14.7501 36.8976 18.2015 34.9294 20.1667L21.3624 33.7373L17.8654 30.2402C17.7237 30.0983 17.5555 29.9857 17.3704 29.9089C17.1852 29.832 16.9867 29.7924 16.7863 29.7922C16.5858 29.7921 16.3872 29.8315 16.202 29.908C16.0167 29.9846 15.8483 30.097 15.7065 30.2386C15.42 30.5247 15.2589 30.9129 15.2586 31.3178C15.2584 31.5183 15.2978 31.7169 15.3744 31.9021C15.451 32.0874 15.5633 32.2558 15.7049 32.3977L20.2822 36.9751C20.4239 37.1172 20.5923 37.2299 20.7777 37.3069C20.963 37.3838 21.1617 37.4234 21.3624 37.4234C21.5631 37.4234 21.7618 37.3838 21.9472 37.3069C22.1326 37.2299 22.3009 37.1172 22.4427 36.9751L24.1118 35.3028L27.6821 41.2565C27.8011 41.4559 27.9641 41.6255 28.1586 41.7523C28.3531 41.8791 28.574 41.9599 28.8044 41.9884C29.0349 42.017 29.2688 41.9925 29.4883 41.917C29.7079 41.8415 29.9073 41.7168 30.0714 41.5526L36.1744 35.4493C36.342 35.2814 36.4682 35.0768 36.5428 34.8517C36.6175 34.6265 36.6387 34.3871 36.6047 34.1524L35.1857 24.2284L37.0899 22.3273C39.6989 19.7151 41.2338 15.5374 41.7739 11.7534C42.0486 9.84001 42.0791 7.93884 41.8319 6.27876C41.5878 4.6675 41.0507 3.07454 39.9888 2.00953C38.9238 0.947558 37.3309 0.40742 35.7167 0.166341C33.8993 -0.0743006 32.0569 -0.0537484 30.2454 0.227373C26.4584 0.761409 22.2779 2.29638 19.6719 4.90552L17.7708 6.80974L7.84732 5.39073C7.61258 5.35671 7.37314 5.37788 7.14802 5.45257C6.92289 5.52726 6.71828 5.65342 6.55043 5.82101L0.447426 11.9243C0.283159 12.0884 0.158512 12.2878 0.0829818 12.5074C0.00745109 12.727 -0.0169713 12.9609 0.0115749 13.1913C0.0401212 13.4218 0.120883 13.6426 0.247708 13.8371C0.374533 14.0316 0.544076 14.1946 0.743421 14.3137L6.69385 17.8841L5.02468 19.5534C4.88259 19.6951 4.76986 19.8635 4.69294 20.0488C4.61603 20.2342 4.57643 20.4329 4.57643 20.6336C4.57643 20.8343 4.61603 21.0331 4.69294 21.2184C4.76986 21.4038 4.88259 21.5722 5.02468 21.7139L9.60193 26.2913C9.74379 26.4332 9.9122 26.5457 10.0975 26.6225C10.2829 26.6993 10.4815 26.7388 10.6822 26.7388C10.8828 26.7388 11.0814 26.6993 11.2668 26.6225C11.4521 26.5457 11.6205 26.4332 11.7624 26.2913C11.9043 26.1495 12.0168 25.9811 12.0936 25.7957C12.1703 25.6104 12.2098 25.4117 12.2098 25.2111C12.2098 25.0104 12.1703 24.8118 12.0936 24.6264C12.0168 24.4411 11.9043 24.2727 11.7624 24.1308L8.26232 20.6367L21.8324 7.06913ZM29.2933 38.0127L26.3333 33.0782L32.4882 26.9261L33.4769 33.8289L29.2933 38.0127ZM8.92145 15.6625L15.0733 9.51043L8.17078 8.52171L3.99022 12.7024L8.92145 15.6625ZM5.65634 29.346C5.7982 29.2044 5.91077 29.0361 5.98762 28.851C6.06447 28.6658 6.10409 28.4673 6.10423 28.2668C6.10438 28.0663 6.06503 27.8678 5.98844 27.6825C5.91185 27.4972 5.79952 27.3289 5.65787 27.187C5.51621 27.0451 5.348 26.9326 5.16284 26.8557C4.97767 26.7789 4.77919 26.7392 4.57871 26.7391C4.37824 26.7389 4.1797 26.7783 3.99443 26.8549C3.80916 26.9315 3.64079 27.0438 3.49893 27.1855L0.447426 30.2371C0.161335 30.5236 0.00077154 30.912 0.00105767 31.3169C0.00134381 31.7218 0.162456 32.11 0.448951 32.3961C0.735447 32.6822 1.12386 32.8428 1.52874 32.8425C1.93362 32.8422 2.3218 32.6811 2.60789 32.3946L5.65634 29.346ZM10.2336 33.9235C10.3793 33.7827 10.4956 33.6144 10.5755 33.4282C10.6555 33.242 10.6976 33.0418 10.6993 32.8392C10.7011 32.6366 10.6625 32.4357 10.5858 32.2482C10.5091 32.0607 10.3958 31.8903 10.2525 31.7471C10.1093 31.6038 9.9389 31.4905 9.75139 31.4138C9.56388 31.3371 9.36297 31.2985 9.16038 31.3002C8.95779 31.302 8.75758 31.3441 8.57143 31.424C8.38529 31.504 8.21693 31.6202 8.07618 31.766L1.97318 37.8692C1.68709 38.1557 1.52652 38.5442 1.52681 38.9491C1.5271 39.354 1.68821 39.7422 1.9747 40.0283C2.2612 40.3144 2.64961 40.4749 3.05449 40.4747C3.45937 40.4744 3.84755 40.3132 4.13364 40.0267L10.2336 33.9235ZM14.8109 38.5009C14.9527 38.3593 15.0653 38.191 15.1421 38.0059C15.219 37.8207 15.2586 37.6222 15.2587 37.4217C15.2589 37.2212 15.2195 37.0227 15.143 36.8374C15.0664 36.6521 14.954 36.4838 14.8124 36.3419C14.6707 36.2 14.5025 36.0875 14.3173 36.0106C14.1322 35.9338 13.9337 35.8941 13.7332 35.894C13.5327 35.8938 13.3342 35.9332 13.1489 36.0098C12.9637 36.0864 12.7953 36.1987 12.6534 36.3404L9.60193 39.392C9.31584 39.6785 9.15528 40.0669 9.15557 40.4718C9.15585 40.8767 9.31697 41.2649 9.60346 41.551C9.88996 41.8371 10.2784 41.9977 10.6832 41.9974C11.0881 41.9971 11.4763 41.836 11.7624 41.5495L14.8109 38.5009ZM27.4654 18.3449C27.9659 18.3449 28.4616 18.2463 28.924 18.0548C29.3864 17.8632 29.8065 17.5825 30.1604 17.2285C30.5144 16.8746 30.7951 16.4544 30.9866 15.992C31.1782 15.5296 31.2768 15.0339 31.2768 14.5334C31.2768 14.0329 31.1782 13.5373 30.9866 13.0748C30.7951 12.6124 30.5144 12.1922 30.1604 11.8383C29.8065 11.4844 29.3864 11.2036 28.924 11.0121C28.4616 10.8205 27.9659 10.7219 27.4654 10.7219C26.4546 10.7219 25.4852 11.1235 24.7704 11.8383C24.0557 12.5531 23.6541 13.5225 23.6541 14.5334C23.6541 15.5443 24.0557 16.5138 24.7704 17.2285C25.4852 17.9433 26.4546 18.3449 27.4654 18.3449Z" fill="url(#paint0_linear_21_747)"/>
<defs>
<linearGradient id="paint0_linear_21_747" x1="42" y1="-4.05312e-06" x2="8" y2="42" gradientUnits="userSpaceOnUse">
<stop stop-color="#FDA518"/>
<stop offset="1" stop-color="#251D11"/>
</linearGradient>
</defs>
</svg>
